<?xml version="1.0" encoding="UTF-8" standalone="no"?>
<!DOCTYPE svg PUBLIC "-//W3C//DTD SVG 1.1//EN" "http://www.w3.org/Graphics/SVG/1.1/DTD/svg11.dtd">
<svg width="100%" height="100%" viewBox="0 0 1024 768" version="1.1" xmlns="http://www.w3.org/2000/svg" xmlns:xlink="http://www.w3.org/1999/xlink" xml:space="preserve" xmlns:serif="http://www.serif.com/" style="fill-rule:evenodd;clip-rule:evenodd;stroke-linecap:square;stroke-linejoin:round;stroke-miterlimit:1.5;">
    <g id="LOGIN-PAGE--1-.svg" serif:id="LOGIN-PAGE (1).svg" transform="matrix(0.158817,0,0,0.158817,468.69,391.645)">
        <g transform="matrix(1,0,0,1,-4677.33,-3308)">
            <g transform="matrix(2.66667,0,0,2.66667,301.203,31.1552)">
                <g id="Layer1">
                    <g>
                        <g id="house-logo" serif:id="house logo" transform="matrix(0.374048,0,0,0.374048,373.756,764.468)">
                            <use id="_Image1_" serif:id="_Image1" xlink:href="#_Image1" x="0" y="0" width="3508px" height="2481px"/>
                        </g>
                        <g transform="matrix(-0.994218,0.0363066,-0.0239803,-0.981405,3291.32,2359.67)">
                            
                        </g>
                        <g transform="matrix(1.01815,0,0,1.01815,-70.9938,-115.108)">
                            <g transform="matrix(563.915,0,0,563.915,1741.54,1520.08)">
                                <path d="M0.062,-0.515C0.069,-0.55 0.079,-0.581 0.094,-0.607C0.108,-0.634 0.127,-0.656 0.151,-0.674C0.175,-0.692 0.204,-0.705 0.239,-0.714C0.273,-0.723 0.314,-0.728 0.362,-0.728C0.404,-0.728 0.442,-0.724 0.476,-0.715C0.509,-0.706 0.538,-0.693 0.561,-0.674C0.585,-0.655 0.603,-0.631 0.615,-0.601C0.628,-0.571 0.634,-0.534 0.634,-0.491L0.634,-0.297C0.634,-0.257 0.634,-0.223 0.635,-0.194C0.635,-0.165 0.636,-0.139 0.639,-0.116C0.641,-0.093 0.645,-0.073 0.65,-0.054C0.656,-0.036 0.663,-0.018 0.673,-0L0.521,-0C0.516,-0.015 0.512,-0.029 0.51,-0.041C0.507,-0.053 0.505,-0.066 0.502,-0.078C0.49,-0.065 0.477,-0.053 0.463,-0.042C0.449,-0.031 0.432,-0.021 0.414,-0.012C0.395,-0.003 0.374,0.004 0.349,0.009C0.325,0.014 0.297,0.017 0.266,0.017C0.233,0.017 0.202,0.012 0.175,0.003C0.147,-0.007 0.123,-0.02 0.103,-0.038C0.083,-0.056 0.067,-0.077 0.056,-0.103C0.045,-0.128 0.039,-0.156 0.039,-0.188C0.039,-0.22 0.044,-0.249 0.053,-0.274C0.062,-0.3 0.078,-0.322 0.099,-0.341C0.121,-0.361 0.149,-0.377 0.184,-0.39C0.219,-0.404 0.263,-0.415 0.314,-0.423C0.354,-0.429 0.388,-0.435 0.417,-0.44C0.445,-0.445 0.47,-0.451 0.49,-0.456C0.49,-0.482 0.488,-0.505 0.485,-0.524C0.482,-0.543 0.475,-0.558 0.465,-0.57C0.456,-0.582 0.442,-0.591 0.425,-0.597C0.407,-0.603 0.384,-0.605 0.354,-0.605C0.332,-0.605 0.313,-0.604 0.296,-0.6C0.28,-0.596 0.266,-0.59 0.253,-0.581C0.241,-0.572 0.231,-0.56 0.222,-0.545C0.214,-0.53 0.207,-0.512 0.201,-0.489L0.062,-0.515ZM0.49,-0.349C0.465,-0.342 0.437,-0.334 0.406,-0.327C0.375,-0.319 0.342,-0.313 0.309,-0.307C0.282,-0.302 0.261,-0.296 0.245,-0.288C0.229,-0.28 0.217,-0.271 0.208,-0.261C0.199,-0.251 0.193,-0.24 0.19,-0.229C0.188,-0.217 0.187,-0.205 0.187,-0.192C0.187,-0.177 0.189,-0.164 0.195,-0.152C0.201,-0.141 0.208,-0.131 0.218,-0.123C0.228,-0.115 0.24,-0.109 0.254,-0.104C0.268,-0.1 0.283,-0.098 0.299,-0.098C0.324,-0.098 0.348,-0.101 0.371,-0.106C0.394,-0.112 0.415,-0.121 0.432,-0.133C0.45,-0.146 0.464,-0.163 0.474,-0.183C0.485,-0.204 0.49,-0.229 0.49,-0.259L0.49,-0.349Z" style="fill:rgba(255, 255, 255, 1);fill-rule:nonzero;"/>
                            </g>
                            <g transform="matrix(1,0,0,1,2138.86,1520.08)">
                                <text x="0px" y="0px" style="font-family:'Arial-BoldMT', 'Arial';font-weight:700;font-size:563.915px;fill:rgba(255, 255, 255, 1);">OS</text>
                            </g>
                        </g>
                    </g>
                </g>
            </g>
        </g>
    </g>
    <defs>
       </defs>
</svg>
