<svg width="1440" height="958" viewBox="0 0 1440 958" fill="none" xmlns="http://www.w3.org/2000/svg">
<mask id="mask0_134_262" style="mask-type:luminance" maskUnits="userSpaceOnUse" x="-168" y="-543" width="2252" height="1502">
<path d="M2083.5 -543H-168V958H2083.5V-543Z" fill="white"/>
</mask>
<g mask="url(#mask0_134_262)">
<path d="M2083.5 -543H-168V958H2083.5V-543Z" fill="#E6F4FF"/>
</g>
<mask id="mask1_134_262" style="mask-type:luminance" maskUnits="userSpaceOnUse" x="-168" y="-543" width="2252" height="1502">
<path d="M2083.5 -543H-168V958H2083.5V-543Z" fill="white"/>
</mask>
<g mask="url(#mask1_134_262)">
<path d="M-1594.33 1257.45C-1568.62 1113.92 -1423.4 1028.36 -1283.24 1011.66C-1143.09 994.775 -1000.3 1027.61 -858.648 1027.61C-479.082 1027.42 -121.281 766.247 2.92639 398.69C42.7029 280.862 60.152 155.34 98.9904 37.1367C137.829 -81.0671 203.685 -196.081 310.631 -252.369C464.484 -333.235 657.175 -270.944 812.341 -180.508C967.507 -90.0731 1112.92 29.6316 1284.97 71.0968C1511.06 125.508 1745.78 31.8832 1918.77 -119.155C2091.57 -270.193 2213.71 -473.203 2333.04 -672.836" stroke="#D4E8F7" stroke-miterlimit="10"/>
<path d="M-1602.77 1243.57C-1574.62 1100.78 -1429.78 1015.41 -1289.43 998.152C-1228.83 990.647 -1167.48 992.523 -1106.13 997.589C-1025.63 1004.16 -944.955 1015.79 -864.839 1017.48C-701.418 1021.04 -542.124 979.202 -402.156 897.96C-294.084 835.294 -197.832 752.551 -121.094 653.297C-66.1195 582.75 -22.4029 503.197 8.17994 416.89C21.8766 378.239 33.134 338.65 43.4534 298.686C64.4674 217.444 81.729 134.889 108.935 56.2745C139.893 -32.8474 186.611 -119.155 256.033 -177.882C277.61 -196.269 301.063 -212.029 326.767 -224.413C434.652 -276.197 559.422 -258.373 678.752 -214.281C730.349 -195.143 781.008 -171.315 828.102 -145.61C880.824 -116.903 932.421 -85.9453 983.83 -56.4882C1084.77 1.67555 1184.4 55.1487 1292.29 74.6617C1362.46 87.2326 1431.69 84.043 1500.17 68.6577C1639.39 37.512 1776.17 -45.606 1890.25 -151.614C1921.58 -180.696 1951.41 -211.279 1980.31 -243.175C2108.64 -384.832 2215.96 -548.629 2321.78 -703.044" stroke="#D4E8F7" stroke-miterlimit="10"/>
<path d="M-1611.21 1229.49C-1580.44 1087.46 -1436.16 1002.09 -1295.63 984.268C-1234.84 976.575 -1173.48 978.451 -1111.94 983.705C-1031.45 990.647 -950.772 1003.41 -870.843 1006.97C-707.797 1014.29 -548.691 979.202 -407.41 901.338C-298.212 841.298 -200.459 762.495 -120.719 666.994C-63.6806 598.699 -18.2752 520.459 13.621 434.714C27.8805 396.439 39.5132 356.85 50.3955 316.886C72.3476 235.832 90.5472 153.089 118.879 75.2246C151.15 -13.3344 199.557 -97.5781 271.23 -153.49C293.37 -170.752 317.011 -185.574 342.903 -196.832C451.35 -243.926 574.432 -221.786 693.574 -177.506C745.359 -158.369 796.393 -135.291 844.05 -111.275C897.335 -84.4443 949.495 -56.3005 1000.72 -30.4082C1101.28 21.001 1198.29 66.2187 1299.98 77.4762C1365.83 84.7935 1428.69 76.3504 1491.92 56.8374C1620.07 16.8733 1750.09 -73.7497 1862.29 -184.636C1893.06 -215.031 1922.89 -246.928 1951.98 -279.574C2081.62 -425.547 2197.01 -587.842 2310.9 -734.002" stroke="#D4E8F7" stroke-miterlimit="10"/>
<path d="M-1619.65 1215.42C-1586.26 1074.14 -1442.54 988.771 -1301.82 970.571C-1241.03 962.691 -1179.3 964.38 -1117.76 970.008C-1037.08 977.513 -956.776 991.397 -876.847 996.651C-713.989 1007.72 -555.446 979.389 -412.663 904.902C-302.34 847.489 -202.898 772.627 -120.343 680.878C-61.0538 614.834 -14.1476 537.908 19.0621 452.538C33.8844 414.45 46.0801 375.237 57.5252 335.085C80.4155 254.219 99.5533 171.289 129.01 93.9871C162.595 5.99091 212.503 -76.1889 286.615 -129.287C309.318 -145.422 333.147 -159.307 359.039 -169.251C467.861 -211.654 589.442 -185.011 708.397 -140.732C760.369 -121.406 811.59 -99.2667 859.81 -76.9393C913.658 -51.9852 966.193 -26.6558 1017.41 -4.14082C1117.61 40.1387 1212.17 77.476 1307.48 80.478C1369.21 82.3543 1425.69 69.0329 1483.29 45.2045C1600.37 -3.20271 1723.64 -101.893 1833.77 -217.47C1863.98 -249.367 1893.62 -282.201 1922.89 -315.786C2053.67 -466.074 2177.13 -626.868 2299.46 -764.585" stroke="#D4E8F7" stroke-miterlimit="10"/>
<path d="M-1628.1 1201.35C-1592.07 1061.01 -1448.92 975.449 -1307.82 956.875C-1246.84 948.807 -1185.12 950.308 -1123.39 956.499C-1042.71 964.379 -962.404 979.389 -882.664 986.519C-720.18 1001.15 -561.825 979.765 -417.916 908.843C-306.28 854.056 -205.15 783.321 -120.156 695.138C-58.4269 631.345 -10.2073 555.732 24.128 470.926C39.5133 433.213 52.2718 393.999 64.0921 353.848C87.9205 272.981 107.996 190.239 138.767 113.312C173.665 26.0668 225.074 -54.4244 301.625 -104.333C324.891 -119.53 348.907 -132.101 374.987 -141.107C484.372 -178.82 604.077 -147.674 723.219 -103.395C775.191 -83.8815 826.976 -62.6799 875.571 -41.8535C929.982 -18.588 983.08 3.73935 1033.93 22.8771C1133.74 60.4021 1225.87 89.2964 1314.61 84.2305C1372.21 80.8533 1422.31 62.2784 1474.47 34.1346C1580.67 -22.9034 1696.81 -129.287 1805.25 -249.554C1835.08 -282.764 1864.54 -316.912 1894 -351.435C2025.9 -505.85 2157.42 -665.519 2288.01 -794.605" stroke="#D4E8F7" stroke-miterlimit="10"/>
<path d="M-1636.54 1187.28C-1597.89 1047.68 -1455.3 962.128 -1314.01 943.178C-1253.04 934.922 -1191.12 936.423 -1129.2 942.803C-1048.52 951.058 -968.221 967.194 -888.668 976.2C-726.56 994.587 -568.579 979.765 -423.17 912.407C-310.407 860.247 -207.589 793.641 -119.78 709.209C-55.8003 647.668 -6.07955 573.181 29.5692 488.938C45.5173 451.413 58.8387 412.387 71.0343 372.423C95.8008 291.744 116.815 208.813 148.711 132.638C184.923 45.955 237.833 -32.4723 316.823 -79.5661C340.464 -93.638 364.855 -105.271 390.935 -113.151C500.696 -145.985 618.899 -110.712 737.854 -66.0571C790.013 -46.5441 842.173 -26.093 891.331 -6.95523C946.305 14.434 999.778 33.947 1050.62 49.5199C1150.07 80.1027 1240.13 100.929 1322.12 87.6077C1375.78 78.977 1419.12 55.1486 1466.03 22.8771C1561.34 -42.9793 1670.54 -156.868 1777.11 -282.014C1806.38 -316.537 1835.84 -351.81 1865.48 -387.271C1998.51 -546.002 2138.29 -704.17 2277.13 -824.813" stroke="#D4E8F7" stroke-miterlimit="10"/>
<path d="M-1645.17 1173.39C-1603.89 1034.55 -1461.86 949.182 -1320.39 929.669C-1259.23 921.226 -1197.12 922.539 -1135.21 929.293C-1054.34 938.112 -974.412 955.373 -894.859 966.068C-732.939 988.02 -575.334 980.14 -428.611 916.16C-314.723 866.814 -210.028 804.148 -119.593 723.281C-53.1735 663.992 -2.13952 590.818 34.8226 507.137C51.146 469.8 65.0302 430.961 77.9764 390.997C103.681 310.506 125.821 227.388 158.655 151.775C196.18 65.8432 250.591 -10.8955 332.021 -54.9874C356.224 -68.1211 380.803 -78.628 407.071 -85.3825C517.207 -113.526 633.722 -73.7498 752.676 -29.095C805.023 -9.3944 857.558 10.1185 907.091 27.5676C962.628 47.0806 1016.48 63.7793 1067.32 75.975C1166.39 99.8034 1254.57 111.999 1329.62 90.7973C1379.53 76.7254 1416.12 47.8312 1457.4 11.2443C1541.64 -63.2428 1644.08 -185.012 1748.78 -314.848C1777.48 -350.872 1806.94 -387.271 1836.77 -423.483C1971.11 -586.529 2118.77 -743.196 2265.87 -855.583" stroke="#D4E8F7" stroke-miterlimit="10"/>
<path d="M-1653.61 1159.32C-1609.71 1021.42 -1468.24 935.861 -1326.58 915.785C-1265.42 907.154 -1203.13 908.467 -1141.02 915.597C-1060.16 924.791 -980.229 943.178 -900.863 955.749C-739.318 981.453 -581.901 980.328 -433.864 919.725C-318.85 873.006 -212.279 814.467 -119.217 737.166C-50.5465 680.128 1.98849 608.267 40.264 525.149C57.1502 488.187 71.5974 449.349 84.9187 409.385C111.561 328.894 134.639 245.776 168.6 170.726C207.438 85.3564 263.35 10.4939 347.218 -30.4083C371.797 -42.4163 396.752 -51.9852 423.019 -57.614C533.718 -81.0671 648.544 -36.7877 767.311 7.86709C819.658 27.5677 872.756 46.3303 922.664 62.0908C978.577 79.7275 1033.18 93.6119 1083.83 102.243C1182.53 119.129 1268.83 122.694 1336.75 93.7995C1383.1 74.0989 1412.55 40.3263 1448.58 -0.38834C1521.94 -83.6938 1617.44 -212.968 1720.26 -347.682C1748.59 -385.02 1777.67 -422.545 1807.88 -459.694C1943.34 -627.056 2099.26 -782.409 2254.61 -886.166" stroke="#D4E8F7" stroke-miterlimit="10"/>
<path d="M-1662.06 1145.25C-1615.53 1008.1 -1474.62 922.539 -1332.59 902.088C-1271.24 893.269 -1208.76 894.395 -1146.65 901.9C-1065.79 911.657 -985.857 931.17 -906.867 945.429C-745.697 974.886 -588.655 980.515 -439.118 923.477C-322.978 879.385 -214.719 824.974 -118.842 751.237C-47.7324 696.451 6.11603 625.904 45.7049 543.161C63.154 506.387 78.1641 467.736 92.0483 427.772C119.629 347.468 143.645 264.163 178.731 189.676C218.883 104.869 276.108 31.8831 362.603 -6.01715C387.745 -17.087 412.887 -25.5302 439.342 -29.8456C550.416 -48.6081 663.554 -0.0131988 782.321 44.8292C834.856 64.7174 888.329 82.5418 938.8 96.8013C995.275 112.749 1050.25 123.632 1100.91 128.885C1199.22 139.017 1284.03 133.576 1344.63 97.1766C1387.41 71.6596 1409.93 33.1965 1440.32 -11.6459C1502.61 -103.77 1591.36 -240.548 1692.11 -380.141C1719.88 -418.792 1748.96 -457.631 1779.36 -495.531C1915.95 -667.208 2079.94 -821.06 2243.54 -916.374" stroke="#D4E8F7" stroke-miterlimit="10"/>
<path d="M-1670.5 1131.18C-1621.34 994.775 -1481 909.218 -1338.78 888.391C-1277.43 879.385 -1214.76 880.323 -1152.47 888.204C-1071.6 898.335 -991.861 918.974 -912.871 935.297C-751.889 968.319 -595.222 980.89 -444.372 927.229C-327.106 885.764 -216.97 835.481 -118.467 765.497C-44.918 713.149 10.2438 643.728 51.1461 561.548C69.1581 525.149 84.5433 486.498 98.9905 446.534C127.697 366.418 152.464 282.925 188.675 209.189C230.14 125.133 288.867 53.8351 377.801 19.1245C403.318 9.18034 428.835 1.86297 455.29 -1.51428C566.74 -15.5862 678.376 37.5117 796.955 82.3541C849.678 102.242 903.339 119.316 954.373 131.887C1011.41 145.959 1066.76 154.027 1117.23 155.716C1215.17 158.905 1298.1 144.083 1351.76 100.741C1390.79 69.2203 1406.36 26.2543 1431.5 -22.9035C1482.91 -123.846 1564.53 -268.317 1663.6 -412.601C1690.99 -452.565 1719.88 -492.529 1750.47 -531.555C1888.18 -707.547 2060.42 -859.899 2232.29 -946.957" stroke="#D4E8F7" stroke-miterlimit="10"/>
<path d="M-1678.94 1117.11C-1627.35 981.453 -1487.38 896.084 -1344.97 874.695C-1283.43 865.501 -1220.76 866.439 -1158.47 874.507C-1077.42 885.202 -997.865 906.778 -919.063 924.978C-758.456 961.753 -602.164 980.89 -449.813 930.794C-331.234 891.956 -219.222 845.988 -118.279 779.381C-42.2911 729.285 14.1839 661.177 56.3996 579.373C74.9744 543.161 90.9225 504.698 105.745 464.734C135.39 384.618 161.094 301.125 198.432 227.951C241.21 144.458 301.25 74.8491 392.811 43.3281C418.891 34.3221 444.596 28.1306 471.238 25.8791C583.251 16.6855 693.011 73.911 811.59 119.129C864.313 139.205 918.537 155.34 969.946 166.222C1027.55 178.418 1083.27 183.859 1133.74 181.983C1231.12 178.418 1312.36 153.652 1358.89 103.744C1394.35 65.8432 1402.98 18.7493 1422.5 -34.5362C1462.84 -144.297 1537.7 -296.273 1634.89 -445.435C1661.72 -486.9 1690.43 -527.802 1721.38 -567.767C1860.41 -748.074 2040.53 -898.925 2220.84 -977.54" stroke="#D4E8F7" stroke-miterlimit="10"/>
<path d="M-1687.39 1103.22C-1633.16 968.507 -1493.76 882.95 -1351.16 861.186C-1289.62 851.805 -1226.58 852.555 -1164.29 861.186C-1083.23 872.256 -1003.68 895.146 -925.067 915.034C-764.648 955.561 -608.731 981.453 -455.066 934.735C-335.361 898.711 -221.473 856.683 -117.904 793.641C-39.6645 745.984 18.3117 679.002 61.8407 597.76C80.9785 561.924 97.4894 523.461 112.875 483.497C143.458 403.568 170.1 320.075 208.751 247.277C252.843 164.534 314.196 96.6138 408.572 68.0948C435.027 60.0269 461.107 54.961 487.937 53.8352C600.324 49.3322 708.584 111.061 826.975 156.279C879.886 176.542 934.485 191.74 986.457 201.121C1044.62 211.44 1100.91 214.067 1151.19 208.814C1248.19 198.494 1327.18 163.784 1367.15 107.496C1398.48 63.2166 1400.55 11.9949 1414.8 -45.606C1444.07 -164.185 1512.18 -323.666 1607.5 -477.519C1633.76 -520.297 1662.47 -562.513 1693.43 -603.228C1833.58 -787.663 2021.77 -937.388 2210.33 -1007.37" stroke="#D4E8F7" stroke-miterlimit="10"/>
<path d="M-1695.83 1089.15C-1638.98 955.186 -1500.14 869.629 -1357.17 847.302C-1295.44 837.733 -1232.4 838.296 -1169.92 847.302C-1088.86 858.747 -1009.5 882.763 -930.883 904.527C-770.839 948.619 -615.11 981.453 -460.32 938.3C-339.489 904.902 -223.725 867.19 -117.716 807.525C-37.0377 762.12 22.2518 696.451 67.0942 615.772C86.7948 580.123 103.869 541.848 119.629 501.884C151.15 422.143 178.731 338.463 218.508 266.415C263.725 184.235 326.579 118.003 423.582 92.8614C450.6 85.9193 476.867 81.7915 503.698 81.7915C616.46 81.9791 723.031 148.211 841.423 193.428C894.521 213.692 949.495 228.139 1001.84 235.832C1060.57 244.462 1117.23 244.087 1167.51 235.269C1264.14 218.195 1340.69 173.353 1374.28 110.686C1401.48 59.8394 1396.98 4.67758 1405.8 -57.0511C1424 -184.448 1485.35 -351.622 1578.79 -510.165C1604.68 -554.257 1633.2 -597.599 1664.35 -639.252C1805.63 -828.002 2002.07 -976.226 2198.89 -1037.77" stroke="#D4E8F7" stroke-miterlimit="10"/>
<path d="M-1704.46 1075.08C-1644.98 941.864 -1506.89 856.307 -1363.55 833.604C-1301.82 823.848 -1238.4 824.411 -1175.92 833.604C-1094.68 845.612 -1015.5 870.567 -937.075 894.207C-777.406 942.052 -622.053 981.641 -465.761 941.864C-343.805 911.094 -226.164 877.509 -117.529 821.597C-34.4112 778.631 26.1917 714.087 72.3475 633.784C92.611 598.323 110.06 560.235 126.571 520.271C159.03 440.53 187.549 356.849 228.451 285.364C274.982 203.935 339.15 139.204 438.779 117.252C466.172 111.248 492.815 108.434 519.833 109.56C633.159 114.438 738.041 184.985 856.432 230.39C909.53 250.841 965.067 264.35 1017.79 270.354C1077.08 277.109 1134.12 274.107 1184.4 261.724C1280.46 237.895 1354.39 183.109 1381.97 113.875C1404.67 56.6494 1393.98 -2.63997 1397.54 -68.684C1404.67 -204.9 1459.08 -379.579 1550.64 -543C1575.97 -588.593 1604.49 -633.06 1635.83 -675.463C1778.42 -868.529 1982.75 -1015.25 2187.82 -1068.54" stroke="#D4E8F7" stroke-miterlimit="10"/>
<path d="M-1712.9 1061.01C-1650.8 928.731 -1513.27 842.986 -1369.74 819.908C-1307.82 809.964 -1244.4 810.339 -1181.74 820.096C-1100.5 832.479 -1021.51 858.746 -943.267 884.076C-783.785 935.673 -628.807 982.016 -471.202 945.617C-348.12 917.473 -228.415 888.204 -117.341 835.669C-31.7841 795.142 30.1321 731.724 77.6012 651.984C98.4276 616.898 116.44 578.81 133.326 539.034C166.723 459.481 196.18 375.612 238.208 304.69C286.053 223.823 351.534 160.781 453.789 142.019C481.746 136.953 508.576 135.264 535.594 137.516C649.295 147.085 752.488 222.135 870.88 267.54C924.165 287.991 979.89 300.75 1033.36 305.065C1093.03 309.943 1150.63 304.127 1200.72 288.179C1296.41 257.784 1367.34 192.865 1388.91 117.065C1407.11 53.4599 1390.41 -9.95726 1388.35 -80.129C1384.41 -224.976 1432.07 -407.347 1521.75 -575.647C1546.71 -622.553 1574.85 -668.146 1606.56 -711.675C1750.28 -909.056 1962.86 -1054.47 2176.19 -1099.12" stroke="#D4E8F7" stroke-miterlimit="10"/>
<path d="M-1721.35 1046.93C-1656.62 915.409 -1519.65 829.852 -1375.93 806.212C-1314.01 796.08 -1250.22 796.455 -1187.55 806.399C-1106.31 819.345 -1027.32 846.551 -949.271 873.757C-790.165 928.918 -635.562 982.016 -476.456 949.37C-352.248 924.04 -230.667 898.898 -116.966 849.741C-28.7824 811.653 34.4473 749.361 83.0422 669.996C104.431 635.097 123.006 597.385 140.268 557.421C174.603 478.055 205.186 393.999 248.152 323.828C297.31 243.524 364.292 181.983 468.987 166.785C497.318 162.658 524.711 162.095 551.729 165.472C665.993 179.732 767.498 259.285 885.702 304.878C939.175 325.516 995.275 337.337 1049.12 340.151C1109.35 343.153 1167.51 334.71 1217.42 315.197C1312.74 278.047 1380.47 203.372 1396.42 120.817C1409.93 50.8332 1387.22 -16.7118 1379.91 -91.0113C1364.71 -244.676 1405.8 -434.74 1493.61 -607.731C1518 -655.95 1546.14 -702.856 1578.04 -747.136C1722.88 -948.833 1943.53 -1092.74 2165.12 -1128.95" stroke="#D4E8F7" stroke-miterlimit="10"/>
<path d="M-1729.79 1033.05C-1662.43 902.275 -1526.03 816.719 -1381.93 792.703C-1319.83 782.383 -1256.04 782.571 -1193.18 792.89C-1111.75 806.211 -1032.95 834.73 -955.087 863.625C-796.356 922.539 -641.941 982.391 -481.522 953.122C-356 930.419 -232.731 909.593 -116.403 863.812C-25.7804 828.164 38.7626 766.81 88.6709 688.195C110.623 653.672 129.761 615.96 147.585 575.996C182.859 496.63 214.379 412.574 258.471 342.965C308.942 263.412 377.238 203.185 484.559 191.364C513.266 188.175 541.035 188.738 568.053 193.241C682.691 212.378 782.508 296.059 900.712 341.839C954.373 362.478 1010.85 373.548 1065.07 374.674C1125.86 375.987 1184.4 364.542 1234.31 341.464C1329.25 297.56 1393.79 213.316 1404.11 123.819C1412.74 47.8312 1384.03 -24.2169 1371.46 -102.832C1344.82 -265.315 1379.53 -462.884 1465.46 -640.753C1489.29 -690.286 1517.44 -738.318 1549.52 -783.535C1695.3 -989.548 1924.02 -1132.14 2154.05 -1159.91" stroke="#D4E8F7" stroke-miterlimit="10"/>
<path d="M-1738.23 1018.98C-1668.25 888.954 -1532.41 803.397 -1388.13 778.818C-1326.02 768.311 -1262.04 768.311 -1199 779.006C-1117.57 792.89 -1038.96 822.347 -961.091 853.118C-802.548 915.785 -648.695 982.391 -486.775 956.499C-360.128 936.423 -234.795 920.1 -116.028 877.509C-22.9661 844.299 42.8903 784.072 94.1119 706.02C116.439 671.684 136.14 634.159 154.527 594.195C190.927 515.018 223.198 430.962 268.416 361.728C320.2 282.738 389.809 224.199 499.757 215.568C529.027 213.317 556.983 215.193 584.189 220.634C699.203 244.462 797.518 332.646 915.534 378.427C969.195 399.253 1026.23 409.385 1080.83 408.822C1142.19 408.259 1201.1 394.187 1251.01 367.544C1345.57 316.886 1406.92 223.073 1411.43 126.634C1415.18 44.4541 1380.66 -31.9094 1362.83 -114.652C1325.31 -285.766 1352.89 -491.028 1437.13 -673.775C1460.58 -724.809 1488.35 -773.966 1520.81 -819.934C1667.72 -1029.89 1904.51 -1170.98 2142.79 -1190.31" stroke="#D4E8F7" stroke-miterlimit="10"/>
<path d="M-1746.68 1004.91C-1674.07 875.82 -1538.79 790.076 -1394.32 765.122C-1332.03 754.427 -1267.86 754.427 -1204.82 765.497C-1123.39 779.756 -1044.77 810.339 -967.095 842.986C-808.927 909.218 -655.262 982.767 -492.028 960.252C-364.256 942.802 -237.046 930.794 -115.653 891.768C-20.1515 860.998 47.0183 801.896 99.5533 724.219C122.444 690.259 142.707 652.734 161.657 612.77C198.995 533.78 232.204 449.536 278.735 381.053C331.833 302.814 402.755 245.4 515.33 240.522C544.975 239.209 573.306 242.211 600.512 248.965C716.089 277.484 812.528 370.171 930.545 415.952C984.393 436.966 1041.81 446.159 1096.97 443.908C1158.88 441.469 1218.36 424.77 1268.08 394.562C1362.27 337.337 1420.43 233.955 1419.31 130.386C1418.37 42.2026 1378.03 -38.6638 1354.58 -125.722C1305.98 -305.654 1326.81 -518.609 1408.99 -705.858C1431.88 -758.206 1459.65 -808.489 1492.29 -855.583C1640.71 -1070.04 1885.56 -1209.82 2132.1 -1220.7" stroke="#D4E8F7" stroke-miterlimit="10"/>
<path d="M-1755.12 990.835C-1680.07 862.499 -1545.17 776.942 -1400.51 751.425C-1338.22 740.543 -1273.86 740.355 -1210.63 751.8C-1129.2 766.435 -1050.59 798.331 -973.099 832.667C-815.306 902.651 -661.829 982.954 -497.47 964.004C-368.571 949.182 -239.485 941.489 -115.465 905.84C-17.5248 877.509 50.9583 819.533 104.619 742.419C128.072 708.646 148.899 671.309 168.224 631.345C206.499 552.355 240.647 468.111 288.304 400.191C342.715 322.514 415.138 266.602 530.153 265.101C560.36 264.726 588.879 268.854 616.273 276.734C732.225 309.943 827.163 406.945 944.991 452.914C999.027 473.928 1056.82 482.371 1112.35 478.618C1174.83 474.303 1234.87 454.977 1284.22 421.017C1378.22 357.225 1433 244.462 1426.25 133.576C1420.43 39.5757 1374.28 -45.9813 1345.57 -137.167C1285.91 -325.918 1299.98 -546.377 1380.28 -738.505C1402.61 -792.166 1430.38 -843.575 1463.02 -891.607C1612.56 -1110.38 1865.67 -1248.66 2120.46 -1251.28" stroke="#D4E8F7" stroke-miterlimit="10"/>
<path d="M-1763.75 976.95C-1686.07 849.365 -1551.73 763.808 -1406.7 737.916C-1344.22 726.846 -1279.68 726.471 -1216.45 738.291C-1134.83 753.489 -1056.59 786.323 -979.291 822.535C-821.686 896.272 -668.771 983.142 -502.911 967.757C-372.887 955.749 -241.737 952.559 -115.465 919.912C-15.0856 894.395 54.7109 837.17 109.685 760.431C133.701 726.846 154.903 689.696 174.791 649.732C214.004 570.93 249.09 486.499 297.873 419.141C353.597 342.027 427.334 287.616 544.975 289.492C575.558 290.055 604.452 295.309 631.845 304.315C748.173 342.215 841.422 443.72 959.251 489.876C1013.29 511.078 1071.45 518.583 1127.55 513.142C1190.59 507.138 1251.01 484.81 1300.35 447.473C1393.98 376.926 1445.57 254.969 1433 136.766C1422.31 36.7615 1370.34 -53.1108 1336.19 -148.612C1265.46 -345.993 1272.77 -574.146 1351.2 -771.152C1373.15 -826.126 1400.55 -878.849 1433.57 -927.631C1584.23 -1150.72 1845.4 -1287.5 2108.45 -1281.68" stroke="#D4E8F7" stroke-miterlimit="10"/>
<path d="M-1772.19 962.878C-1657.18 781.445 -1432.97 684.255 -1222.27 724.595C-974.225 772.064 -757.33 989.146 -508.164 971.321C-377.014 961.94 -243.988 963.066 -115.09 933.796C32.5711 900.399 114.939 799.457 181.921 668.119C268.041 499.445 335.21 303.939 560.36 314.071C723.219 321.388 828.852 469.8 974.261 526.838C1089.46 572.055 1224.18 551.229 1317.43 473.928C1410.68 396.626 1459.27 265.476 1440.88 139.955C1425.5 34.1345 1367.71 -60.4285 1328.12 -160.245C1223.43 -424.046 1253.45 -736.441 1405.42 -963.843C1557.4 -1191.24 1826.45 -1326.71 2097.95 -1312.26" stroke="#D4E8F7" stroke-miterlimit="10"/>
<path d="M-1758.87 988.771C-1642.17 821.597 -1419.27 731.162 -1210.07 768.124C-1105.37 786.511 -1006.12 833.229 -908.181 878.447C-807.801 924.978 -708.923 970.196 -605.729 983.329C-572.52 987.645 -538.747 988.583 -504.599 985.018C-376.076 971.697 -246.427 968.507 -118.092 938.299C27.3174 904.152 111.373 807.337 180.607 683.317C196.555 654.798 211.941 625.716 227.701 597.01C273.857 512.578 323.014 432.65 400.879 388.183C444.408 363.416 496.755 349.345 561.861 351.596C722.656 357.037 827.726 492.69 968.632 541.473C987.394 547.852 1006.53 552.542 1025.86 555.544C1122.11 570.179 1223.99 542.411 1298.29 477.117C1387.6 398.69 1433.75 268.853 1417.06 144.646C1402.98 39.388 1348.76 -55.7378 1312.36 -155.554C1249.51 -327.794 1242.38 -519.735 1287.59 -694.226C1311.99 -787.475 1351.2 -875.472 1404.86 -953.148C1502.61 -1094.99 1646.52 -1199.88 1808.07 -1255.22C1900.94 -1287.12 1999.63 -1302.13 2098.51 -1297.82" stroke="#D4E8F7" stroke-miterlimit="10"/>
<path d="M-1745.55 1014.85C-1627.16 861.749 -1405.57 778.255 -1197.87 812.028C-1093.55 828.914 -994.676 871.317 -897.674 911.469C-798.232 952.746 -701.418 991.96 -599.913 1000.97C-567.266 1003.97 -534.244 1003.59 -500.847 999.09C-375.138 982.016 -248.491 974.511 -120.906 942.99C22.4395 908.092 107.809 815.03 179.482 698.515C195.993 671.684 212.128 644.479 228.264 617.648C275.921 538.846 325.642 464.922 403.506 424.019C447.223 401.129 499.195 387.808 563.175 389.309C721.906 392.874 826.6 515.956 963.004 556.483C981.203 561.736 999.591 565.489 1018.35 567.553C1111.04 577.497 1208.42 546.914 1279.34 480.87C1364.52 401.317 1408.61 272.794 1393.23 149.712C1380.28 45.0169 1330 -50.4842 1296.79 -150.488C1239.38 -322.728 1236.19 -513.918 1283.84 -686.345C1309.73 -778.845 1350.26 -865.715 1404.67 -942.078C1503.93 -1081.48 1648.02 -1184.11 1809.76 -1239.28C1902.44 -1270.99 2000.76 -1286.37 2099.45 -1282.99" stroke="#D4E8F7" stroke-miterlimit="10"/>
<path d="M-1732.42 1040.93C-1612.34 902.088 -1392.07 825.162 -1185.68 855.745C-1081.92 870.943 -983.418 909.218 -887.354 944.492C-788.851 980.516 -693.913 1013.91 -594.472 1018.6C-562.388 1020.1 -530.304 1018.6 -497.469 1013.16C-374.387 992.148 -251.118 980.14 -124.283 947.681C16.8108 911.657 103.869 822.911 177.605 713.713C194.679 688.571 211.378 663.242 228.077 638.287C277.234 565.301 327.705 497.193 405.382 459.856C449.286 438.654 501.071 426.271 563.925 427.022C720.592 428.523 824.724 539.409 956.625 571.305C974.074 575.621 992.086 578.06 1009.91 579.186C1099.03 584.627 1191.72 551.23 1259.26 484.06C1340.51 403.381 1382.35 276.171 1368.46 154.215C1356.83 49.8953 1310.11 -45.7934 1280.09 -145.985C1228.12 -318.413 1228.31 -508.477 1278.78 -678.84C1305.98 -770.777 1348.01 -856.334 1403.17 -931.384C1503.93 -1068.54 1648.21 -1168.73 1810.32 -1223.89C1902.82 -1255.41 2000.95 -1270.98 2099.26 -1268.55" stroke="#D4E8F7" stroke-miterlimit="10"/>
<path d="M-1719.1 1067.01C-1597.33 942.428 -1378.37 872.256 -1173.48 899.462C-1070.1 912.971 -972.161 947.306 -877.035 977.326C-779.658 1008.28 -686.408 1035.49 -588.843 1035.86C-557.51 1036.05 -525.989 1033.43 -493.905 1026.86C-373.637 1002.28 -253.369 985.581 -127.285 952.184C11.5571 915.41 100.304 830.603 176.292 728.723C193.929 705.27 211.19 681.816 228.452 658.926C279.11 591.569 330.332 529.465 407.821 495.505C451.913 476.179 503.51 464.922 565.239 464.547C719.842 463.796 823.598 562.299 950.808 585.94C967.694 589.13 984.956 590.63 1002.22 590.818C1087.77 591.569 1175.96 555.357 1240.13 487.437C1317.24 405.632 1356.64 279.736 1344.45 159.093C1333.94 55.3363 1291.16 -40.9154 1264.33 -141.295C1217.8 -313.722 1221.74 -503.036 1274.65 -671.148C1303.36 -762.521 1346.51 -846.765 1402.61 -920.689C1504.86 -1055.4 1649.52 -1153.34 1811.63 -1208.32C1903.94 -1239.65 2001.7 -1255.6 2099.82 -1254.1" stroke="#D4E8F7" stroke-miterlimit="10"/>
<path d="M-1705.77 1093.09C-1582.13 982.579 -1364.86 919.35 -1161.29 943.178C-1058.47 954.998 -960.716 985.206 -866.528 1010.16C-770.089 1035.86 -678.903 1057.25 -583.027 1053.31C-552.256 1052.19 -521.486 1048.25 -490.34 1040.74C-372.699 1012.41 -255.809 991.21 -130.475 956.687C6.116 918.975 96.5512 838.108 174.791 743.733C192.99 721.781 211.002 700.391 228.639 679.377C280.611 617.649 332.583 561.736 410.26 531.153C454.54 513.704 505.761 502.822 566.552 502.072C719.091 500.195 822.285 585.377 944.991 600.762C961.315 602.826 977.826 603.201 994.337 602.451C1076.33 598.511 1160.01 559.672 1220.8 490.814C1293.97 407.696 1331.12 283.301 1320.43 163.784C1311.24 60.5899 1272.02 -36.0371 1248.57 -136.604C1207.67 -309.032 1215.17 -497.407 1270.52 -663.643C1300.73 -754.453 1345.2 -837.384 1402.05 -909.994C1505.61 -1042.27 1650.65 -1137.77 1813.13 -1192.75C1905.44 -1223.89 2002.63 -1240.21 2100.39 -1239.65" stroke="#D4E8F7" stroke-miterlimit="10"/>
<path d="M-1692.64 1118.98C-1567.31 1022.73 -1351.35 966.068 -1149.09 986.895C-1046.65 997.026 -949.458 1023.11 -856.209 1043.18C-760.707 1063.82 -671.398 1079.02 -577.585 1070.95C-547.378 1068.32 -517.358 1063.45 -486.962 1054.81C-372.136 1022.54 -258.248 997.026 -133.665 961.378C0.674902 922.915 92.7989 845.988 173.29 758.93C192.052 738.667 210.627 719.154 228.827 700.016C282.3 644.104 335.023 594.008 412.512 566.99C457.167 551.417 508.013 541.285 567.678 539.784C718.153 536.031 820.971 608.642 938.988 615.585C954.748 616.523 970.508 615.96 986.269 614.271C1064.7 605.64 1143.87 564.175 1201.29 494.379C1270.33 410.135 1305.23 287.241 1296.04 168.662C1287.97 66.0308 1252.51 -31.1589 1232.25 -131.726C1196.78 -304.153 1208.04 -491.591 1265.83 -655.763C1297.54 -745.823 1343.32 -827.627 1401.11 -898.925C1506.18 -1028.95 1651.4 -1122.01 1814.07 -1176.8C1906.19 -1207.94 2003.2 -1224.45 2100.57 -1224.64" stroke="#D4E8F7" stroke-miterlimit="10"/>
<path d="M-1679.32 1145.06C-1552.3 1062.88 -1337.65 1013.16 -1136.9 1030.61C-1035.02 1039.05 -938.013 1061.01 -845.889 1076.02C-751.326 1091.4 -664.081 1100.6 -571.957 1088.4C-542.5 1084.46 -513.042 1078.27 -483.398 1068.89C-371.198 1032.86 -260.687 1002.84 -136.854 966.068C-4.57858 926.855 89.0463 853.868 171.789 774.315C191.114 755.74 210.252 737.916 229.015 720.842C283.801 670.559 337.462 626.654 414.763 603.014C459.606 589.317 510.264 579.936 568.616 577.684C717.027 572.056 819.47 632.096 932.796 630.595C947.994 630.407 963.191 628.718 978.201 626.092C1052.88 612.77 1127.74 568.491 1181.77 497.944C1246.88 412.574 1279.53 290.993 1271.83 173.728C1265.08 71.6596 1233.56 -25.9053 1216.3 -126.66C1186.65 -299.275 1201.48 -485.774 1261.52 -647.695C1294.72 -737.192 1341.63 -817.683 1400.36 -887.855C1506.93 -1015.44 1652.53 -1106.25 1815.38 -1161.04C1907.32 -1191.99 2003.95 -1208.69 2101.14 -1210.01" stroke="#D4E8F7" stroke-miterlimit="10"/>
<path d="M-1666 1171.14C-1537.29 1103.22 -1323.96 1060.63 -1124.7 1074.33C-1023.19 1081.27 -926.756 1099.09 -835.382 1108.85C-741.945 1118.98 -656.388 1122.17 -566.14 1105.85C-537.246 1100.6 -508.539 1093.28 -479.645 1082.77C-370.072 1042.99 -262.751 1008.66 -139.669 970.759C-9.64449 930.795 85.8567 861.748 170.476 789.513C190.364 772.626 210.064 756.678 229.39 741.481C285.49 697.014 340.089 658.926 417.203 638.662C462.233 626.842 512.516 618.024 569.929 615.209C716.277 607.704 818.345 655.173 926.98 645.417C941.427 644.103 956.061 641.477 970.321 637.912C1041.43 619.9 1111.6 572.993 1162.45 501.321C1223.43 414.826 1254.01 294.558 1247.63 178.418C1242 76.7253 1214.23 -21.0273 1200.16 -121.97C1175.96 -294.585 1194.53 -480.146 1257.2 -640.19C1291.91 -729.124 1340.13 -808.302 1399.61 -877.16C1507.68 -1002.49 1653.46 -1090.87 1816.51 -1145.46C1908.26 -1176.23 2004.51 -1193.31 2101.51 -1195.56" stroke="#D4E8F7" stroke-miterlimit="10"/>
<path d="M-1652.86 1197.22C-1522.47 1143.37 -1310.64 1107.73 -1112.5 1118.04C-1011.56 1123.3 -915.31 1136.99 -825.063 1141.69C-732.564 1146.75 -649.071 1143.94 -560.699 1123.3C-532.368 1116.73 -504.412 1108.1 -476.268 1096.66C-369.509 1052.94 -265.377 1014.29 -142.858 975.262C-15.0857 934.547 82.1041 869.254 168.974 804.523C189.426 789.325 209.877 775.254 229.577 761.932C286.991 723.094 342.528 691.198 419.641 674.311C464.859 664.367 514.955 656.299 571.243 652.734C715.526 643.353 817.219 678.064 921.351 660.052C935.235 657.613 949.119 653.86 962.816 649.357C1030.36 626.655 1096.03 576.934 1143.5 504.511C1200.54 416.89 1228.68 297.935 1223.99 183.109C1219.67 81.9791 1195.66 -16.3365 1184.78 -117.466C1166.01 -290.081 1188.53 -474.704 1253.45 -632.685C1289.66 -720.868 1339.19 -798.92 1399.42 -866.465C1508.8 -989.36 1654.96 -1075.48 1818.39 -1129.89C1909.95 -1160.47 2006.01 -1177.92 2102.64 -1180.92" stroke="#D4E8F7" stroke-miterlimit="10"/>
<path d="M-1639.54 1223.3C-1507.46 1183.71 -1296.94 1154.63 -1100.31 1161.76C-999.742 1165.33 -904.053 1174.89 -814.744 1174.71C-723.183 1174.52 -641.566 1165.89 -555.071 1140.75C-527.49 1132.68 -500.096 1122.92 -472.703 1110.54C-368.571 1063.07 -267.629 1020.1 -146.048 979.765C-20.3393 938.3 78.5391 876.946 167.473 819.533C188.487 806.024 209.501 793.828 229.765 782.383C288.492 749.174 344.967 723.469 421.893 709.96C467.486 701.892 517.019 694.575 572.368 690.259C714.588 679.002 815.906 701.142 915.347 674.686C928.668 671.122 941.802 666.431 954.748 660.99C1018.73 633.597 1079.89 581.249 1123.99 507.888C1176.9 419.141 1202.98 301.5 1199.6 187.8C1196.6 87.2326 1176.15 -11.4582 1168.45 -112.776C1155.32 -285.391 1181.4 -469.263 1248.76 -624.992C1286.66 -712.613 1337.13 -789.352 1398.29 -855.771C1509.18 -976.226 1655.53 -1060.09 1819.14 -1114.51C1910.51 -1144.9 2006.2 -1162.54 2102.45 -1166.67" stroke="#D4E8F7" stroke-miterlimit="10"/>
<path d="M-1626.22 1249.19C-1492.45 1223.86 -1283.24 1201.54 -1088.11 1205.48C-988.109 1207.54 -892.796 1212.79 -804.237 1207.54C-713.801 1202.29 -634.061 1187.47 -549.254 1158.2C-522.236 1148.81 -495.593 1137.93 -469.138 1124.42C-367.821 1073.01 -269.88 1025.73 -149.05 984.455C-25.5927 942.24 75.162 884.826 166.16 834.731C187.737 822.91 209.314 812.591 230.14 803.022C290.18 775.629 347.594 755.928 424.332 745.609C470.113 739.417 519.458 732.85 573.494 727.784C713.65 714.463 814.592 724.032 909.343 689.509C922.101 684.818 934.672 679.002 946.68 672.623C1007.1 640.539 1063.76 585.565 1104.29 511.265C1153.26 421.393 1177.08 305.065 1175.21 192.49C1173.52 92.486 1156.82 -6.58005 1152.32 -108.085C1144.62 -280.7 1174.64 -463.635 1244.25 -617.487C1283.65 -704.357 1335.44 -779.97 1397.36 -845.076C1509.74 -963.28 1656.47 -1044.71 1820.26 -1098.93C1911.45 -1129.14 2006.95 -1147.15 2102.83 -1152.22" stroke="#D4E8F7" stroke-miterlimit="10"/>
<path d="M-1613.09 1275.27C-1477.43 1264.02 -1269.73 1248.63 -1075.92 1249.19C-976.289 1249.57 -881.35 1250.88 -793.917 1240.38C-704.42 1229.87 -626.556 1209.23 -543.813 1175.64C-517.358 1164.95 -491.465 1152.75 -465.761 1138.31C-367.07 1083.15 -272.507 1031.55 -152.427 988.958C-31.0337 945.992 71.4095 892.706 164.472 849.74C186.611 839.609 208.751 831.165 230.14 823.473C291.494 801.708 349.845 788.199 426.396 781.257C472.364 777.129 521.522 770.938 574.432 765.121C712.524 749.924 813.092 746.734 903.152 703.956C915.347 698.139 927.167 691.385 938.612 684.067C995.463 647.293 1047.44 589.504 1084.77 514.267C1129.61 423.269 1151.38 308.255 1150.82 196.993C1150.44 97.3641 1137.31 -2.07717 1135.99 -103.582C1133.74 -276.197 1167.7 -458.194 1239.56 -609.982C1280.47 -696.29 1333.56 -770.589 1396.42 -834.382C1510.31 -950.146 1657.22 -1029.14 1821.2 -1083.36C1912.2 -1113.57 2007.32 -1131.77 2103.01 -1137.58" stroke="#D4E8F7" stroke-miterlimit="10"/>
<path d="M-1599.77 1301.35C-1462.42 1304.36 -1256.04 1295.54 -1063.72 1292.91C-964.656 1291.6 -870.093 1288.78 -783.598 1273.4C-695.039 1257.64 -619.051 1230.99 -538.184 1193.28C-512.48 1181.27 -487.15 1167.76 -462.196 1152.38C-366.32 1093.28 -274.759 1037.55 -155.429 993.649C-36.2873 949.932 68.22 900.587 162.971 865.126C185.861 856.683 208.376 850.116 230.328 844.487C292.995 828.351 352.472 821.221 428.835 817.469C475.178 815.217 523.773 809.776 575.746 803.21C711.961 786.136 811.965 770.187 897.335 719.153C908.967 712.211 920.037 704.331 930.732 696.076C984.018 654.611 1031.49 594.195 1065.45 518.02C1106.35 425.896 1125.86 312.195 1126.8 202.059C1127.55 102.993 1118.36 3.17651 1120.23 -98.5162C1123.42 -271.319 1161.14 -452.189 1235.44 -601.914C1277.84 -687.659 1332.06 -760.645 1395.85 -823.124C1511.06 -936.45 1658.34 -1013.19 1822.7 -1067.22C1913.7 -1097.24 2008.26 -1115.82 2103.76 -1122.57" stroke="#D4E8F7" stroke-miterlimit="10"/>
<path d="M-1586.45 1327.43C-1447.42 1344.51 -1242.34 1342.63 -1051.53 1336.63C-952.836 1333.63 -858.648 1326.68 -773.091 1306.23C-685.47 1285.41 -611.546 1252.76 -532.368 1210.73C-507.226 1197.41 -482.647 1182.59 -458.444 1166.26C-365.194 1103.22 -277.01 1043.18 -158.431 998.34C-41.3532 953.873 64.8425 908.655 161.657 880.323C185.11 873.569 208.188 868.878 230.703 865.126C294.683 854.431 355.099 851.617 431.274 853.118C477.805 854.056 526.212 848.052 577.059 840.735C711.211 821.597 810.84 793.078 891.518 733.788C902.588 725.72 912.908 716.902 923.039 707.708C972.76 661.553 1015.73 598.323 1046.31 521.397C1083.08 428.147 1100.53 315.76 1102.78 206.75C1104.85 108.246 1099.22 8.05473 1104.29 -94.0133C1112.92 -266.816 1154.57 -446.748 1231.31 -594.597C1275.4 -679.591 1330.75 -751.451 1395.29 -812.805C1511.99 -923.879 1659.66 -998.178 1824.01 -1052.21C1914.83 -1082.05 2009.2 -1100.81 2104.33 -1108.5" stroke="#D4E8F7" stroke-miterlimit="10"/>
<path d="M-1573.31 1353.33C-1432.59 1384.66 -1229.02 1388.97 -1039.33 1380.16C-941.203 1375.28 -847.39 1364.58 -762.771 1338.88C-676.276 1312.8 -604.041 1274.34 -526.927 1227.8C-502.348 1212.98 -478.519 1197.22 -455.066 1179.77C-364.631 1112.98 -279.449 1048.62 -161.621 1002.47C-46.7943 957.437 61.2779 915.972 160.156 894.958C184.172 889.892 207.813 886.89 230.891 885.202C295.997 880.136 357.538 885.765 433.526 888.391C480.432 890.08 528.276 885.952 577.997 877.884C710.085 856.87 809.339 815.593 885.515 748.235C895.834 739.042 905.778 729.098 914.972 718.966C961.127 668.12 999.59 602.263 1026.8 524.399C1059.63 430.023 1074.64 318.949 1078.39 211.253C1081.77 113.312 1079.52 12.5578 1088.15 -89.5102C1101.85 -262.313 1147.81 -441.307 1226.8 -587.092C1272.4 -671.523 1329.06 -742.07 1394.35 -802.11C1512.56 -910.745 1660.41 -982.793 1825.14 -1036.64C1915.76 -1066.29 2009.76 -1085.42 2104.51 -1094.05" stroke="#D4E8F7" stroke-miterlimit="10"/>
<path d="M-1559.99 1379.41C-1417.58 1425 -1215.32 1436.07 -1027.13 1424.06C-929.382 1417.49 -836.133 1402.67 -752.452 1372.09C-666.895 1340.94 -596.723 1296.29 -521.298 1245.63C-497.47 1229.49 -474.392 1212.42 -451.501 1194.03C-363.693 1123.3 -281.701 1054.81 -164.623 1007.35C-51.8601 961.565 57.9005 924.415 158.843 910.343C183.422 906.966 207.625 906.216 231.266 906.028C297.685 905.278 360.165 918.411 435.965 924.415C483.059 927.98 530.716 924.415 579.31 915.785C709.335 892.707 808.026 838.67 879.698 763.245C889.455 752.926 898.648 742.044 907.091 730.974C949.682 675.437 983.642 606.766 1007.47 528.151C1036.18 432.65 1049.12 322.889 1054.38 216.318C1059.07 118.753 1060.57 17.8112 1072.2 -84.4444C1091.53 -257.247 1141.25 -435.303 1222.49 -579.212C1269.77 -662.892 1327.37 -732.314 1393.6 -791.04C1513.12 -897.236 1661.34 -967.033 1826.27 -1020.69C1916.7 -1050.15 2010.33 -1069.66 2104.89 -1079.23" stroke="#D4E8F7" stroke-miterlimit="10"/>
<path d="M-1546.67 1405.49C-1402.57 1465.15 -1201.63 1483.16 -1014.94 1467.78C-917.75 1459.52 -824.688 1440.57 -741.945 1404.92C-657.326 1368.52 -588.843 1318.24 -515.481 1263.08C-492.216 1245.63 -469.889 1227.24 -447.936 1207.92C-362.942 1133.24 -283.952 1060.63 -167.812 1011.85C-57.3012 965.505 54.3357 932.296 157.342 925.353C182.484 923.665 207.25 924.415 231.454 926.479C299.186 932.483 362.604 950.87 438.216 959.876C485.498 965.505 532.967 962.503 580.436 953.122C708.397 927.98 806.524 861.373 873.694 777.693C882.888 766.247 891.331 754.239 899.211 742.231C938.049 682.004 967.507 610.706 988.145 530.966C1012.91 434.151 1023.61 325.891 1030.17 220.446C1036.18 123.444 1041.24 22.1265 1056.25 -80.3168C1081.02 -253.119 1134.68 -430.237 1218.17 -572.082C1266.96 -655.012 1325.87 -723.495 1392.85 -780.908C1513.87 -884.853 1662.28 -952.21 1827.58 -1005.68C1917.83 -1034.95 2011.26 -1054.65 2105.45 -1065.16" stroke="#D4E8F7" stroke-miterlimit="10"/>
<path d="M-1533.53 1431.57C-1387.75 1505.49 -1188.12 1530.07 -1002.74 1511.49C-905.929 1501.55 -813.43 1478.47 -731.626 1437.76C-648.133 1396.29 -581.526 1339.82 -509.853 1280.53C-487.15 1261.77 -465.573 1242.06 -444.372 1221.8C-362.38 1143 -286.204 1066.63 -170.814 1016.54C-62.3671 969.445 50.9583 939.05 155.841 940.739C181.733 941.114 207.062 943.178 231.829 947.306C300.875 958.751 365.23 983.705 440.843 995.9C488.312 1003.59 535.406 1000.97 581.937 991.022C707.833 964.004 805.586 884.639 868.065 792.89C876.696 780.319 884.389 767.373 891.518 754.427C926.792 689.509 951.746 615.585 969.008 534.906C989.646 436.966 998.465 330.019 1006.34 225.887C1013.66 129.448 1022.48 27.5678 1040.68 -74.8755C1070.89 -247.866 1128.68 -423.858 1214.23 -563.639C1264.7 -646.006 1324.74 -713.176 1392.48 -769.276C1515 -870.781 1663.78 -935.887 1829.08 -989.36C1919.14 -1018.44 2012.2 -1038.52 2106.2 -1049.96" stroke="#D4E8F7" stroke-miterlimit="10"/>
<path d="M-1520.21 1457.65C-1372.55 1545.64 -1174.42 1577.16 -990.548 1555.21C-894.296 1543.58 -801.985 1516.56 -721.119 1470.78C-638.564 1424.06 -573.833 1361.77 -504.224 1298.16C-482.084 1278.09 -461.258 1257.26 -440.807 1235.87C-361.441 1153.32 -288.455 1072.64 -174.004 1021.23C-67.6206 973.573 47.3934 948.619 154.34 955.936C180.795 957.813 206.687 961.94 232.016 967.944C302.563 984.831 367.482 1016.35 443.095 1031.74C490.751 1041.49 537.658 1039.43 582.875 1028.73C706.708 999.653 803.898 907.717 861.874 807.713C869.942 794.016 877.071 779.944 883.451 766.06C915.159 696.451 935.61 619.712 949.307 538.283C966.006 439.217 972.572 333.584 981.766 230.578C990.584 134.702 1002.78 32.446 1024.17 -70.3725C1059.82 -243.363 1121.73 -418.229 1209.36 -556.321C1261.51 -637.938 1322.49 -703.982 1391.35 -758.769C1515.37 -858.022 1664.35 -920.501 1830.02 -973.975C1919.89 -1003.06 2012.77 -1023.32 2106.2 -1035.7" stroke="#D4E8F7" stroke-miterlimit="10"/>
<path d="M-1506.89 1483.54C-1357.54 1585.79 -1160.91 1624.07 -978.352 1598.93C-882.476 1585.61 -790.727 1554.46 -710.799 1503.61C-629.182 1451.64 -566.328 1383.53 -498.595 1315.43C-477.206 1294.04 -456.942 1271.9 -437.242 1249.76C-360.691 1163.26 -290.707 1078.64 -177.006 1025.73C-72.6865 977.513 43.8286 956.687 153.026 970.947C180.044 974.511 206.5 980.328 232.392 988.396C304.252 1010.72 370.108 1048.81 445.534 1067.39C493.566 1079.21 539.909 1077.52 584.189 1066.26C705.77 1034.93 802.396 930.419 856.057 822.347C863.375 807.525 869.941 792.515 875.57 777.693C903.714 703.393 919.662 624.028 929.981 541.66C942.552 441.468 947.055 337.149 957.75 235.269C967.882 139.955 983.83 37.3243 1008.41 -65.6819C1049.5 -238.672 1115.36 -412.601 1205.42 -548.629C1259.26 -629.495 1321.37 -694.413 1390.98 -748.074C1516.31 -844.889 1665.66 -905.116 1831.52 -958.402C1921.39 -987.296 2013.7 -1007.93 2106.95 -1021.07" stroke="#D4E8F7" stroke-miterlimit="10"/>
<path d="M-1493.57 1509.62C-1262.98 1687.3 -929.195 1698.56 -700.292 1536.45C-619.801 1479.41 -558.823 1405.11 -492.779 1332.88C-390.898 1221.24 -321.852 1098.16 -180.008 1030.24C-52.6106 969.258 99.9286 958.188 232.58 1009.03C305.753 1036.99 372.548 1081.46 447.785 1103.03C647.794 1160.26 814.217 961.002 867.69 789.325C922.101 614.459 911.594 423.457 933.734 239.959C964.317 -14.2726 1053.63 -327.231 1201.1 -540.936C1356.08 -765.711 1574.66 -860.086 1832.65 -942.829C1922.33 -971.535 2014.27 -992.362 2107.33 -1006.62" stroke="#D4E8F7" stroke-miterlimit="10"/>
</g>
<mask id="mask2_134_262" style="mask-type:luminance" maskUnits="userSpaceOnUse" x="-168" y="-543" width="2252" height="1502">
<path d="M2083.5 -543H-168V958H2083.5V-543Z" fill="white"/>
</mask>
<g mask="url(#mask2_134_262)">
<path d="M-247.553 873.944C-231.417 783.134 -139.294 728.91 -50.7345 718.403C37.8245 707.896 128.26 728.535 217.944 728.535C458.104 728.347 684.568 563.05 763.183 330.395C788.324 255.907 799.394 176.354 823.973 101.492C848.552 26.8172 890.205 -46.1688 957.937 -81.63C1055.31 -132.852 1177.27 -93.4504 1275.59 -36.2248C1373.9 21.0008 1465.84 96.8014 1574.66 123.069C1717.63 157.592 1866.42 98.1147 1975.8 2.61359C2085.19 -92.8875 2162.49 -221.411 2237.92 -347.87" stroke="#FF4DC4" stroke-miterlimit="10"/>
<path d="M-252.994 865.126C-235.17 774.691 -143.421 720.655 -54.6745 709.772C-16.2113 705.082 22.4394 706.207 61.2778 709.397C112.312 713.525 163.346 720.842 214.005 721.968C317.386 724.219 418.328 697.764 506.887 646.355C575.37 606.579 636.161 554.231 684.756 491.377C719.467 446.722 747.235 396.439 766.56 341.84C775.191 317.448 782.321 292.307 788.888 266.977C802.209 215.568 813.091 163.408 830.353 113.688C849.866 57.2125 879.511 2.61362 923.415 -34.5361C937.111 -46.1689 951.934 -56.113 968.257 -63.9933C1036.55 -96.8277 1115.54 -85.5701 1191.16 -57.614C1223.8 -45.606 1255.89 -30.4084 1285.72 -14.2727C1319.12 3.92697 1351.76 23.44 1384.22 42.2025C1448.01 78.9771 1511.24 112.937 1579.54 125.133C1624.01 133.201 1667.72 130.949 1711.25 121.38C1799.25 101.68 1885.93 49.1446 1958.17 -18.0252C1977.87 -36.4124 1996.82 -55.9253 2015.2 -76.0012C2096.45 -165.686 2164.37 -269.255 2231.35 -367.195" stroke="#F552C5" stroke-miterlimit="10"/>
<path d="M-258.248 856.308C-238.735 766.435 -147.361 712.399 -58.4271 701.142C-19.964 696.263 18.8744 697.389 57.9004 700.766C108.934 705.269 159.781 713.337 210.627 715.589C313.821 720.279 414.388 697.952 503.885 648.794C573.119 610.706 634.847 560.798 685.318 500.383C721.342 457.041 750.049 407.508 770.313 353.285C779.319 329.081 786.824 303.939 793.578 278.61C807.462 227.388 818.907 175.041 836.92 125.696C857.371 69.5958 887.954 16.3102 933.359 -18.9633C947.431 -29.8455 962.441 -39.2267 978.764 -46.3565C1047.43 -76.1889 1125.3 -62.117 1200.72 -34.1609C1233.56 -21.9652 1265.83 -7.51814 1295.85 7.67949C1329.62 24.5657 1362.64 42.5777 1394.92 58.9011C1458.52 91.3602 1519.87 120.067 1584.23 127.197C1625.88 131.887 1665.85 126.446 1705.81 114.063C1786.87 88.7335 1869.23 31.3202 1940.15 -38.6639C1959.67 -57.9893 1978.43 -78.0652 1996.82 -98.7039C2078.81 -191.015 2151.8 -293.834 2224.03 -386.333" stroke="#EB57C7" stroke-miterlimit="10"/>
<path d="M-263.689 847.302C-242.487 757.992 -151.677 703.768 -62.5549 692.323C-24.0918 687.445 14.9343 688.383 53.9603 691.948C104.994 696.639 155.841 705.457 206.499 708.834C309.506 715.776 409.885 697.952 500.32 650.858C570.117 614.459 633.159 567.177 685.318 509.014C722.843 467.173 752.488 418.391 773.502 364.542C782.883 340.526 790.576 315.572 797.893 290.243C812.341 239.021 824.536 186.674 843.111 137.704C864.313 81.979 896.021 30.0069 942.74 -3.57802C957.187 -13.8974 972.197 -22.5282 988.708 -28.9074C1057.57 -55.7378 1134.49 -38.8516 1209.92 -10.8954C1242.75 1.30018 1275.21 15.3721 1305.79 29.4439C1339.94 45.2044 1373.15 61.1526 1405.42 75.5998C1468.84 103.744 1528.69 127.197 1588.92 129.073C1627.95 130.386 1663.78 121.755 1700.18 106.745C1774.29 76.1626 1852.35 13.6835 1921.96 -59.4903C1941.09 -79.5661 1959.86 -100.58 1978.43 -121.782C2061.17 -216.908 2139.41 -318.788 2216.71 -405.846" stroke="#E15DC8" stroke-miterlimit="10"/>
<path d="M-269.13 838.483C-246.24 749.549 -155.804 695.513 -66.4949 683.692C-27.8441 678.627 11.1819 679.564 50.2079 683.505C101.242 688.57 152.088 697.952 202.559 702.642C305.378 711.836 405.57 698.327 496.755 653.485C567.302 618.774 631.47 574.119 685.319 518.207C724.345 477.868 754.928 429.836 776.692 376.363C786.449 352.347 794.516 327.58 802.021 302.251C817.031 251.217 829.79 198.682 849.303 150.087C871.443 94.9251 903.902 43.891 952.309 12.37C966.944 2.80115 982.329 -5.26677 998.652 -10.8955C1067.89 -34.7239 1143.69 -15.0232 1218.92 13.1206C1251.76 25.5038 1284.59 38.8251 1315.36 51.9589C1349.7 66.5936 1383.47 80.8532 1415.56 92.8612C1478.78 116.502 1537.14 134.889 1593.24 131.699C1629.64 129.636 1661.34 117.815 1694.37 99.9909C1761.54 63.7793 1835.08 -3.39048 1903.76 -79.5662C1922.52 -100.58 1941.28 -122.157 1960.04 -143.922C2043.54 -241.674 2126.84 -342.616 2209.4 -424.421" stroke="#D762CA" stroke-miterlimit="10"/>
<path d="M-274.383 829.665C-249.992 741.293 -159.744 687.257 -70.2473 675.062C-31.5966 669.808 7.61705 670.746 46.6431 674.874C97.6771 680.128 148.524 690.447 198.807 696.076C301.438 707.708 401.442 698.327 493.566 655.736C564.863 622.714 629.969 580.499 685.694 527.025C726.221 487.999 757.554 440.906 780.257 387.62C790.389 363.792 798.832 339.025 806.524 313.696C822.285 262.662 835.606 210.127 855.682 161.907C878.572 107.121 912.157 57.4 962.065 27.5677C977.075 18.5616 992.461 11.2443 1008.97 6.36605C1078.39 -14.4603 1153.26 7.86709 1228.49 36.1985C1261.51 48.5817 1294.54 61.5278 1325.68 73.5358C1360.39 87.0448 1394.35 99.4281 1426.44 109.372C1489.48 128.698 1546.33 141.831 1598.3 133.388C1632.26 127.947 1659.66 112.937 1689.3 92.2983C1749.53 50.6455 1818.76 -21.59 1886.12 -100.768C1904.69 -122.72 1923.27 -145.047 1942.03 -167.375C2026.27 -267.942 2114.65 -367.946 2202.64 -444.309" stroke="#CD67CB" stroke-miterlimit="10"/>
<path d="M-279.825 820.659C-253.745 732.85 -163.872 678.626 -74.1875 666.431C-35.5367 661.177 3.86447 661.928 42.8905 666.243C94.1121 671.872 144.771 682.754 195.054 689.509C297.498 703.393 397.314 698.515 490.189 657.988C562.237 626.654 628.468 587.065 685.882 535.844C727.91 498.319 760.181 451.975 783.634 399.065C793.953 375.424 802.772 350.846 811.027 325.516C827.351 274.482 841.235 221.947 862.061 174.103C885.702 119.692 920.225 71.0967 971.822 43.3282C987.207 35.0727 1002.78 28.3182 1019.29 24.1904C1089.09 6.36605 1162.82 31.5078 1238.06 59.8392C1271.08 72.2224 1304.48 84.6058 1335.81 95.6756C1370.9 108.059 1405.05 118.566 1437.32 126.258C1499.99 141.268 1555.9 149.149 1603.37 135.64C1634.89 126.634 1658.15 108.434 1684.23 85.3563C1737.52 38.2624 1802.44 -38.8515 1868.67 -121.031C1886.87 -143.734 1905.44 -166.812 1924.39 -189.702C2009.39 -292.896 2103.01 -392.149 2196.08 -463.259" stroke="#C36CCD" stroke-miterlimit="10"/>
<path d="M-285.078 811.84C-257.31 724.595 -167.813 670.371 -78.1278 657.8C-39.2894 652.359 0.111944 653.11 39.3256 657.613C90.5472 663.429 141.018 675.062 191.302 683.13C293.557 699.453 393.186 698.703 486.811 660.427C559.61 630.782 626.967 593.82 685.881 544.85C729.41 508.826 762.62 463.233 786.824 410.698C797.518 387.245 806.712 362.666 815.155 337.337C832.041 286.49 846.488 233.768 868.065 186.299C892.644 132.263 927.918 84.981 981.203 58.9011C996.776 51.2085 1012.54 45.2044 1029.24 41.6396C1099.22 26.8172 1172.02 54.7734 1247.07 83.1048C1280.28 95.6756 1313.86 107.496 1345.38 117.44C1380.84 128.698 1415.37 137.328 1447.45 142.957C1509.93 153.652 1564.53 155.903 1607.5 137.704C1636.76 125.32 1655.53 103.931 1678.23 78.0389C1724.57 25.3162 1784.99 -56.4883 1850.09 -141.858C1868.11 -165.498 1886.49 -189.327 1905.63 -212.78C1991.38 -318.788 2090.07 -416.916 2188.38 -482.772" stroke="#B972CE" stroke-miterlimit="10"/>
<path d="M-290.519 803.022C-261.062 716.152 -171.94 662.116 -82.0677 649.169C-43.2293 643.541 -3.64043 644.291 35.5732 648.982C86.7948 655.173 137.266 667.369 187.362 676.563C289.43 695.138 388.871 698.702 483.434 662.678C556.983 634.722 625.466 600.387 686.069 553.668C731.099 518.958 765.059 474.303 790.201 421.955C801.271 398.69 810.652 374.111 819.47 348.782C836.92 297.935 852.117 245.213 874.257 198.119C899.586 144.458 935.986 98.3023 990.585 74.2863C1006.53 67.3442 1022.48 61.9031 1039.18 59.0888C1109.54 47.2684 1181.02 78.0388 1256.26 106.37C1289.47 118.941 1323.24 130.199 1355.33 139.205C1391.16 149.336 1425.87 156.279 1457.96 159.468C1520.25 165.847 1573.72 162.47 1612.19 139.392C1639.2 123.256 1653.46 98.8652 1672.79 70.5338C1712.19 12.1825 1768.29 -74.3127 1832.27 -162.684C1849.91 -187.075 1868.29 -211.654 1887.43 -235.858C1973.93 -344.493 2077.68 -441.87 2181.25 -502.285" stroke="#AF77CF" stroke-miterlimit="10"/>
<path d="M-295.773 794.016C-264.627 707.708 -175.881 653.485 -85.8205 640.351C-46.9821 634.722 -7.39326 635.285 32.008 640.163C83.2296 646.542 133.701 659.676 183.609 669.996C285.489 691.01 384.556 698.89 480.057 664.93C554.356 638.662 623.965 606.954 686.256 562.487C732.787 529.277 767.686 485.373 793.578 433.401C805.023 410.323 814.78 385.931 823.973 360.602C842.173 309.943 857.746 257.033 880.824 210.314C907.091 157.029 944.241 111.999 1000.53 90.0468C1016.66 83.6676 1032.8 79.1646 1049.69 76.9131C1120.23 68.0947 1190.78 101.68 1266.02 130.011C1299.41 142.582 1333.38 153.464 1365.65 161.344C1401.86 170.163 1436.76 175.416 1468.84 176.542C1530.76 178.606 1583.29 169.225 1617.25 141.831C1642.02 121.943 1651.77 94.7374 1667.72 63.5916C1700.18 -0.200874 1751.97 -91.7618 1814.63 -182.948C1831.89 -208.277 1850.28 -233.606 1869.61 -258.185C1956.85 -369.447 2065.68 -466.074 2174.5 -521.048" stroke="#A57CD1" stroke-miterlimit="10"/>
<path d="M-301.214 785.198C-268.567 699.453 -180.008 645.229 -89.7603 631.72C-50.9219 625.904 -11.1454 626.467 28.2559 631.72C79.4775 638.475 129.949 652.171 179.857 663.617C281.55 686.882 380.428 699.078 476.867 667.369C551.917 642.79 622.84 613.708 686.632 571.493C734.664 539.784 770.501 496.63 797.143 445.033C808.964 422.143 819.095 397.752 828.477 372.423C847.239 321.764 863.563 268.854 887.203 222.51C914.221 169.788 952.309 125.696 1010.29 105.62C1026.8 99.991 1043.12 96.0509 1060.01 94.5499C1130.93 88.7335 1200.35 124.945 1275.4 153.464C1308.8 166.223 1343.13 176.354 1375.59 183.296C1411.99 190.989 1447.45 194.366 1479.35 193.241C1541.08 190.989 1592.49 175.416 1621.94 143.708C1644.27 119.692 1649.9 89.8592 1662.28 56.0867C1687.8 -13.3345 1735.27 -109.586 1796.62 -203.962C1813.7 -230.229 1831.9 -256.121 1851.41 -281.451C1939.4 -395.527 2053.48 -491.028 2167.56 -540.748" stroke="#9B81D2" stroke-miterlimit="10"/>
<path d="M-306.655 776.379C-272.32 691.01 -184.136 636.974 -93.8881 623.09C-54.8621 617.086 -15.0856 617.648 24.5032 623.09C75.7249 630.032 126.008 644.479 175.917 657.05C277.422 682.754 376.112 699.078 473.302 669.621C549.103 646.73 621.151 620.275 686.632 580.311C736.165 550.103 772.939 507.7 800.333 456.291C812.528 433.588 822.848 409.197 832.604 383.868C851.929 333.209 868.816 280.486 893.207 234.33C920.976 181.983 960.002 139.017 1019.67 121.005C1036.36 115.939 1053.06 112.749 1069.76 111.999C1140.87 109.185 1209.36 148.211 1284.41 176.73C1317.99 189.488 1352.51 199.245 1385.35 205.061C1422.12 211.628 1457.77 213.316 1489.67 209.939C1551.02 203.372 1601.12 181.42 1626.45 145.771C1646.33 117.815 1647.65 85.3562 1656.65 48.957C1675.23 -26.093 1718.19 -127.035 1778.61 -224.413C1795.31 -251.431 1813.51 -278.261 1833.02 -303.966C1921.77 -420.668 2040.91 -515.419 2160.24 -559.699" stroke="#9187D4" stroke-miterlimit="10"/>
<path d="M-311.908 767.373C-275.884 682.567 -188.076 628.343 -97.6405 614.271C-58.6145 608.267 -18.6505 608.643 20.9384 614.271C72.3476 621.589 122.443 636.786 172.164 650.483C273.482 678.439 371.985 699.078 470.113 671.872C546.664 650.67 619.837 626.842 687.007 589.13C738.041 560.423 775.566 518.77 803.898 467.736C816.281 445.221 827.163 421.017 837.107 395.688C856.995 345.217 874.445 292.307 899.586 246.714C928.293 194.742 968.069 152.714 1029.42 136.765C1046.5 132.262 1063.2 129.823 1080.08 129.823C1151.57 130.011 1218.92 171.851 1293.97 200.558C1327.56 213.317 1362.27 222.51 1395.48 227.388C1432.63 232.829 1468.47 232.642 1500.36 227.013C1561.53 216.319 1609.93 187.8 1631.14 148.023C1648.4 115.939 1645.58 80.8533 1651.02 41.8273C1662.47 -38.8515 1701.31 -144.672 1760.41 -245.051C1776.73 -273.008 1794.75 -300.401 1814.63 -326.856C1904.13 -446.373 2028.34 -540.186 2152.92 -579.212" stroke="#878CD5" stroke-miterlimit="10"/>
<path d="M-317.35 758.555C-279.637 674.311 -192.204 620.088 -101.581 605.828C-62.5549 599.636 -22.4032 600.012 17.1857 605.828C68.5949 613.333 118.691 629.281 168.224 644.103C269.354 674.311 367.669 699.453 466.548 674.311C543.661 654.798 618.149 633.597 687.007 598.135C739.73 570.93 778.005 530.028 807.087 479.369C819.846 457.041 831.103 432.838 841.423 407.508C862.061 357.037 880.073 304.127 905.966 258.909C935.423 207.313 976.137 166.41 1038.99 152.526C1056.25 148.774 1073.33 146.897 1090.21 147.648C1161.89 150.837 1228.31 195.492 1303.17 224.199C1336.75 237.145 1371.84 245.588 1405.24 249.528C1442.76 253.844 1478.78 251.967 1510.68 244.087C1571.47 229.077 1618.19 194.179 1635.64 150.462C1650.09 114.25 1643.33 76.7255 1645.4 34.8851C1649.9 -51.2348 1684.42 -161.934 1742.4 -265.315C1758.53 -294.209 1776.36 -322.353 1796.25 -349.183C1886.49 -471.327 2015.77 -564.202 2145.6 -597.974" stroke="#7D91D7" stroke-miterlimit="10"/>
<path d="M-322.603 749.736C-283.202 665.868 -196.144 611.832 -105.333 597.197C-66.1197 590.818 -25.9679 591.193 13.621 597.197C65.0303 605.078 115.126 621.589 164.659 637.724C265.601 670.371 363.729 699.641 463.546 676.75C541.41 658.926 617.211 640.539 687.57 607.141C741.794 581.437 781.007 541.285 810.84 490.814C823.973 468.487 835.419 444.471 846.113 419.141C867.315 368.858 885.89 315.76 912.532 270.917C942.928 219.696 984.393 179.732 1048.94 167.911C1066.57 164.722 1083.65 163.596 1100.72 165.097C1172.77 171.101 1238.06 218.758 1312.92 247.464C1346.7 260.41 1381.97 268.478 1415.74 271.293C1453.64 274.482 1490.04 270.73 1521.75 260.598C1582.35 241.273 1627.2 200.183 1640.89 152.338C1652.34 111.999 1641.83 71.8472 1640.52 27.5677C1637.89 -64.1809 1668.29 -179.57 1724.95 -286.141C1740.71 -315.786 1758.53 -344.68 1778.61 -372.261C1869.61 -497.219 2004.13 -589.156 2139.22 -617.487" stroke="#7396D8" stroke-miterlimit="10"/>
<path d="M-328.044 740.73C-287.142 657.425 -200.272 603.201 -109.461 588.379C-70.2474 582 -29.908 582.187 9.86851 588.567C61.2778 596.634 111.374 614.084 160.719 631.158C261.474 666.056 359.226 699.641 459.981 679.002C538.596 662.866 615.522 647.105 687.57 615.96C743.295 591.756 783.259 552.355 814.029 502.259C827.538 480.119 839.359 456.291 850.241 430.961C872.005 380.678 891.331 327.58 918.536 283.113C949.682 232.267 991.898 193.428 1058.32 183.672C1076.33 181.045 1093.59 180.67 1110.66 182.921C1182.9 191.927 1247.26 242.211 1321.93 271.105C1355.7 284.239 1391.35 291.556 1425.31 293.432C1463.4 295.309 1500.17 290.055 1531.88 277.672C1592.3 254.219 1635.08 206.937 1645.21 154.59C1653.65 110.31 1639.39 67.5318 1634.7 20.438C1625.13 -76.9394 1651.02 -197.019 1706.75 -306.592C1722.13 -337.175 1739.96 -366.82 1760.22 -394.776C1851.97 -522.361 1991.56 -613.547 2131.91 -636.437" stroke="#699CD9" stroke-miterlimit="10"/>
<path d="M-333.298 731.912C-290.707 649.169 -204.212 594.946 -113.214 579.748C-74 573.181 -33.473 573.369 6.30353 579.936C57.7128 588.379 107.621 606.391 156.966 624.591C257.533 661.928 355.099 699.828 456.604 681.253C535.969 666.806 614.209 653.672 687.758 624.778C744.983 602.263 785.885 563.425 817.406 513.704C831.291 491.752 843.299 467.924 854.744 442.594C877.071 392.498 896.959 339.213 924.916 295.121C956.812 244.837 999.965 206.749 1068.07 199.244C1086.27 197.181 1103.72 197.556 1120.98 200.558C1193.59 212.566 1256.82 265.664 1331.5 294.558C1365.46 307.692 1401.3 314.634 1435.63 315.384C1474.09 316.135 1511.06 309.005 1542.76 294.37C1602.8 266.602 1643.71 213.129 1650.27 156.654C1655.71 108.434 1637.52 63.0288 1629.63 13.3082C1612.75 -89.5103 1634.7 -214.656 1689.11 -327.044C1704.31 -358.377 1721.95 -388.772 1742.21 -417.479C1834.71 -547.878 1979.37 -638.126 2124.96 -655.575" stroke="#5FA1DB" stroke-miterlimit="10"/>
<path d="M-338.739 723.094C-294.459 640.914 -208.339 586.69 -117.154 571.117C-77.7524 564.363 -37.2255 564.551 2.55104 571.305C54.1479 580.123 103.869 598.698 153.214 618.211C253.593 657.8 350.971 700.016 453.414 683.693C533.53 670.934 612.895 660.614 688.133 633.784C747.047 612.77 788.7 574.682 820.971 525.337C835.231 503.572 847.614 479.744 859.247 454.415C882.137 404.319 902.588 351.033 931.295 307.317C964.129 257.408 1008.22 220.259 1077.64 214.818C1096.22 213.317 1113.85 214.442 1131.12 218.007C1203.91 233.017 1266.21 288.929 1340.88 317.824C1374.84 330.957 1410.86 337.337 1445.58 337.149C1484.41 336.774 1521.75 327.955 1553.27 311.069C1613.12 278.985 1651.96 219.696 1654.78 158.53C1657.22 106.558 1635.26 58.1506 1624.01 5.80321C1600.18 -102.456 1617.81 -232.481 1670.91 -348.058C1685.73 -380.329 1703.37 -411.475 1723.82 -440.557C1817.07 -573.583 1966.8 -662.892 2117.65 -675.276" stroke="#55A6DC" stroke-miterlimit="10"/>
<path d="M-344.18 714.088C-298.212 632.283 -212.655 578.06 -121.094 562.299C-81.6925 555.545 -41.1656 555.544 -1.20145 562.487C50.3954 571.493 100.116 591.006 149.274 611.457C249.466 653.485 346.655 699.828 449.849 685.756C530.715 674.687 611.206 667.182 688.133 642.415C748.548 622.902 790.951 585.564 824.161 536.407C838.796 514.83 851.554 491.189 863.375 465.86C887.015 415.764 908.029 362.478 937.486 319.137C971.071 269.604 1016.1 233.392 1087.21 230.203C1105.97 229.452 1123.8 231.329 1141.25 235.456C1214.42 253.468 1275.4 312.195 1350.07 341.089C1384.22 354.41 1420.43 360.227 1455.33 358.913C1494.55 357.412 1532.07 346.718 1563.59 327.58C1623.26 291.369 1660.03 225.887 1659.28 160.406C1658.72 104.682 1633.2 53.46 1618.38 -1.7018C1587.61 -115.59 1600.74 -250.305 1652.9 -368.884C1667.35 -402.094 1684.98 -433.802 1705.62 -463.635C1799.62 -599.475 1954.6 -687.847 2110.52 -694.789" stroke="#4BABDE" stroke-miterlimit="10"/>
<path d="M-349.433 705.269C-301.964 624.028 -216.595 569.804 -125.034 553.668C-85.6326 546.726 -44.9179 546.726 -4.76617 553.856C46.8307 563.237 96.5513 583.313 145.521 605.078C245.526 649.357 342.528 700.203 446.66 688.195C528.276 678.814 610.081 673.936 688.321 651.421C750.237 633.597 793.578 596.822 827.726 548.04C842.548 526.65 855.682 503.01 868.065 477.68C892.269 427.772 913.846 374.299 944.053 331.333C978.576 282.175 1024.36 246.901 1097.16 245.776C1116.29 245.588 1134.31 248.215 1151.57 253.093C1224.93 274.107 1284.97 335.648 1359.64 364.73C1393.79 378.051 1430.38 383.305 1465.65 381.053C1505.24 378.427 1543.14 366.043 1574.47 344.654C1633.95 304.315 1668.66 232.829 1664.35 162.658C1660.59 103.181 1631.51 49.1446 1613.31 -8.64393C1575.6 -128.161 1584.42 -267.566 1635.26 -389.335C1649.52 -423.295 1666.97 -455.942 1687.61 -486.15C1782.36 -624.617 1942.41 -712.238 2103.76 -713.739" stroke="#41B1DF" stroke-miterlimit="10"/>
<path d="M-354.875 696.451C-305.717 615.772 -220.723 561.549 -128.974 545.225C-89.3853 538.095 -48.6707 538.095 -8.51893 545.413C43.0779 554.982 92.7986 575.808 141.581 598.698C241.398 645.417 338.212 700.391 443.094 690.635C525.462 682.942 608.392 681.066 688.32 660.427C751.738 644.291 796.017 608.08 830.915 559.672C846.113 538.471 859.622 514.83 872.193 489.501C896.959 439.592 919.287 386.119 950.057 343.528C985.331 294.746 1032.05 260.223 1106.54 261.536C1125.86 261.911 1144.06 265.289 1161.51 270.917C1235.25 294.933 1294.16 359.101 1368.84 388.371C1403.17 401.692 1439.95 406.57 1475.41 403.193C1515.18 399.441 1553.46 385.181 1584.79 361.54C1644.08 316.886 1676.73 239.584 1668.85 164.909C1662.09 101.68 1629.26 44.6416 1607.68 -15.7737C1562.84 -140.732 1567.53 -285.203 1617.25 -409.786C1631.14 -444.684 1648.58 -477.894 1669.41 -508.852C1764.91 -650.134 1930.02 -736.629 2096.63 -732.877" stroke="#37B6E1" stroke-miterlimit="10"/>
<path d="M-360.128 687.445C-287.33 572.619 -145.297 511.077 -12.0836 536.594C144.959 566.614 282.113 704.144 439.905 692.698C523.023 686.694 607.079 687.445 688.696 669.058C782.133 648.044 834.293 584.064 876.696 500.946C931.107 394.187 973.698 270.354 1116.29 276.921C1219.3 281.612 1286.09 375.424 1378.22 411.636C1451.02 440.155 1536.39 427.021 1595.49 378.051C1654.59 329.081 1685.17 246.151 1673.73 166.785C1663.97 99.8033 1627.38 39.951 1602.43 -23.2787C1536.2 -190.265 1555.15 -388.022 1651.4 -531.93C1747.65 -675.838 1918.02 -761.583 2089.69 -752.39" stroke="#2DBBE2" stroke-miterlimit="10"/>
<path d="M-351.873 703.956C-277.948 598.135 -136.854 540.91 -4.5788 564.363C61.6528 575.996 124.507 605.64 186.611 634.159C250.216 663.616 312.695 692.136 377.989 700.579C399.003 703.205 420.392 703.956 441.969 701.704C523.21 693.261 605.39 691.197 686.632 672.06C778.756 650.483 831.853 589.129 875.758 510.702C885.889 492.69 895.646 474.303 905.59 456.103C934.86 402.63 966.005 351.971 1015.16 324.015C1042.74 308.255 1075.77 299.436 1117.04 300.937C1218.74 304.315 1285.34 390.247 1374.47 421.205C1386.29 425.333 1398.48 428.335 1410.68 430.211C1471.65 439.592 1536.01 421.955 1583.1 380.49C1639.58 330.77 1668.85 248.59 1658.15 169.975C1649.15 103.368 1615 43.1406 1591.92 -20.089C1552.15 -129.099 1547.64 -250.68 1576.35 -361.004C1591.73 -419.918 1616.69 -475.643 1650.46 -524.8C1712.38 -614.485 1803.38 -680.904 1905.63 -715.99C1964.36 -736.066 2026.84 -745.635 2089.5 -743.008" stroke="#33B4E3" stroke-miterlimit="10"/>
<path d="M-343.429 720.467C-268.567 623.652 -128.223 570.742 3.30168 592.131C69.3457 602.826 131.825 629.656 193.178 655.173C256.033 681.253 317.386 706.207 381.554 711.836C402.193 713.712 423.019 713.525 444.22 710.71C523.773 699.828 603.889 695.138 684.568 675.249C775.191 653.297 829.415 594.195 874.632 520.459C885.139 503.385 895.271 486.311 905.59 469.237C935.798 419.329 967.319 372.61 1016.48 346.718C1044.25 332.271 1077.08 323.828 1117.61 324.766C1217.99 327.017 1284.41 404.882 1370.53 430.586C1381.97 433.963 1393.6 436.215 1405.42 437.528C1464.15 443.908 1525.69 424.582 1570.53 382.554C1624.38 332.083 1652.34 250.841 1642.58 172.977C1634.51 106.745 1602.43 46.3301 1581.6 -17.0871C1545.2 -126.097 1543.14 -247.115 1573.35 -356.125C1589.67 -414.664 1615.38 -469.639 1649.9 -518.046C1712.75 -606.23 1803.94 -671.148 1906.38 -706.234C1965.11 -726.31 2027.21 -736.066 2089.69 -733.815" stroke="#38ADE5" stroke-miterlimit="10"/>
<path d="M-334.986 736.978C-258.998 649.169 -119.593 600.387 10.9941 619.712C76.6629 629.281 138.954 653.672 199.745 675.812C262.036 698.702 322.264 719.716 385.118 722.718C405.382 723.656 425.833 722.718 446.472 719.341C524.336 706.02 602.388 698.327 682.692 677.876C772.001 655.173 827.163 598.886 873.882 529.84C884.576 513.892 895.271 497.944 905.778 482.183C936.924 436.027 968.82 392.874 1017.98 369.233C1045.75 355.912 1078.58 347.844 1118.36 348.406C1217.42 349.345 1283.47 419.516 1366.96 439.78C1378.03 442.407 1389.29 444.095 1400.73 444.846C1457.21 448.223 1515.93 427.209 1558.71 384.618C1610.12 333.584 1636.58 253.093 1627.76 175.979C1620.44 109.935 1590.8 49.3323 1571.85 -14.085C1539.01 -123.095 1539.01 -243.55 1570.91 -351.247C1588.17 -409.411 1614.63 -463.635 1649.71 -511.104C1713.5 -597.786 1804.88 -661.204 1907.32 -696.29C1965.86 -716.178 2027.96 -726.122 2090.25 -724.621" stroke="#3EA6E6" stroke-miterlimit="10"/>
<path d="M-326.543 753.489C-249.429 674.499 -110.962 630.219 18.8745 647.481C84.3556 655.924 146.272 677.689 206.499 696.826C268.228 716.339 327.142 733.601 388.871 733.976C408.759 734.164 428.647 732.475 448.911 728.347C525.087 712.774 601.075 702.267 681.003 681.066C768.812 657.8 825.099 604.139 873.131 539.596C884.201 524.774 895.271 509.952 906.153 495.317C938.237 452.726 970.509 413.325 1019.67 391.935C1047.62 379.74 1080.27 372.61 1119.3 372.423C1217.05 372.047 1282.72 434.339 1363.4 449.349C1374.09 451.413 1384.97 452.351 1395.85 452.351C1450.08 452.726 1505.8 430.023 1546.52 386.87C1595.3 335.085 1620.25 255.532 1612.56 178.981C1605.99 113.312 1578.79 52.3343 1561.9 -11.083C1532.45 -120.281 1534.88 -239.986 1568.47 -346.557C1586.67 -404.345 1614.06 -457.631 1649.52 -504.537C1714.25 -589.719 1805.81 -651.822 1908.45 -686.533C1966.98 -706.421 2028.71 -716.553 2090.82 -715.427" stroke="#43A0E8" stroke-miterlimit="10"/>
<path d="M-318.288 769.812C-240.048 699.828 -102.519 659.864 26.3792 674.874C91.4851 682.379 153.401 701.517 212.879 717.277C273.857 733.601 331.645 747.11 392.248 744.671C411.761 743.92 431.274 741.481 450.975 736.79C525.462 718.778 599.386 705.457 678.751 683.505C765.246 659.676 822.472 608.455 872.005 548.79C883.45 534.906 894.895 521.397 906.153 508.075C938.987 469.049 972.009 433.588 1021.17 414.263C1049.31 403.193 1081.58 396.251 1120.05 395.876C1216.48 394.75 1281.97 448.598 1359.64 458.355C1369.96 459.668 1380.47 459.856 1390.79 459.48C1442.57 457.041 1495.67 432.462 1534.13 388.746C1580.48 336.211 1603.93 257.408 1597.18 181.795C1591.36 116.502 1566.59 55.3362 1551.58 -8.26868C1525.69 -117.466 1530.38 -236.608 1565.47 -341.866C1584.61 -399.279 1612.75 -451.814 1648.77 -497.782C1714.44 -581.463 1806.19 -642.066 1909.01 -676.777C1967.36 -696.477 2028.9 -706.797 2090.82 -706.421" stroke="#4999E9" stroke-miterlimit="10"/>
<path d="M-309.845 786.323C-230.479 725.345 -93.8882 689.509 34.072 702.643C98.8027 709.022 160.531 725.533 219.446 738.291C279.861 751.238 336.336 760.994 395.813 755.928C414.951 754.24 433.901 751.238 453.226 745.796C526.025 725.345 597.885 709.21 676.875 686.695C761.869 662.303 820.221 613.708 871.067 558.547C882.888 545.788 894.708 533.405 906.153 521.209C939.926 485.748 973.323 454.039 1022.48 436.966C1050.62 427.021 1082.9 420.642 1120.61 419.704C1215.92 417.265 1281.03 463.233 1355.7 467.736C1365.65 468.299 1375.59 467.924 1385.72 466.798C1435.26 461.357 1485.54 435.089 1521.94 390.81C1565.66 337.524 1587.79 259.66 1581.98 184.798C1576.91 119.879 1554.4 58.3382 1541.64 -5.26669C1519.12 -114.464 1526.44 -233.043 1562.84 -336.988C1582.92 -394.026 1611.81 -445.81 1648.4 -491.028C1714.82 -573.208 1806.75 -632.309 1909.76 -667.02C1968.11 -686.721 2029.46 -697.228 2091.19 -697.415" stroke="#4F92EA" stroke-miterlimit="10"/>
<path d="M-301.402 802.834C-221.098 750.862 -85.0701 719.341 41.952 730.411C106.495 735.664 167.848 749.736 226.2 759.118C286.052 768.874 341.402 774.691 399.565 766.998C418.328 764.559 436.903 760.619 455.665 754.615C526.775 731.912 596.759 712.774 674.999 689.509C758.68 664.742 817.969 618.399 870.317 568.115C882.512 556.295 894.708 545.225 906.528 534.343C941.239 502.634 975.199 474.678 1024.17 459.668C1052.5 451.037 1084.58 445.033 1121.55 443.532C1215.55 439.968 1280.28 478.055 1352.14 477.117C1361.71 476.93 1371.28 475.992 1380.84 474.303C1428.13 465.86 1475.41 437.904 1509.74 393.061C1550.83 339.025 1571.66 262.099 1566.78 187.8C1562.47 123.069 1542.58 61.3402 1531.51 -2.45231C1512.74 -111.65 1522.13 -229.666 1560.21 -332.297C1581.23 -388.96 1610.87 -439.806 1648.02 -484.273C1715.38 -564.952 1807.5 -622.553 1910.7 -657.076C1968.86 -676.589 2030.03 -687.284 2091.57 -688.034" stroke="#548BEC" stroke-miterlimit="10"/>
<path d="M-292.958 819.345C-211.529 776.379 -76.439 749.361 49.645 757.992C113.813 762.495 174.978 773.565 232.767 779.944C291.869 786.323 346.093 788.387 403.131 778.068C421.518 774.691 439.53 770 457.917 763.433C527.151 738.291 595.258 716.527 673.123 692.511C755.49 667.181 815.906 623.465 869.566 577.684C882.137 566.99 894.708 557.045 906.904 547.289C942.365 519.145 976.888 495.129 1025.86 482.183C1054.38 474.678 1086.27 469.237 1122.48 467.361C1215.17 462.67 1279.71 492.69 1348.57 486.499C1357.77 485.748 1366.96 484.059 1375.97 481.808C1421 470.363 1465.46 440.718 1497.55 395.313C1536.2 340.526 1555.52 264.351 1551.4 190.989C1547.83 126.634 1530.38 64.7174 1521.38 0.737313C1505.99 -108.46 1517.81 -225.914 1557.4 -327.231C1579.35 -383.519 1609.93 -433.615 1647.46 -477.144C1715.75 -556.321 1808.07 -612.421 1911.26 -646.944C1969.24 -666.457 2030.4 -677.152 2091.57 -678.653" stroke="#5A84ED" stroke-miterlimit="10"/>
<path d="M-284.703 835.856C-202.148 801.896 -67.9958 779.193 57.3377 785.76C121.318 789.138 182.108 797.768 239.334 800.77C297.873 803.96 350.783 802.271 406.695 789.138C424.52 785.01 442.344 779.569 460.169 772.251C527.714 744.67 593.758 720.092 671.059 695.513C751.925 669.62 813.467 628.531 868.441 587.441C881.387 577.872 894.333 569.053 906.904 560.423C943.303 535.844 978.389 515.58 1027.17 504.886C1055.88 498.506 1087.4 493.441 1123.05 491.189C1214.42 485.185 1278.78 507.325 1344.63 495.88C1353.45 494.379 1362.27 491.94 1370.71 489.125C1413.49 474.678 1455.14 443.345 1484.98 397.377C1521 342.027 1539.01 266.602 1535.82 193.803C1533.2 129.823 1517.81 67.5318 1511.06 3.55166C1499.24 -105.646 1513.31 -222.536 1554.59 -322.541C1577.48 -378.453 1608.81 -427.798 1646.9 -470.577C1716.13 -548.253 1808.63 -602.852 1912.01 -637.375C1969.99 -656.701 2030.78 -667.771 2091.94 -669.647" stroke="#607DEE" stroke-miterlimit="10"/>
<path d="M-276.26 852.367C-192.579 827.225 -59.3651 809.026 65.0303 813.529C128.635 815.78 189.238 821.784 245.901 821.784C303.877 821.784 355.474 816.156 410.26 800.395C427.709 795.329 444.971 789.138 462.42 781.257C528.277 751.237 592.257 724.032 669.183 698.515C748.736 672.247 811.403 633.409 867.69 597.197C881.012 588.566 894.333 581.061 907.091 573.744C944.241 552.73 980.077 536.407 1028.67 527.776C1057.57 522.71 1088.9 518.02 1123.8 515.205C1213.86 508.075 1278.03 521.959 1340.88 505.448C1349.32 503.197 1357.58 500.195 1365.83 496.818C1406.36 479.556 1445.01 446.347 1472.97 399.816C1506.55 343.716 1523.06 269.229 1520.81 197.181C1518.94 133.576 1505.99 71.0966 1501.11 6.92887C1492.67 -102.269 1509.37 -218.596 1551.96 -317.287C1575.97 -372.637 1607.87 -421.419 1646.71 -463.259C1716.88 -539.435 1809.57 -592.533 1913.14 -627.056C1970.93 -646.381 2031.53 -657.451 2092.51 -660.078" stroke="#6576F0" stroke-miterlimit="10"/>
<path d="M-267.816 868.691C-183.01 852.555 -50.7343 838.483 72.9106 840.922C136.328 842.235 196.555 845.613 252.468 842.236C309.693 838.858 360.164 829.477 413.825 811.09C430.899 805.086 447.785 798.144 464.672 789.701C528.839 757.241 590.756 727.221 667.307 701.141C745.546 674.311 809.339 638.099 866.752 606.391C880.449 598.886 893.958 592.319 907.279 586.315C945.367 568.866 981.579 556.483 1030.17 549.916C1059.26 545.976 1090.4 541.848 1124.74 538.658C1213.48 530.215 1277.28 536.219 1337.32 514.455C1345.38 511.453 1353.26 507.888 1360.96 503.76C1399.23 483.497 1435.07 448.598 1460.77 401.504C1491.73 344.654 1506.93 270.917 1505.62 199.808C1504.49 136.39 1493.98 73.7235 1491.17 9.55571C1486.29 -99.8297 1505.24 -215.407 1549.33 -312.784C1574.29 -367.758 1607.12 -415.603 1646.33 -456.88C1717.44 -531.555 1810.32 -583.152 1913.89 -617.487C1971.68 -636.625 2032.09 -648.07 2092.69 -651.072" stroke="#6B70F1" stroke-miterlimit="10"/>
<path d="M-259.373 885.201C-173.629 878.072 -42.1035 868.315 80.6033 868.691C143.645 868.878 203.685 869.816 259.035 863.062C315.697 856.495 365.043 843.361 417.39 822.16C434.089 815.405 450.6 807.712 466.923 798.519C529.402 763.621 589.255 730.974 665.243 703.956C741.981 676.75 806.9 642.978 865.814 615.96C879.886 609.58 893.77 604.139 907.467 599.449C946.305 585.564 983.267 577.121 1031.67 572.806C1060.76 570.179 1091.9 566.427 1125.49 562.674C1212.92 553.105 1276.53 551.042 1333.56 524.024C1341.26 520.271 1348.76 516.143 1355.89 511.453C1391.91 488.187 1424.75 451.6 1448.39 403.944C1476.72 346.343 1490.61 273.544 1490.23 202.997C1489.85 139.955 1481.79 77.1007 1480.85 12.7453C1479.35 -96.6401 1500.92 -211.654 1546.52 -307.718C1572.41 -362.317 1605.99 -409.411 1645.77 -449.75C1717.82 -523.112 1810.88 -573.02 1914.64 -607.355C1972.24 -626.493 2032.47 -637.938 2093.07 -641.691" stroke="#7069F3" stroke-miterlimit="10"/>
<path d="M-251.118 901.713C-164.248 903.589 -33.6604 897.96 88.1082 896.459C150.775 895.521 210.627 893.832 265.414 884.076C321.514 874.132 369.546 857.246 420.767 833.417C437.091 825.725 453.039 817.282 468.799 807.525C529.59 770.188 587.378 734.727 662.991 707.146C738.417 679.565 804.46 648.231 864.5 625.716C878.947 620.275 893.207 616.148 907.091 612.583C946.68 602.263 984.393 597.76 1032.61 595.509C1061.88 594.008 1092.84 590.63 1125.67 586.503C1211.79 575.62 1275.21 565.676 1329.25 533.217C1336.57 528.902 1343.69 523.836 1350.45 518.582C1384.22 492.315 1414.24 454.039 1435.82 405.82C1461.71 347.468 1474.09 275.608 1474.66 205.811C1475.22 143.145 1469.22 79.9151 1470.53 15.5598C1472.59 -93.8256 1496.42 -208.277 1543.52 -303.028C1570.35 -357.251 1604.68 -403.595 1645.02 -443.183C1718.01 -515.044 1811.26 -563.451 1915.2 -597.787C1972.8 -616.737 2032.65 -628.557 2093.07 -632.872" stroke="#7662F4" stroke-miterlimit="10"/>
<path d="M-242.675 918.224C-154.679 929.106 -24.8421 927.793 95.9884 924.04C158.468 922.164 217.945 917.848 272.168 904.715C327.518 891.581 374.424 870.942 424.52 844.299C440.468 835.856 456.041 826.475 471.238 816.156C530.153 776.379 586.065 738.291 661.115 709.772C735.227 681.628 802.397 652.922 863.75 635.098C878.573 630.782 893.207 627.78 907.467 625.341C947.994 618.586 986.082 616.71 1034.3 617.836C1063.76 618.399 1094.34 614.646 1126.61 609.956C1211.42 597.948 1274.46 579.748 1325.68 542.223C1332.63 537.157 1339.19 531.528 1345.57 525.712C1377.09 496.443 1404.3 456.478 1423.62 407.696C1446.89 348.594 1457.96 277.484 1459.46 208.626C1460.77 146.334 1457.21 82.7295 1460.4 18.3741C1465.84 -91.0113 1492.29 -204.9 1540.7 -298.525C1568.66 -352.373 1603.56 -397.778 1644.46 -436.617C1718.38 -506.976 1811.82 -553.882 1915.76 -588.03C1973.18 -606.98 2033.03 -618.8 2093.07 -623.679" stroke="#7C5BF5" stroke-miterlimit="10"/>
<path d="M-234.232 934.735C-145.11 954.623 -16.2115 957.25 103.681 951.808C165.785 948.619 225.262 941.864 278.735 925.729C333.522 909.218 379.114 884.826 428.085 855.557C443.657 846.176 458.668 836.231 473.49 825.162C530.716 782.758 584.752 742.231 659.239 712.962C731.85 684.443 800.333 658.363 863 644.854C878.197 641.664 893.207 639.788 907.842 638.662C949.119 635.473 987.958 639.038 1036.18 640.726C1065.82 641.852 1096.22 639.038 1127.74 634.159C1211.23 620.838 1274.09 594.758 1322.31 551.98C1328.87 546.163 1335.06 539.972 1340.88 533.592C1370.15 501.508 1394.35 459.668 1411.62 410.323C1432.44 350.47 1442.01 280.299 1444.26 212.003C1446.51 149.899 1445.01 86.2944 1450.45 21.5637C1459.08 -87.8217 1488.17 -201.147 1538.26 -293.459C1567.16 -346.932 1602.99 -391.587 1644.27 -429.487C1719.13 -498.345 1812.57 -543.938 1916.89 -577.898C1974.3 -596.661 2033.78 -608.856 2093.82 -614.298" stroke="#8154F7" stroke-miterlimit="10"/>
<path d="M-225.976 951.246C-135.728 980.14 -7.7682 987.082 111.374 979.389C173.29 975.262 232.392 965.88 285.302 946.367C339.526 926.667 383.993 898.523 431.65 866.251C446.847 856.12 461.482 845.237 475.741 833.605C531.278 788.762 583.251 745.609 657.363 715.401C728.66 686.507 798.269 662.866 862.061 654.048C877.634 651.984 893.02 651.421 908.03 651.233C950.058 650.67 989.646 659.113 1037.68 662.866C1067.51 665.117 1097.72 662.866 1128.49 657.425C1210.67 642.79 1273.15 608.642 1318.55 560.798C1324.74 554.231 1330.56 547.289 1336 540.347C1362.83 505.261 1384.41 461.732 1399.61 411.824C1417.81 351.409 1426.06 281.987 1429.25 214.442C1432.25 152.714 1433.19 88.7334 1440.51 24.0028C1452.7 -85.3826 1484.23 -198.145 1535.64 -289.143C1565.47 -342.054 1602.05 -386.145 1643.89 -423.295C1719.51 -490.653 1813.32 -534.745 1917.83 -568.705C1975.05 -587.28 2034.34 -599.663 2094.2 -605.667" stroke="#874DF8" stroke-miterlimit="10"/>
<path d="M-217.533 967.757C-126.347 1005.47 0.862482 1016.91 119.066 1007.16C180.607 1001.9 239.521 989.896 291.869 967.381C345.342 944.304 388.683 912.407 435.214 877.509C450.037 866.439 464.109 854.806 477.993 842.611C531.841 795.329 581.749 749.361 655.298 718.591C725.283 689.134 796.017 668.307 861.123 663.804C877.071 662.678 892.832 663.241 908.029 664.555C950.996 668.307 990.96 679.94 1038.99 685.756C1069.01 689.321 1099.03 687.445 1129.05 681.441C1209.92 665.493 1272.21 623.465 1314.61 570.367C1320.43 563.05 1325.87 555.545 1330.75 548.04C1355.33 509.952 1374.09 464.734 1387.04 414.263C1402.61 353.097 1409.55 284.426 1413.68 217.819C1417.43 156.466 1420.81 92.2983 1430.19 27.3801C1445.76 -82.0053 1479.91 -194.017 1532.63 -283.89C1563.59 -336.425 1600.74 -379.766 1643.33 -415.978C1719.88 -481.834 1813.88 -524.425 1918.39 -558.385C1975.62 -576.96 2034.72 -589.531 2094.19 -596.098" stroke="#8D46F9" stroke-miterlimit="10"/>
<path d="M-209.09 984.08C-116.778 1030.8 9.49333 1046.37 126.759 1034.74C187.925 1028.36 246.651 1013.91 298.436 988.02C351.346 961.753 393.562 926.104 438.78 888.391C453.227 876.571 466.736 864 480.245 851.242C532.217 801.333 580.249 752.926 653.422 721.218C722.093 691.385 793.766 672.247 860.185 673.185C876.509 673.373 892.644 674.687 908.217 677.313C951.934 684.631 992.649 700.391 1040.49 708.084C1070.51 712.962 1100.35 711.273 1129.8 704.894C1209.36 687.82 1271.27 637.537 1310.86 579.373C1316.3 571.493 1321.18 563.237 1325.68 554.982C1348.01 513.892 1363.77 466.986 1374.65 415.952C1387.79 354.035 1393.23 286.303 1398.29 220.259C1402.98 159.28 1408.43 94.7375 1420.06 29.8192C1439.2 -79.5662 1475.78 -191.015 1530.01 -279.574C1561.9 -331.734 1599.99 -374.137 1642.96 -409.786C1720.45 -474.142 1814.63 -515.231 1919.33 -549.004C1976.37 -567.391 2035.28 -580.15 2094.76 -587.467" stroke="#9240FB" stroke-miterlimit="10"/>
<path d="M-200.647 1000.59C-107.21 1056.32 18.124 1076.2 134.639 1062.32C195.617 1055 253.969 1037.74 305.19 1008.85C357.538 979.202 398.44 939.801 442.532 899.461C456.416 886.703 469.737 873.569 482.683 860.06C532.967 807.713 579.123 756.679 651.546 724.22C718.903 694.012 791.702 678.251 859.435 682.942C876.133 684.068 892.457 686.695 908.592 690.635C953.247 701.329 994.337 721.218 1042.18 730.974C1072.39 737.166 1102.03 735.852 1130.74 729.098C1208.98 710.711 1270.52 652.547 1307.3 589.13C1312.36 580.499 1316.86 571.68 1320.8 562.862C1340.88 518.77 1353.83 470.175 1362.46 418.578C1372.96 355.912 1377.28 289.117 1383.1 223.824C1388.72 163.033 1396.42 98.3024 1409.93 33.3841C1432.44 -76.0012 1471.66 -186.7 1527.19 -274.133C1560.21 -325.73 1598.86 -367.571 1642.39 -402.281C1720.82 -465.136 1815.2 -504.724 1920.08 -538.497C1976.93 -556.884 2035.66 -569.643 2094.95 -577.523" stroke="#9839FC" stroke-miterlimit="10"/>
<path d="M-192.391 1017.1C-97.8283 1081.83 26.567 1106.04 142.144 1090.09C202.747 1081.65 260.911 1061.94 311.569 1029.67C363.166 996.839 402.943 953.685 445.909 910.531C459.418 897.022 472.177 882.95 484.747 868.878C533.155 814.092 577.434 760.619 649.482 727.222C715.526 696.826 789.263 683.505 858.309 692.511C875.383 694.762 892.081 698.515 908.405 703.581C953.81 717.653 995.65 741.856 1043.31 753.489C1073.7 760.994 1103.16 759.868 1131.12 752.738C1208.04 732.85 1269.21 666.806 1303.17 598.323C1307.86 588.942 1311.99 579.373 1315.55 569.992C1333.38 523.086 1343.51 472.614 1350.07 420.455C1358.14 357.037 1360.96 290.993 1367.71 226.638C1374.09 166.223 1384.22 101.304 1399.79 36.1985C1425.87 -73.3745 1467.53 -183.323 1524.38 -269.443C1558.34 -320.664 1597.74 -361.754 1641.83 -395.714C1721.2 -457.068 1815.76 -495.156 1920.64 -528.928C1977.49 -547.128 2036.03 -560.262 2094.95 -568.705" stroke="#9D32FE" stroke-miterlimit="10"/>
<path d="M-183.948 1033.61C-37.9757 1146 173.29 1153.32 318.136 1050.5C369.171 1014.29 407.634 967.381 449.474 921.601C513.829 851.054 557.546 773.002 647.418 730.036C728.097 691.385 824.724 684.443 908.592 716.527C954.936 734.164 997.152 762.307 1044.81 776.004C1171.46 812.216 1276.71 686.132 1310.49 577.497C1345.01 466.798 1338.25 345.968 1352.33 229.828C1371.65 69.033 1428.31 -129.099 1521.56 -264.564C1619.69 -406.972 1757.97 -466.637 1921.39 -518.796C1978.06 -536.996 2036.41 -550.13 2095.32 -559.136" stroke="#A32BFF" stroke-miterlimit="10"/>
</g>
<mask id="mask3_134_262" style="mask-type:luminance" maskUnits="userSpaceOnUse" x="-131" y="-573" width="2252" height="1502">
<path d="M2120.5 -573H-131V928H2120.5V-573Z" fill="white"/>
</mask>
<g mask="url(#mask3_134_262)">
<path d="M1209.75 762.12C1211.82 762.12 1213.51 760.44 1213.51 758.368C1213.51 756.295 1211.82 754.615 1209.75 754.615C1207.68 754.615 1206 756.295 1206 758.368C1206 760.44 1207.68 762.12 1209.75 762.12Z" fill="#2B3640"/>
<path d="M1209.75 718.966C1211.82 718.966 1213.51 717.286 1213.51 715.214C1213.51 713.141 1211.82 711.461 1209.75 711.461C1207.68 711.461 1206 713.141 1206 715.214C1206 717.286 1207.68 718.966 1209.75 718.966Z" fill="#2B3640"/>
<path d="M1209.75 675.813C1211.82 675.813 1213.51 674.133 1213.51 672.06C1213.51 669.988 1211.82 668.308 1209.75 668.308C1207.68 668.308 1206 669.988 1206 672.06C1206 674.133 1207.68 675.813 1209.75 675.813Z" fill="#2B3640"/>
<path d="M1209.75 632.659C1211.82 632.659 1213.51 630.979 1213.51 628.906C1213.51 626.834 1211.82 625.154 1209.75 625.154C1207.68 625.154 1206 626.834 1206 628.906C1206 630.979 1207.68 632.659 1209.75 632.659Z" fill="#2B3640"/>
<path d="M1209.75 589.505C1211.83 589.505 1213.51 587.825 1213.51 585.753C1213.51 583.68 1211.83 582 1209.75 582C1207.68 582 1206 583.68 1206 585.753C1206 587.825 1207.68 589.505 1209.75 589.505Z" fill="#2B3640"/>
<path d="M1256.66 762.12C1258.73 762.12 1260.41 760.44 1260.41 758.368C1260.41 756.295 1258.73 754.615 1256.66 754.615C1254.59 754.615 1252.91 756.295 1252.91 758.368C1252.91 760.44 1254.59 762.12 1256.66 762.12Z" fill="#2B3640"/>
<path d="M1256.66 718.966C1258.73 718.966 1260.41 717.286 1260.41 715.214C1260.41 713.141 1258.73 711.461 1256.66 711.461C1254.59 711.461 1252.91 713.141 1252.91 715.214C1252.91 717.286 1254.59 718.966 1256.66 718.966Z" fill="#2B3640"/>
<path d="M1256.66 675.813C1258.73 675.813 1260.41 674.133 1260.41 672.06C1260.41 669.988 1258.73 668.308 1256.66 668.308C1254.59 668.308 1252.91 669.988 1252.91 672.06C1252.91 674.133 1254.59 675.813 1256.66 675.813Z" fill="#2B3640"/>
<path d="M1256.66 632.659C1258.73 632.659 1260.41 630.979 1260.41 628.906C1260.41 626.834 1258.73 625.154 1256.66 625.154C1254.59 625.154 1252.91 626.834 1252.91 628.906C1252.91 630.979 1254.59 632.659 1256.66 632.659Z" fill="#2B3640"/>
<path d="M1256.66 589.505C1258.73 589.505 1260.41 587.825 1260.41 585.753C1260.41 583.68 1258.73 582 1256.66 582C1254.59 582 1252.91 583.68 1252.91 585.753C1252.91 587.825 1254.59 589.505 1256.66 589.505Z" fill="#2B3640"/>
<path d="M1303.57 762.12C1305.64 762.12 1307.32 760.44 1307.32 758.368C1307.32 756.295 1305.64 754.615 1303.57 754.615C1301.49 754.615 1299.81 756.295 1299.81 758.368C1299.81 760.44 1301.49 762.12 1303.57 762.12Z" fill="#2B3640"/>
<path d="M1303.57 718.966C1305.64 718.966 1307.32 717.286 1307.32 715.214C1307.32 713.141 1305.64 711.461 1303.57 711.461C1301.49 711.461 1299.81 713.141 1299.81 715.214C1299.81 717.286 1301.49 718.966 1303.57 718.966Z" fill="#2B3640"/>
<path d="M1303.57 675.813C1305.64 675.813 1307.32 674.133 1307.32 672.06C1307.32 669.988 1305.64 668.308 1303.57 668.308C1301.49 668.308 1299.81 669.988 1299.81 672.06C1299.81 674.133 1301.49 675.813 1303.57 675.813Z" fill="#2B3640"/>
<path d="M1303.57 632.659C1305.64 632.659 1307.32 630.979 1307.32 628.906C1307.32 626.834 1305.64 625.154 1303.57 625.154C1301.49 625.154 1299.81 626.834 1299.81 628.906C1299.81 630.979 1301.49 632.659 1303.57 632.659Z" fill="#2B3640"/>
<path d="M1303.57 589.505C1305.64 589.505 1307.32 587.825 1307.32 585.753C1307.32 583.68 1305.64 582 1303.57 582C1301.49 582 1299.81 583.68 1299.81 585.753C1299.81 587.825 1301.49 589.505 1303.57 589.505Z" fill="#2B3640"/>
<path d="M1350.47 762.12C1352.54 762.12 1354.22 760.44 1354.22 758.368C1354.22 756.295 1352.54 754.615 1350.47 754.615C1348.4 754.615 1346.72 756.295 1346.72 758.368C1346.72 760.44 1348.4 762.12 1350.47 762.12Z" fill="#2B3640"/>
<path d="M1350.47 718.966C1352.54 718.966 1354.22 717.286 1354.22 715.214C1354.22 713.141 1352.54 711.461 1350.47 711.461C1348.4 711.461 1346.72 713.141 1346.72 715.214C1346.72 717.286 1348.4 718.966 1350.47 718.966Z" fill="#2B3640"/>
<path d="M1350.47 675.813C1352.54 675.813 1354.22 674.133 1354.22 672.06C1354.22 669.988 1352.54 668.308 1350.47 668.308C1348.4 668.308 1346.72 669.988 1346.72 672.06C1346.72 674.133 1348.4 675.813 1350.47 675.813Z" fill="#2B3640"/>
<path d="M1350.47 632.659C1352.54 632.659 1354.22 630.979 1354.22 628.906C1354.22 626.834 1352.54 625.154 1350.47 625.154C1348.4 625.154 1346.72 626.834 1346.72 628.906C1346.72 630.979 1348.4 632.659 1350.47 632.659Z" fill="#2B3640"/>
<path d="M1350.47 589.505C1352.54 589.505 1354.22 587.825 1354.22 585.753C1354.22 583.68 1352.54 582 1350.47 582C1348.4 582 1346.72 583.68 1346.72 585.753C1346.72 587.825 1348.4 589.505 1350.47 589.505Z" fill="#2B3640"/>
<path d="M1397.38 762.12C1399.45 762.12 1401.13 760.44 1401.13 758.368C1401.13 756.295 1399.45 754.615 1397.38 754.615C1395.31 754.615 1393.62 756.295 1393.62 758.368C1393.62 760.44 1395.31 762.12 1397.38 762.12Z" fill="#2B3640"/>
<path d="M1397.38 718.966C1399.45 718.966 1401.13 717.286 1401.13 715.214C1401.13 713.141 1399.45 711.461 1397.38 711.461C1395.31 711.461 1393.62 713.141 1393.62 715.214C1393.62 717.286 1395.31 718.966 1397.38 718.966Z" fill="#2B3640"/>
<path d="M1397.38 675.813C1399.45 675.813 1401.13 674.133 1401.13 672.06C1401.13 669.988 1399.45 668.308 1397.38 668.308C1395.31 668.308 1393.62 669.988 1393.62 672.06C1393.62 674.133 1395.31 675.813 1397.38 675.813Z" fill="#2B3640"/>
<path d="M1397.38 632.659C1399.45 632.659 1401.13 630.979 1401.13 628.906C1401.13 626.834 1399.45 625.154 1397.38 625.154C1395.31 625.154 1393.62 626.834 1393.62 628.906C1393.62 630.979 1395.31 632.659 1397.38 632.659Z" fill="#2B3640"/>
<path d="M1397.38 589.505C1399.45 589.505 1401.13 587.825 1401.13 585.753C1401.13 583.68 1399.45 582 1397.38 582C1395.31 582 1393.62 583.68 1393.62 585.753C1393.62 587.825 1395.31 589.505 1397.38 589.505Z" fill="#2B3640"/>
</g>
</svg>
