<svg width="1440" height="800" viewBox="0 0 1440 800" fill="none" xmlns="http://www.w3.org/2000/svg">
<rect x="144" y="23" width="1152" height="696" rx="50" fill="#FFF4E6"/>
<mask id="mask0_226_842" style="mask-type:luminance" maskUnits="userSpaceOnUse" x="124" y="0" width="1149" height="800">
<path d="M1272.84 0H124.845V800H1272.84V0Z" fill="white"/>
</mask>
<g mask="url(#mask0_226_842)">
<path d="M-70.889 1066.4C5.26163 1060.6 79.4033 1027.8 136.421 974.6C204.153 911.4 245.672 823.5 279.825 735.5C313.978 647.5 342.774 556.3 391.946 476.6C441.119 396.9 515.069 327.9 604.613 312.1C660.77 302.2 719.222 313.6 774.804 300.9C950.735 260.5 1023.15 4.50008 1200.33 -29.5999C1276.1 -44.1999 1353.78 -12.9999 1430.5 -20.4999C1530.86 -30.3999 1620.69 -113.5 1642.31 -216.4" stroke="#F2E5D5" stroke-miterlimit="10"/>
<path d="M-81.4124 1056.2C-6.12269 1047 68.4973 1013.3 127.141 962C181.862 914.3 221.66 854 253.708 792C262.701 774.6 271.119 757 279.251 739.5C299.437 696.2 318.187 651.8 339.808 606.4C358.08 568.1 377.405 528.9 399.887 491.5C408.975 476.4 418.637 461.6 428.969 447.4C464.94 397.8 508.373 355.8 558.598 332.3C571.704 326.2 585.193 321.3 599.16 317.9C638.862 308.1 680.094 310 721.135 304.4C733.859 302.7 746.583 300.2 759.306 296.5C802.643 283.7 840.623 257.8 876.594 227.2C913.425 195.8 947.291 159.9 981.349 123.3C1038.65 61.4999 1096.05 -1.70003 1170.39 -27.3C1177.37 -29.7 1184.54 -31.8 1191.91 -33.5C1262.23 -50 1334.17 -28.7001 1406.4 -33.2001C1411.56 -33.5001 1416.73 -34.0001 1421.89 -34.6001C1523.2 -46.5001 1616 -124.4 1641.07 -217.8" stroke="#F2E5D5" stroke-miterlimit="10"/>
<path d="M-92.0312 1045.9C-17.6982 1033.4 57.4001 998.6 117.766 949.2C174.209 903 216.876 846.9 251.316 790.7C260.883 774.9 269.971 759 278.773 743.2C300.489 704.1 321.153 664.2 344.974 620.6C365.064 583.8 385.537 544.4 407.923 506.2C417.011 490.8 426.482 475.6 436.336 461C470.776 409.9 510.477 366.1 556.589 340.2C568.643 333.5 581.079 327.9 593.899 323.7C630.539 311.6 668.614 310.7 707.551 302.3C719.605 299.7 731.754 296.5 744 292C785.71 276.8 823.69 249.3 860.522 219.2C898.501 188.3 933.994 155.4 969.486 120.5C1029.09 61.6001 1088.02 -2.19991 1162.16 -30.4999C1169.14 -33.1999 1176.32 -35.4999 1183.59 -37.4999C1253.62 -56.7999 1324.89 -40.4999 1397.79 -46.9999C1403.05 -47.4999 1408.21 -47.9999 1413.48 -48.7999C1515.84 -62.7999 1611.51 -135.4 1640.01 -219.4" stroke="#F2E5D5" stroke-miterlimit="10"/>
<path d="M-102.555 1035.6C-29.0827 1019.8 46.3983 983.9 108.486 936.4C166.747 891.7 212.476 839.9 248.925 789.4C259.161 775.2 268.728 761.1 278.199 747C301.541 712.2 324.023 676.6 350.044 634.9C371.952 599.7 393.573 560 415.863 521C424.856 505.3 434.135 489.7 443.511 474.6C476.42 422 512.391 376.5 554.388 348C565.294 340.6 576.679 334.4 588.446 329.4C621.929 315.1 656.943 311.2 693.775 300.2C705.159 296.8 716.83 292.8 728.597 287.6C768.777 269.9 806.566 240.8 844.45 211.3C883.577 180.9 920.6 151 957.528 117.9C1019.52 61.8999 1079.89 -2.50009 1153.84 -33.5001C1160.82 -36.4001 1167.9 -39.0001 1175.17 -41.3001C1244.81 -63.4001 1315.61 -52.1001 1389.08 -60.6001C1394.34 -61.2001 1399.6 -61.9001 1404.86 -62.7001C1508.18 -78.8001 1606.72 -146.1 1638.77 -220.6" stroke="#F2E5D5" stroke-miterlimit="10"/>
<path d="M-113.078 1025.3C-40.5627 1006.1 35.4923 969.3 99.2063 923.6C159.285 880.5 207.884 832.9 246.533 788.1C257.439 775.5 267.58 763.1 277.72 750.8C302.785 720.3 327.084 689.1 355.115 649.2C378.744 615.5 401.609 575.6 423.899 535.7C432.892 519.7 441.884 503.6 450.877 488.2C482.16 434.1 514.495 386.8 552.379 355.9C562.233 347.9 572.565 341 583.184 335.2C613.51 318.7 645.559 311.7 680.19 298.1C690.905 293.9 702.002 289 713.291 283.1C751.844 262.9 789.537 232.3 828.473 203.3C868.749 173.4 907.398 146.6 945.761 115.1C1010.14 62.2 1071.95 -2.99997 1145.7 -36.7C1152.69 -39.9 1159.67 -42.6999 1166.94 -45.2999C1236.2 -70.2999 1306.52 -63.8999 1380.57 -74.3999C1385.83 -75.1999 1391.18 -75.9999 1396.54 -76.8999C1500.82 -95.0999 1602.32 -157.1 1637.81 -222.2" stroke="#F2E5D5" stroke-miterlimit="10"/>
<path d="M-123.697 1015.1C-52.0427 992.6 24.4906 954.8 89.831 910.9C151.727 869.4 203.196 825.9 244.141 786.9C255.621 775.9 266.432 765.2 277.146 754.7C303.837 728.5 329.954 701.7 360.185 663.6C385.632 631.5 409.549 591.3 431.839 550.6C440.832 534.2 449.633 517.8 458.148 501.9C487.9 446.2 516.409 397.1 550.275 363.9C559.076 355.3 568.26 347.7 577.827 341.1C605.092 322.3 633.983 312.4 666.414 296.1C676.459 291.1 686.982 285.4 697.793 278.8C734.816 256.2 772.317 224 812.21 195.5C853.634 166.1 893.909 142.3 933.611 112.5C1000.29 62.5001 1063.62 -3.39992 1137.19 -39.6999C1144.08 -43.0999 1151.16 -46.2999 1158.33 -49.0999C1227.31 -76.8999 1297.05 -75.4999 1371.57 -87.8999C1376.93 -88.7999 1382.29 -89.7999 1387.64 -90.7999C1492.88 -111.1 1597.35 -167.8 1636.28 -223.4" stroke="#F2E5D5" stroke-miterlimit="10"/>
<path d="M-134.22 1004.8C-63.5227 978.9 13.5847 940.1 80.5513 898.1C144.265 858.1 198.604 818.9 241.75 785.6C253.804 776.3 265.188 767.2 276.668 758.4C304.985 736.5 332.92 714 365.351 677.8C392.616 647.2 417.681 606.8 439.875 565.3C448.772 548.6 457.382 531.8 465.418 515.5C493.64 458.3 518.418 407.4 548.17 371.7C555.919 362.4 564.051 354.1 572.469 346.8C596.577 325.8 622.407 312.9 652.734 293.9C662.109 288 672.058 281.6 682.39 274.3C717.787 249.2 755.193 215.5 796.138 187.5C838.71 158.6 880.516 137.9 921.748 109.7C990.724 62.6001 1055.59 -3.8999 1128.96 -42.8999C1135.85 -46.5999 1142.83 -49.9999 1150.01 -53.0999C1218.6 -83.7999 1287.77 -87.2999 1362.96 -101.7C1368.32 -102.7 1373.77 -103.8 1379.23 -105C1485.42 -127.4 1592.75 -178.8 1635.23 -224.9" stroke="#F2E5D5" stroke-miterlimit="10"/>
<path d="M-144.744 994.5C-74.907 965.3 2.67868 925.5 71.2717 885.3C136.803 846.9 193.916 811.9 239.358 784.3C252.082 776.6 264.04 769.3 276.094 762.2C306.133 744.6 335.79 726.5 370.421 692.1C399.504 663.1 425.717 622.4 447.816 580C456.713 563 465.036 545.8 472.689 529C499.38 470.3 520.427 417.7 546.065 379.5C552.762 369.6 559.746 360.6 567.112 352.5C588.159 329.2 610.832 313.4 639.053 291.8C647.759 285.1 657.134 277.9 666.988 269.8C700.854 242.3 738.068 206.9 780.066 179.5C823.786 151.1 867.218 133.4 909.886 107C981.157 62.8001 1047.55 -4.29991 1120.74 -45.9999C1127.62 -49.8999 1134.61 -53.5999 1141.69 -57.0999C1209.9 -90.5999 1278.59 -99.0999 1354.35 -115.5C1359.81 -116.7 1365.26 -117.9 1370.71 -119.1C1477.95 -143.6 1588.16 -189.7 1634.08 -226.4" stroke="#F2E5D5" stroke-miterlimit="10"/>
<path d="M-155.363 984.3C-86.4827 951.7 -8.323 911 61.8963 872.6C129.246 835.8 189.229 804.9 236.966 783.1C250.264 777 262.892 771.4 275.616 766.1C307.377 752.8 338.756 739 375.492 706.5C406.392 679 433.753 638.1 455.756 594.9C464.653 577.6 472.785 559.9 479.96 542.8C505.024 482.6 522.34 428.2 543.961 387.5C549.509 377 555.536 367.3 561.755 358.4C579.644 332.9 599.352 314.2 625.373 289.8C633.409 282.3 642.21 274.3 651.681 265.5C683.921 235.5 721.04 198.6 763.994 171.7C808.862 143.8 853.825 129.1 897.927 104.4C971.591 63.1 1039.42 -4.59995 1112.41 -49C1119.3 -53.2 1126.19 -57.0999 1133.27 -60.8999C1201.09 -97.2999 1269.31 -110.7 1345.65 -129.1C1351.1 -130.4 1356.65 -131.8 1362.2 -133.1C1470.4 -159.6 1583.57 -200.5 1632.93 -227.7" stroke="#F2E5D5" stroke-miterlimit="10"/>
<path d="M-165.886 974C-97.867 938.1 -19.229 896.4 52.6167 859.8C121.784 824.6 184.541 797.9 234.575 781.7C248.446 777.2 261.744 773.3 275.042 769.8C308.525 760.8 341.721 751.4 380.562 720.7C413.28 694.8 441.789 653.6 463.792 609.6C472.593 592 480.534 573.9 487.326 556.3C510.86 494.6 524.445 438.4 541.952 395.3C546.448 384.1 551.327 373.7 556.493 364.1C571.226 336.3 587.872 314.7 611.788 287.6C619.155 279.3 627.382 270.4 636.375 261C667.084 228.5 704.011 190.1 748.018 163.6C794.033 136.2 840.527 124.6 886.16 101.5C962.12 63.1001 1031.48 -5.1999 1104.28 -52.2999C1111.07 -56.6999 1118.06 -60.8999 1125.04 -64.9999C1192.58 -104.2 1260.22 -122.6 1337.13 -143C1342.68 -144.5 1348.23 -145.9 1353.78 -147.4C1462.93 -176 1578.98 -211.6 1631.88 -229.4" stroke="#F2E5D5" stroke-miterlimit="10"/>
<path d="M-176.409 963.7C-109.347 924.4 -30.135 881.8 43.3371 847C114.322 813.4 179.949 790.8 232.279 780.4C246.724 777.5 260.692 775.4 274.563 773.5C309.769 768.9 344.687 763.8 385.728 734.9C420.264 710.5 449.825 669.1 471.828 624.3C480.629 606.4 488.283 587.9 494.597 569.8C516.6 506.5 526.454 448.7 539.847 403C543.291 391.2 547.118 380.1 551.136 369.6C562.807 339.5 576.296 315 598.108 285.3C604.805 276.2 612.458 266.5 620.972 256.3C650.055 221.4 686.887 181.4 731.946 155.4C779.109 128.5 827.23 119.9 874.298 98.4999C952.553 62.9999 1023.44 -5.9001 1096.05 -55.7001C1102.85 -60.3001 1109.73 -64.9001 1116.72 -69.2001C1183.88 -111.2 1251.03 -134.6 1328.43 -157C1333.98 -158.6 1339.62 -160.2 1345.17 -161.8C1455.28 -192.5 1574.29 -222.7 1630.64 -231.1" stroke="#F2E5D5" stroke-miterlimit="10"/>
<path d="M-187.028 953.5C-120.827 910.9 -41.1366 867.3 33.9617 834.3C106.86 802.3 175.166 783.8 229.791 779.2C244.907 777.9 259.448 777.2 273.989 777.4C310.917 778 347.557 776.3 390.798 749.3C427.152 726.5 457.861 684.8 479.768 639.1C488.57 620.8 496.032 602 501.867 583.5C522.34 518.7 528.463 459.1 537.742 411C540.134 398.6 542.813 386.8 545.778 375.5C554.293 343.1 564.816 315.8 584.428 283.3C590.455 273.4 597.534 262.9 605.57 252C633.122 214.6 669.762 173 715.778 147.6C764.09 121.1 813.741 115.6 862.244 96C942.795 63.4 1015.21 -6.20004 1087.63 -58.6C1094.43 -63.5 1101.22 -68.3 1108.2 -72.9C1174.98 -117.8 1241.56 -146.1 1319.63 -170.5C1325.27 -172.3 1330.82 -174 1336.56 -175.6C1447.63 -208.4 1569.6 -233.3 1629.39 -232.2" stroke="#F2E5D5" stroke-miterlimit="10"/>
<path d="M-197.552 943.2C-132.307 897.2 -52.0426 852.7 24.682 821.6C99.3977 791.2 170.574 776.8 227.4 778C243.089 778.3 258.3 779.7 273.415 781.3C312.065 785.4 350.427 788.9 395.773 763.7C433.944 742.5 465.801 700.5 487.613 654C496.319 635.4 503.589 616.1 509.042 597.2C527.889 530.9 530.376 469.5 535.542 418.9C536.881 405.9 538.412 393.3 540.325 381.3C545.683 346.7 553.145 316.4 570.556 281.2C575.913 270.4 582.419 259.2 590.072 247.5C615.998 207.7 652.638 164.5 699.61 139.6C749.07 113.6 800.252 111.1 850.285 93.1999C933.133 63.4999 1007.08 -6.70008 1079.31 -61.8001C1086.1 -66.9001 1092.9 -72.0001 1099.78 -76.9001C1166.27 -124.6 1232.28 -157.9 1310.92 -184.2C1316.56 -186.1 1322.21 -187.9 1327.95 -189.7C1440.07 -224.6 1564.82 -244.2 1628.15 -233.7" stroke="#F2E5D5" stroke-miterlimit="10"/>
<path d="M-208.075 932.9C-143.691 883.6 -62.9486 838.2 15.4024 808.8C91.9357 780.1 165.886 769.7 225.104 776.7C241.367 778.6 257.248 781.7 273.033 785.1C313.404 793.6 353.584 801.4 401.035 778C441.023 758.3 474.028 716.1 495.745 668.8C504.45 649.9 511.434 630.2 516.409 610.9C533.724 543.1 532.481 480 533.533 426.9C533.82 413.2 534.298 400 535.064 387.2C537.264 350.3 541.76 317.1 556.971 279.2C561.659 267.6 567.59 255.6 574.765 243.2C599.16 200.9 635.609 156.2 683.634 131.8C734.242 106.3 787.05 106.9 838.518 90.6001C923.662 63.8001 999.143 -6.99991 1071.18 -64.7999C1077.88 -70.1999 1084.67 -75.4999 1091.56 -80.6999C1157.66 -131.3 1223.19 -169.5 1302.41 -197.8C1308.05 -199.8 1313.79 -201.8 1319.63 -203.7C1432.7 -240.7 1560.42 -255 1627.19 -235" stroke="#F2E5D5" stroke-miterlimit="10"/>
<path d="M-218.694 922.7C-155.267 870 -73.9503 823.7 6.12269 796.1C84.5694 769 161.294 762.7 222.712 775.5C239.645 779 256.1 783.9 272.459 788.9C314.456 801.8 356.454 813.8 406.105 792.3C447.816 774.2 481.969 731.6 503.781 683.5C512.486 664.3 519.279 644.2 523.775 624.4C539.56 555.1 534.585 490.2 531.524 434.6C530.759 420.3 530.089 406.4 529.802 392.8C528.845 353.6 530.28 317.6 543.387 277C547.405 264.6 552.762 251.7 559.459 238.7C582.227 193.9 618.581 147.7 667.562 123.8C719.318 98.8001 773.656 102.4 826.56 87.9001C913.999 63.9001 991.011 -7.39988 1062.86 -67.9999C1069.55 -73.5999 1076.35 -79.1999 1083.14 -84.6999C1148.86 -138.1 1213.91 -181.3 1293.7 -211.6C1299.44 -213.8 1305.18 -215.9 1311.02 -217.9C1425.05 -257 1555.73 -266 1625.95 -236.5" stroke="#F2E5D5" stroke-miterlimit="10"/>
<path d="M-229.217 912.4C-166.651 856.4 -84.8563 809.2 -3.15695 783.3C77.1074 757.9 156.702 755.6 220.32 774.2C237.827 779.3 254.952 786 271.98 792.7C315.7 810 359.42 826.3 411.271 806.6C454.799 790 490.1 747.2 511.817 698.3C520.522 678.8 527.028 658.3 531.141 638.1C545.396 567.3 536.881 500.6 529.515 442.6C527.697 427.7 525.975 413 524.54 398.7C520.427 357.3 518.896 318.3 529.802 275C533.15 261.8 537.934 248.1 544.152 234.3C565.39 187.1 601.552 139.2 651.586 115.9C704.489 91.3999 760.359 98 814.793 85.2C904.528 64.1 983.071 -7.80007 1054.73 -71.1001C1061.42 -77.0001 1068.12 -82.9001 1074.91 -88.6001C1140.25 -144.9 1204.73 -193 1285.19 -225.3C1290.93 -227.6 1296.76 -229.8 1302.69 -231.9C1417.68 -273 1551.33 -276.8 1624.99 -237.9" stroke="#F2E5D5" stroke-miterlimit="10"/>
<path d="M-239.741 902.1C-178.131 842.7 -95.6667 794.6 -12.4367 770.5C69.6453 746.7 152.11 748.5 218.024 772.9C236.105 779.6 253.899 788 271.502 796.5C316.944 818.2 362.385 838.8 416.341 820.9C461.687 805.9 498.136 762.8 519.757 713.1C528.367 693.2 534.777 672.3 538.316 651.7C550.944 579.3 538.699 510.9 527.315 450.5C524.445 434.9 521.575 419.6 519.087 404.5C511.817 360.8 507.32 318.9 516.026 272.9C518.705 258.9 522.914 244.4 528.75 229.9C548.361 180.2 584.428 130.8 635.514 108C689.565 84 746.965 93.5 802.835 82.5C894.77 64.1 974.939 -8.30001 1046.4 -74.2C1053.1 -80.3 1059.8 -86.5 1066.49 -92.5C1131.55 -151.6 1195.45 -204.6 1276.38 -239C1282.22 -241.5 1288.06 -243.8 1293.99 -246C1409.94 -289.2 1546.45 -287.7 1623.65 -239.3" stroke="#F2E5D5" stroke-miterlimit="10"/>
<path d="M-250.36 891.8C-189.611 829.1 -106.668 780.1 -21.8119 757.7C62.1834 735.6 147.422 741.4 215.537 771.6C234.288 779.9 252.56 790.1 270.928 800.2C317.996 826.3 365.255 851.1 421.412 835.1C468.575 821.6 506.172 778.3 527.697 727.7C536.307 707.5 542.43 686.2 545.587 665.2C556.684 591.3 540.708 521.2 525.21 458.2C521.288 442 517.27 426 513.73 410.1C503.302 364.2 495.84 319.4 502.346 270.7C504.355 255.9 508.086 240.6 513.347 225.4C531.428 173.3 567.303 122.3 619.346 100C674.546 76.5 733.572 89 790.876 79.7C885.204 64.2 966.807 -8.79998 1038.08 -77.4C1044.78 -83.8 1051.38 -90.2 1058.07 -96.6C1122.74 -158.5 1186.17 -216.5 1267.68 -252.9C1273.51 -255.5 1279.45 -258 1285.47 -260.3C1402.47 -305.6 1541.86 -298.8 1622.51 -241" stroke="#F2E5D5" stroke-miterlimit="10"/>
<path d="M-260.883 881.6C-201.091 815.5 -117.574 765.6 -31.0917 745C54.7213 724.5 142.83 734.2 213.145 770.4C232.47 780.3 251.412 792.3 270.354 804.1C319.048 834.6 368.221 863.7 426.482 849.5C475.463 837.6 514.113 794 535.638 742.6C544.248 722.1 550.083 700.4 552.858 678.9C562.424 603.5 542.717 531.6 523.105 466.2C518.131 449.4 512.965 432.7 508.373 416C494.788 367.8 484.36 320.1 488.57 268.7C489.909 253.1 493.066 237 497.849 221C514.304 166.4 550.083 113.9 603.178 92.1001C659.526 69.1001 720.083 84.6001 778.918 77.1001C875.541 64.5001 958.676 -9.09988 1029.76 -80.3999C1036.36 -86.9999 1042.96 -93.6999 1049.65 -100.4C1113.94 -165.2 1176.89 -228.1 1258.97 -266.5C1264.9 -269.2 1270.84 -271.8 1276.86 -274.3C1394.82 -321.7 1537.17 -309.6 1621.26 -242.3" stroke="#F2E5D5" stroke-miterlimit="10"/>
<path d="M-271.406 871.3C-212.571 801.9 -128.48 751.2 -40.3714 732.2C47.2593 713.5 138.238 727.1 210.849 769.1C230.844 780.6 250.36 794.4 269.971 807.9C320.292 842.9 371.282 876.1 431.744 863.8C482.543 853.4 522.34 809.6 543.769 757.4C552.284 736.6 558.024 714.4 560.224 692.6C568.26 615.7 544.822 542 521.096 474.1C514.974 456.7 508.851 439.2 503.111 421.8C486.369 371.3 472.88 320.7 474.985 266.6C475.655 250.1 478.238 233.2 482.543 216.6C497.467 159.5 533.055 105.4 587.202 84.2C644.698 61.7 706.881 80.2 767.055 74.4C865.975 64.7 950.64 -9.50002 1021.53 -83.5C1028.13 -90.4 1034.73 -97.3 1041.33 -104.3C1105.33 -171.9 1167.61 -239.8 1250.36 -280.1C1256.29 -283 1262.32 -285.7 1268.35 -288.2C1387.26 -337.7 1532.48 -320.3 1620.11 -243.5" stroke="#F2E5D5" stroke-miterlimit="10"/>
<path d="M-282.025 861C-224.051 788.2 -139.482 736.6 -49.7467 719.4C39.7973 702.4 133.551 720.1 208.362 767.8C228.93 780.9 249.02 796.4 269.302 811.7C321.344 851 374.057 888.6 436.623 878.1C489.239 869.3 530.185 825.2 551.614 772.1C560.128 751 565.581 728.4 567.399 706.1C573.809 627.7 546.735 552.2 518.896 481.9C511.721 463.8 504.45 445.7 497.658 427.5C477.759 374.8 461.209 321.2 461.209 264.4C461.209 247.1 463.218 229.4 467.045 212C480.342 152.5 515.835 96.8 570.939 76.1C629.582 54.1 693.296 75.6 755.001 71.5C856.217 64.7 942.412 -10.1 1013.11 -86.8C1019.71 -93.9 1026.22 -101.1 1032.82 -108.4C1096.44 -178.9 1158.24 -251.7 1241.56 -294C1247.49 -297 1253.62 -299.9 1259.74 -302.5C1379.61 -354.1 1527.8 -331.4 1618.97 -245.2" stroke="#F2E5D5" stroke-miterlimit="10"/>
<path d="M-292.549 850.8C-235.531 774.7 -150.388 722.2 -59.0264 706.7C32.3353 691.3 128.959 713.1 205.97 766.5C281.547 818.9 351.766 904.4 441.789 892.4C517.844 882.3 569.791 799.7 574.765 719.7C579.74 639.7 548.84 562.5 516.887 489.7C484.934 416.9 450.494 342.3 447.624 262.3C444.659 182.2 482.543 94.3 555.058 68.2C614.85 46.7 680.19 71.3 743.33 68.9C846.841 64.9 934.568 -10.4 1005.07 -89.8C1075.58 -169.2 1140.63 -258.8 1233.05 -307.6C1356.55 -372.8 1518.42 -347.1 1617.91 -246.5" stroke="#F2E5D5" stroke-miterlimit="10"/>
<path d="M-295.514 843.2C-238.784 766 -153.641 712.2 -61.8006 695.6C-54.0516 694.2 -46.3026 693.1 -38.5536 692.2C46.207 682.8 134.029 704.4 205.683 752.8C218.598 761.5 231.226 771.2 243.95 781.1C306.612 830.6 368.604 888.8 443.893 878.3C518.609 868.1 569.886 787.6 575.722 709.2C578.688 669.2 572.661 629.9 562.137 591.5C551.997 554.6 537.742 518.4 523.105 483.3C493.353 411.6 461.113 338.1 459.009 259.5C456.808 180.9 493.831 95.2 563.668 67.6C622.025 44.6 686.026 64.8 748.496 60.4C804.27 56.5 856.025 33 903.285 0.799988C942.986 -26.2 979.34 -59.3 1012.15 -92.7C1045.73 -127 1077.97 -163 1112.13 -196C1151.06 -233.7 1192.68 -267.6 1241.75 -290.7C1279.06 -308.2 1319.82 -317.9 1361.34 -320.5C1457.1 -326.3 1557.84 -294.6 1626.81 -231.8" stroke="#F2E5D5" stroke-miterlimit="10"/>
<path d="M-298.384 835.7C-241.941 757.3 -156.702 702.3 -64.4793 684.6C-56.7303 683.1 -48.9813 681.9 -41.1366 680.9C44.1024 670.5 132.785 691.3 205.396 739.2C218.503 747.8 231.322 757.4 244.141 767.3C307.473 816.6 370.23 875.2 446.094 864.3C519.566 853.8 569.982 775.5 576.774 698.7C580.218 659.6 575.052 621 565.39 583.2C556.206 546.9 542.908 511.3 529.419 476.7C501.772 406 471.828 333.7 470.489 256.5C469.149 179.3 505.216 95.9001 572.469 66.9001C629.487 42.3001 692.053 58.2001 753.949 51.8001C809.244 46.1001 861 22.5001 908.833 -8.3999C949.109 -34.1999 986.036 -64.9999 1019.52 -95.6999C1053.67 -127.2 1086.49 -159.8 1120.93 -189.6C1160.15 -223.6 1201.86 -253.8 1250.75 -274C1287.96 -289.3 1328.52 -297.3 1370.04 -298.9C1465.71 -302.5 1567.5 -272.7 1636.09 -217.2" stroke="#F2E5D5" stroke-miterlimit="10"/>
<path d="M-301.35 828.2C-245.289 748.7 -159.955 692.5 -67.2536 673.7C-59.5046 672.1 -51.66 670.8 -43.8153 669.8C41.902 658.3 131.35 678.4 205.014 725.8C218.311 734.3 231.322 743.8 244.333 753.7C308.429 802.7 371.856 861.9 448.198 850.6C520.331 839.9 569.982 763.8 577.731 688.5C581.653 650.2 577.253 612.3 568.547 575.3C560.224 539.6 548.074 504.6 535.638 470.5C510.19 400.9 482.447 329.8 481.873 254C481.299 178.2 516.504 97.1 581.079 66.7C636.662 40.5 697.888 52.0999 759.211 43.7999C813.932 36.2999 865.783 12.4999 914.286 -16.9001C955.04 -41.6001 992.733 -70 1026.79 -98C1061.61 -126.6 1094.91 -156 1129.63 -182.5C1169.14 -212.8 1210.85 -239.2 1259.64 -256.5C1296.76 -269.6 1337.04 -275.9 1378.56 -276.5C1474.03 -277.8 1576.97 -250 1645.18 -201.8" stroke="#F2E5D5" stroke-miterlimit="10"/>
<path d="M-304.22 820.7C-248.446 740.1 -163.112 682.6 -69.9323 662.7C-62.0876 661 -54.243 659.6 -46.3026 658.5C39.9887 646 130.202 665.2 204.727 712.1C218.216 720.5 231.418 730 244.62 739.8C309.386 788.5 373.578 848.3 450.399 836.5C521.288 825.7 570.078 751.6 578.783 677.9C583.184 640.5 579.549 603.3 571.8 566.9C564.433 531.9 553.336 497.4 541.952 463.9C518.609 395.4 493.066 325.4 493.257 251C493.449 176.7 527.793 97.6999 589.785 65.8999C644.028 38.0999 703.915 45.3999 764.472 35.0999C818.62 25.7999 870.567 1.89988 919.644 -26.2001C960.972 -49.7001 999.238 -75.9001 1033.97 -101.1C1069.46 -126.9 1103.32 -153 1138.24 -176.2C1178.04 -202.7 1219.85 -225.5 1268.54 -239.8C1305.56 -250.6 1345.65 -255.3 1387.07 -254.9C1482.45 -253.9 1586.44 -228.1 1654.27 -187.3" stroke="#F2E5D5" stroke-miterlimit="10"/>
<path d="M-307.186 813.1C-251.795 731.4 -166.364 672.6 -72.7067 651.6C-64.862 649.8 -56.9217 648.3 -48.9813 647.1C37.7883 633.6 128.767 652 204.344 698.4C218.024 706.8 231.418 716.1 244.715 725.9C310.151 774.4 375.109 834.7 452.408 822.5C521.957 811.5 569.982 739.6 579.74 667.4C584.619 630.8 581.749 594.3 574.957 558.7C568.451 524.3 558.502 490.5 548.17 457.4C527.123 390 503.685 321.1 504.737 248.2C505.79 175.3 539.177 98.4 598.491 65.4C651.394 35.9 709.847 39 769.83 26.7C823.499 15.6 875.446 -8.50004 925.097 -35.2C966.903 -57.6 1005.84 -81.4 1041.24 -103.9C1077.3 -126.9 1111.74 -149.7 1146.95 -169.6C1187.03 -192.4 1228.93 -211.5 1277.44 -222.9C1314.36 -231.5 1354.26 -234.5 1395.68 -233.1C1490.96 -229.8 1596.01 -206.1 1663.36 -172.5" stroke="#F2E5D5" stroke-miterlimit="10"/>
<path d="M-310.056 805.6C-254.952 722.8 -169.426 662.8 -75.3853 640.6C-67.445 638.7 -59.5046 637.1 -51.5643 635.8C35.6837 621.3 127.524 638.9 204.057 684.8C217.929 693.1 231.513 702.3 245.002 712.1C311.108 760.3 376.831 821.2 454.608 808.5C522.818 797.4 570.078 727.5 580.792 656.9C586.15 621.1 584.141 585.4 578.209 550.5C572.661 516.7 563.668 483.5 554.484 450.9C535.542 384.6 514.4 316.8 516.217 245.3C518.035 173.8 550.562 98.9999 607.292 64.7999C658.856 33.5999 715.874 32.4999 775.283 18.2999C828.378 5.49987 880.42 -18.8001 930.645 -44.1001C973.026 -65.3001 1012.54 -86.8001 1048.6 -106.6C1085.34 -126.8 1120.26 -146.2 1155.75 -162.9C1196.12 -182 1238.12 -197.3 1286.43 -205.8C1323.26 -212.2 1362.96 -213.5 1404.29 -211C1499.48 -205.5 1605.57 -183.7 1672.54 -157.4" stroke="#F2E5D5" stroke-miterlimit="10"/>
<path d="M-313.021 798.1C-258.3 714.2 -172.678 652.9 -78.1597 629.6C-70.2194 627.6 -62.1834 626 -54.1474 624.5C33.5789 609 126.184 625.8 203.77 671.1C217.833 679.3 231.609 688.5 245.194 698.2C311.969 746.1 378.457 807.6 456.713 794.5C523.679 783.3 570.078 715.5 581.749 646.4C587.585 611.5 586.245 576.5 581.366 542.2C576.583 509.1 568.834 476.4 560.702 444.3C543.961 379 525.019 312.4 527.602 242.4C530.185 172.3 561.85 99.5001 615.902 64.1001C666.127 31.2001 721.805 25.9001 780.449 9.70013C833.065 -4.89987 885.204 -29.3999 935.907 -53.2999C978.861 -73.3999 1018.95 -92.5999 1055.68 -109.6C1092.99 -126.9 1128.48 -143.1 1164.26 -156.5C1205.02 -171.9 1247.01 -183.5 1295.14 -189.1C1331.78 -193.2 1371.38 -192.8 1412.71 -189.4C1507.71 -181.6 1614.85 -161.8 1681.53 -142.9" stroke="#F2E5D5" stroke-miterlimit="10"/>
<path d="M-315.891 790.5C-261.457 705.4 -175.835 642.9 -80.8384 618.5C-72.898 616.4 -64.862 614.7 -56.7304 613.2C31.4743 596.7 124.941 612.7 203.483 657.5C217.737 665.6 231.705 674.7 245.481 684.4C313.021 732.1 380.179 794.2 458.913 780.5C524.54 769.2 570.173 703.4 582.801 635.9C589.02 601.8 588.541 567.5 584.619 534C580.792 501.5 574.096 469.4 566.921 437.9C552.379 373.7 535.542 308.2 538.986 239.6C542.334 171 573.139 100.1 624.608 63.6001C673.493 28.9001 727.736 19.5001 785.806 1.40005C837.849 -14.9999 890.083 -39.7 941.456 -62.2C984.888 -81.1 1025.64 -97.9999 1063.05 -112.4C1100.93 -126.9 1137 -139.8 1173.06 -149.9C1214.11 -161.5 1256.2 -169.4 1304.13 -172.1C1340.67 -174 1380.09 -171.9 1421.32 -167.5C1516.22 -157.4 1624.42 -139.6 1690.72 -128" stroke="#F2E5D5" stroke-miterlimit="10"/>
<path d="M-318.857 783C-264.805 696.8 -179.088 633.1 -83.6127 607.5C-75.5767 605.4 -67.5407 603.5 -59.4091 601.9C29.2739 584.4 123.506 599.6 203.1 643.9C217.546 651.9 231.705 660.9 245.672 670.6C313.882 718 381.806 780.7 461.113 766.6C525.497 755.2 570.269 691.5 583.949 625.5C590.646 592.3 591.029 558.7 587.967 525.9C585.002 494 579.453 462.5 573.33 431.5C560.894 368.4 546.352 304.1 550.562 236.9C554.771 169.7 584.619 100.7 633.409 63.1999C680.955 26.6999 733.763 13.1999 791.163 -6.9001C842.728 -25.1001 894.962 -49.9001 946.909 -71.1001C990.915 -88.9001 1032.24 -103.5 1070.32 -115.1C1108.87 -126.8 1145.42 -136.4 1181.77 -143.2C1223.1 -151.1 1265.29 -155.3 1313.03 -155.1C1349.47 -154.8 1388.7 -151 1429.83 -145.6C1524.64 -133.2 1633.89 -117.4 1699.81 -113.2" stroke="#F2E5D5" stroke-miterlimit="10"/>
<path d="M-321.823 775.5C-268.058 688.2 -182.245 623.2 -86.387 596.5C-78.351 594.3 -70.2193 592.3 -62.0876 590.6C27.0737 572.1 122.071 586.5 202.718 630.3C217.355 638.2 231.705 647.2 245.768 656.8C314.648 703.9 383.336 767.3 463.122 752.7C526.167 741.2 570.365 679.5 584.81 615.2C592.081 582.8 593.133 549.9 591.029 517.8C589.02 486.6 584.428 455.6 579.453 425.1C569.217 363.1 556.876 299.9 561.85 234.1C566.825 168.3 595.716 101.1 642.019 62.5999C688.13 24.1999 739.695 6.69991 796.425 -15.4001C847.415 -35.4001 899.745 -60.4001 952.266 -80.1001C996.751 -96.7001 1038.75 -109 1077.49 -117.9C1116.62 -126.8 1153.74 -133 1190.38 -136.6C1232 -140.8 1274.18 -141.3 1321.92 -138.1C1358.28 -135.6 1397.31 -130.1 1438.44 -123.7C1533.15 -109.1 1643.46 -95.2001 1708.99 -98.3001" stroke="#F2E5D5" stroke-miterlimit="10"/>
<path d="M-324.693 768C-271.311 679.6 -185.402 613.3 -89.0656 585.5C-80.934 583.2 -72.8023 581.1 -64.575 579.3C25.0647 559.8 120.923 573.4 202.526 616.6C217.355 624.4 231.896 633.3 246.15 642.9C315.7 689.8 385.154 753.7 465.418 738.6C527.219 727 570.556 667.4 585.958 604.6C593.707 573.1 595.525 540.9 594.377 509.5C593.229 478.9 589.785 448.5 585.863 418.6C577.827 357.7 567.686 295.6 573.426 231.3C579.166 167 607.101 101.5 650.82 62.0999C695.592 21.6999 745.722 0.299858 801.878 -23.7001C852.294 -45.5001 904.72 -70.6001 957.815 -89.0001C1002.87 -104.5 1045.45 -114.5 1084.86 -120.6C1124.56 -126.7 1162.35 -129.6 1199.18 -129.9C1241.08 -130.3 1283.37 -127.1 1330.91 -121.1C1367.17 -116.3 1406.01 -109.2 1447.05 -101.8C1541.57 -84.9001 1653.02 -73.0001 1718.17 -83.4001" stroke="#F2E5D5" stroke-miterlimit="10"/>
<path d="M-327.658 760.4C-274.563 670.9 -188.655 603.3 -91.84 574.4C-83.7083 572 -75.481 569.8 -67.2537 567.9C22.8643 547.4 119.488 560.2 202.144 602.9C217.163 610.7 231.896 619.4 246.246 629C316.465 675.6 386.685 740.2 467.427 724.6C527.889 712.9 570.46 655.3 586.819 594.1C595.047 563.4 597.63 532 597.438 501.2C597.247 471.2 594.855 441.4 591.985 412C586.15 352.2 578.114 291.2 584.715 228.3C591.316 165.4 618.198 101.7 659.43 61.3999C702.672 18.9999 751.557 -6.30003 807.044 -32.3C856.982 -55.8 909.503 -81.2 963.172 -98.2C1008.71 -112.5 1051.95 -120.3 1092.13 -123.6C1132.5 -126.9 1170.77 -126.5 1207.79 -123.5C1249.98 -120.2 1292.36 -113.3 1339.72 -104.3C1375.88 -97.3 1414.53 -88.4001 1455.47 -80.1001C1549.9 -60.9001 1662.4 -51 1727.17 -68.8" stroke="#F2E5D5" stroke-miterlimit="10"/>
<path d="M-330.528 752.9C-277.72 662.3 -191.812 593.5 -94.5186 563.4C-86.387 560.9 -78.064 558.6 -69.8367 556.7C20.7597 535.2 118.244 547.2 201.761 589.4C216.972 597.1 231.896 605.8 246.437 615.3C317.326 661.6 388.311 726.9 469.532 710.7C528.75 698.9 570.46 643.4 587.776 583.7C596.482 553.9 599.926 523.1 600.595 493.1C601.265 463.8 600.021 434.5 598.204 405.6C594.473 346.8 588.733 287 596.099 225.5C603.465 164 629.295 102 668.04 60.7999C709.847 16.3999 757.489 -12.8001 812.306 -40.7001C861.67 -66.0001 914.286 -91.5001 968.529 -107.1C1014.64 -120.3 1058.46 -125.7 1099.31 -126.3C1140.25 -126.9 1179.09 -123.1 1216.4 -116.8C1258.88 -109.8 1301.35 -99.2001 1348.52 -87.2001C1384.58 -78.0001 1423.04 -67.4001 1463.99 -58.1001C1558.31 -36.6001 1671.87 -28.8001 1736.16 -53.8001" stroke="#F2E5D5" stroke-miterlimit="10"/>
<path d="M-333.494 745.4C-281.069 653.6 -194.969 583.6 -97.293 552.5C-89.0657 549.9 -80.8383 547.5 -72.4197 545.5C18.655 523 116.905 534.2 201.474 575.9C216.876 583.5 231.992 592.1 246.724 601.6C318.379 647.7 390.033 713.6 471.732 696.9C529.706 685.1 570.556 631.5 588.924 573.4C598.108 544.4 602.317 514.4 603.944 485.1C605.57 456.4 605.283 427.7 604.613 399.3C603.083 341.6 599.543 282.9 607.675 222.9C615.806 162.9 640.584 102.4 676.937 60.5C717.213 14 763.611 -19 817.854 -48.9C866.74 -76 919.357 -101.7 974.174 -115.9C1020.86 -127.9 1065.25 -131.1 1106.77 -128.9C1148.29 -126.7 1187.7 -119.5 1225.3 -110C1268.06 -99.3 1310.63 -84.9 1357.61 -70.1C1393.58 -58.6 1431.84 -46.4 1472.69 -36.1C1566.92 -12.4 1681.53 -6.49996 1745.44 -38.8" stroke="#F2E5D5" stroke-miterlimit="10"/>
<path d="M-336.364 737.8C-284.321 645 -198.126 573.7 -100.067 541.4C-91.84 538.7 -83.517 536.3 -75.0983 534.1C16.4546 510.6 115.565 520.9 201.091 562.1C216.685 569.6 231.992 578.1 246.82 587.5C319.144 633.3 391.564 699.9 473.741 682.6C530.376 670.7 570.46 619.2 589.785 562.6C599.352 534.4 604.422 505.1 607.005 476.5C609.588 448.4 610.353 420.4 610.736 392.5C611.406 335.9 610.066 278.3 618.963 219.7C627.86 161.1 651.49 102.3 685.452 59.5C724.101 10.9 769.351 -25.9 822.925 -57.8C871.236 -86.7 923.949 -112.5 979.34 -125.4C1026.5 -136.2 1071.56 -137.2 1113.75 -132.2C1155.94 -127.2 1195.83 -116.7 1233.72 -103.9C1276.77 -89.4 1319.43 -71.4 1366.31 -53.6C1402.19 -39.9 1440.17 -26 1481.02 -14.7C1575.06 11.3 1690.81 15.2 1754.34 -24.5" stroke="#F2E5D5" stroke-miterlimit="10"/>
<path d="M-339.33 730.3C-287.574 636.3 -201.378 563.8 -102.746 530.4C-94.423 527.6 -86.1 525.1 -77.6814 522.8C14.35 498.3 114.226 507.8 200.804 548.5C216.589 555.9 232.087 564.4 247.107 573.7C320.101 619.3 393.286 686.5 476.037 668.7C531.428 656.8 570.556 607.2 590.933 552.2C600.978 524.9 606.909 496.3 610.353 468.4C613.797 440.9 615.711 413.5 617.146 386.1C619.92 330.6 620.781 274.2 630.539 217C640.297 159.8 662.683 102.6 694.349 59.0999C731.276 8.39994 775.474 -32.2001 828.473 -66.0001C876.307 -96.7001 929.019 -122.7 985.08 -134.2C1032.82 -143.9 1078.45 -142.6 1121.31 -134.8C1164.07 -127 1204.54 -113.2 1242.71 -97.1001C1286.05 -78.9001 1328.81 -57.1001 1375.5 -36.5001C1411.27 -20.6001 1449.06 -5.00007 1489.91 7.29993C1583.86 35.5999 1700.67 37.4999 1763.81 -9.50006" stroke="#F2E5D5" stroke-miterlimit="10"/>
<path d="M-342.2 722.8C-290.731 627.7 -204.535 553.9 -105.425 519.4C-97.1017 516.5 -88.683 513.9 -80.2644 511.5C12.2453 486 112.982 494.7 200.517 534.9C216.494 542.2 232.183 550.6 247.298 559.9C320.962 605.2 394.912 673.2 478.142 654.7C532.194 642.7 570.556 595.2 591.89 541.7C602.413 515.2 609.11 487.4 613.51 460.2C617.911 433.4 620.877 406.5 623.364 379.6C628.339 325.2 631.4 269.9 641.923 214.1C652.447 158.3 673.589 102.7 702.959 58.5001C738.164 5.60011 781.405 -38.6999 833.735 -74.4999C880.994 -106.9 933.802 -133.1 990.437 -143.2C1038.65 -151.7 1084.96 -148.2 1128.48 -137.6C1171.82 -127.1 1212.96 -109.9 1251.32 -90.4999C1294.94 -68.5999 1337.71 -43.0999 1384.3 -19.4999C1419.98 -1.39989 1457.58 15.9001 1498.33 29.2001C1592.18 59.8001 1709.95 59.7001 1772.8 5.4001" stroke="#F2E5D5" stroke-miterlimit="10"/>
<path d="M-345.165 715.3C-294.079 619 -207.692 544 -108.199 508.3C-99.876 505.3 -91.3616 502.6 -82.8473 500.2C10.1407 473.7 111.643 481.6 200.23 521.2C216.398 528.4 232.279 536.7 247.585 546C321.918 591 396.634 659.7 480.342 640.7C533.15 628.7 570.652 583.1 592.942 531.2C603.944 505.5 611.501 478.4 616.763 451.9C622.12 425.7 626.043 399.4 629.678 373.1C636.853 319.7 642.115 265.6 653.403 211.3C664.692 157 684.495 102.9 711.76 57.8999C745.148 2.79995 787.432 -45.2 839.092 -83C885.873 -117.2 938.777 -143.6 995.89 -152.3C1044.68 -159.7 1091.65 -154 1135.75 -140.5C1179.76 -127.3 1221.38 -106.6 1260.03 -84C1303.94 -58.3 1346.8 -29.2001 1393.19 -2.70006C1428.78 17.6999 1466.19 36.6999 1506.94 50.8999C1600.69 83.6999 1719.51 81.7 1781.98 20" stroke="#F2E5D5" stroke-miterlimit="10"/>
<path d="M-348.035 707.7C-297.236 610.4 -210.849 534.1 -110.878 497.3C-102.459 494.2 -94.0403 491.4 -85.4303 488.9C8.03605 461.4 110.399 468.5 199.943 507.6C216.302 514.8 232.374 523 247.872 532.2C322.971 577 398.452 646.4 482.543 626.7C534.107 614.7 570.747 571.1 594.09 520.8C605.474 496 613.893 469.6 620.111 443.8C626.33 418.3 631.4 392.5 636.088 366.7C645.463 314.4 652.925 261.4 664.979 208.5C677.129 155.6 695.497 103.1 720.561 57.4001C752.036 0.100101 793.459 -51.5999 844.545 -91.2999C890.752 -127.3 943.752 -153.8 1001.44 -161.2C1050.71 -167.4 1098.35 -159.4 1143.12 -143.2C1187.8 -127.2 1229.89 -103.2 1268.83 -77.2999C1313.03 -47.8999 1355.98 -14.9999 1402.19 14.4001C1437.68 37.0001 1474.89 57.7001 1515.55 72.9001C1609.11 108 1729.08 104 1791.17 35.0001" stroke="#F2E5D5" stroke-miterlimit="10"/>
<path d="M-351.001 700.2C-300.585 601.7 -214.102 524.2 -113.652 486.3C-105.233 483.1 -96.719 480.2 -88.109 477.6C5.83565 449.1 108.964 455.4 199.561 494C216.111 501.1 232.374 509.2 247.968 518.4C323.736 562.9 399.982 633.2 484.552 612.8C534.872 600.8 570.652 559.1 594.951 510.4C606.814 486.4 615.998 460.7 623.173 435.7C630.348 410.8 636.47 385.6 642.115 360.3C653.595 309.1 663.257 257.2 676.172 205.8C689.087 154.3 706.02 103.4 729.076 57C758.541 -2.50002 799.295 -57.9 849.711 -99.6C895.344 -137.4 948.439 -164.1 1006.8 -170.1C1056.64 -175.2 1104.85 -164.9 1150.3 -145.9C1195.55 -127.1 1238.21 -99.8 1277.44 -70.6C1321.92 -37.5 1364.97 -0.900021 1410.99 31.4C1446.29 56.2 1483.41 78.6 1523.97 94.8C1617.44 132.2 1738.45 126.1 1800.16 49.8" stroke="#F2E5D5" stroke-miterlimit="10"/>
<path d="M-353.967 692.7C-299.628 584.8 -202.526 501.3 -90.7877 466.3C20.951 431.4 145.987 445.5 248.064 504.6C324.501 548.8 401.513 619.8 486.561 598.8C559.554 580.8 601.648 501.5 626.33 427.4C667.084 304.8 685.547 174.1 737.781 56.3C790.015 -61.5 888.361 -169.5 1012.15 -179.2C1112.6 -187 1206.83 -129.3 1286.05 -64.1C1365.26 1.09996 1439.21 77 1532.48 116.6C1625.76 156.2 1747.93 148.2 1809.15 64.6" stroke="#F2E5D5" stroke-miterlimit="10"/>
</g>
<mask id="mask1_226_842" style="mask-type:luminance" maskUnits="userSpaceOnUse" x="124" y="0" width="1149" height="800">
<path d="M1272.84 0H124.845V800H1272.84V0Z" fill="white"/>
</mask>
<g mask="url(#mask1_226_842)">
<path d="M211.902 333C212.958 333 213.815 332.105 213.815 331C213.815 329.895 212.958 329 211.902 329C210.845 329 209.988 329.895 209.988 331C209.988 332.105 210.845 333 211.902 333Z" fill="#D9CAB8"/>
<path d="M211.902 310C212.958 310 213.815 309.105 213.815 308C213.815 306.895 212.958 306 211.902 306C210.845 306 209.988 306.895 209.988 308C209.988 309.105 210.845 310 211.902 310Z" fill="#D9CAB8"/>
<path d="M211.902 287C212.958 287 213.815 286.105 213.815 285C213.815 283.895 212.958 283 211.902 283C210.845 283 209.988 283.895 209.988 285C209.988 286.105 210.845 287 211.902 287Z" fill="#D9CAB8"/>
<path d="M211.902 264C212.958 264 213.815 263.105 213.815 262C213.815 260.895 212.958 260 211.902 260C210.845 260 209.988 260.895 209.988 262C209.988 263.105 210.845 264 211.902 264Z" fill="#D9CAB8"/>
<path d="M211.902 241C212.958 241 213.815 240.105 213.815 239C213.815 237.895 212.958 237 211.902 237C210.845 237 209.988 237.895 209.988 239C209.988 240.105 210.845 241 211.902 241Z" fill="#D9CAB8"/>
<path d="M235.818 333C236.875 333 237.732 332.105 237.732 331C237.732 329.895 236.875 329 235.818 329C234.762 329 233.905 329.895 233.905 331C233.905 332.105 234.762 333 235.818 333Z" fill="#D9CAB8"/>
<path d="M235.818 310C236.875 310 237.732 309.105 237.732 308C237.732 306.895 236.875 306 235.818 306C234.762 306 233.905 306.895 233.905 308C233.905 309.105 234.762 310 235.818 310Z" fill="#D9CAB8"/>
<path d="M235.818 287C236.875 287 237.732 286.105 237.732 285C237.732 283.895 236.875 283 235.818 283C234.762 283 233.905 283.895 233.905 285C233.905 286.105 234.762 287 235.818 287Z" fill="#D9CAB8"/>
<path d="M235.818 264C236.875 264 237.732 263.105 237.732 262C237.732 260.895 236.875 260 235.818 260C234.762 260 233.905 260.895 233.905 262C233.905 263.105 234.762 264 235.818 264Z" fill="#D9CAB8"/>
<path d="M235.818 241C236.875 241 237.732 240.105 237.732 239C237.732 237.895 236.875 237 235.818 237C234.762 237 233.905 237.895 233.905 239C233.905 240.105 234.762 241 235.818 241Z" fill="#D9CAB8"/>
<path d="M259.735 333C260.792 333 261.648 332.105 261.648 331C261.648 329.895 260.792 329 259.735 329C258.678 329 257.822 329.895 257.822 331C257.822 332.105 258.678 333 259.735 333Z" fill="#D9CAB8"/>
<path d="M259.735 310C260.792 310 261.648 309.105 261.648 308C261.648 306.895 260.792 306 259.735 306C258.678 306 257.822 306.895 257.822 308C257.822 309.105 258.678 310 259.735 310Z" fill="#D9CAB8"/>
<path d="M259.735 287C260.792 287 261.648 286.105 261.648 285C261.648 283.895 260.792 283 259.735 283C258.678 283 257.822 283.895 257.822 285C257.822 286.105 258.678 287 259.735 287Z" fill="#D9CAB8"/>
<path d="M259.735 264C260.792 264 261.648 263.105 261.648 262C261.648 260.895 260.792 260 259.735 260C258.678 260 257.822 260.895 257.822 262C257.822 263.105 258.678 264 259.735 264Z" fill="#D9CAB8"/>
<path d="M259.735 241C260.792 241 261.648 240.105 261.648 239C261.648 237.895 260.792 237 259.735 237C258.678 237 257.822 237.895 257.822 239C257.822 240.105 258.678 241 259.735 241Z" fill="#D9CAB8"/>
<path d="M283.652 333C284.708 333 285.565 332.105 285.565 331C285.565 329.895 284.708 329 283.652 329C282.595 329 281.738 329.895 281.738 331C281.738 332.105 282.595 333 283.652 333Z" fill="#D9CAB8"/>
<path d="M283.652 310C284.708 310 285.565 309.105 285.565 308C285.565 306.895 284.708 306 283.652 306C282.595 306 281.738 306.895 281.738 308C281.738 309.105 282.595 310 283.652 310Z" fill="#D9CAB8"/>
<path d="M283.652 287C284.708 287 285.565 286.105 285.565 285C285.565 283.895 284.708 283 283.652 283C282.595 283 281.738 283.895 281.738 285C281.738 286.105 282.595 287 283.652 287Z" fill="#D9CAB8"/>
<path d="M283.652 264C284.708 264 285.565 263.105 285.565 262C285.565 260.895 284.708 260 283.652 260C282.595 260 281.738 260.895 281.738 262C281.738 263.105 282.595 264 283.652 264Z" fill="#D9CAB8"/>
<path d="M283.652 241C284.708 241 285.565 240.105 285.565 239C285.565 237.895 284.708 237 283.652 237C282.595 237 281.738 237.895 281.738 239C281.738 240.105 282.595 241 283.652 241Z" fill="#D9CAB8"/>
<path d="M307.568 333C308.625 333 309.482 332.105 309.482 331C309.482 329.895 308.625 329 307.568 329C306.512 329 305.655 329.895 305.655 331C305.655 332.105 306.512 333 307.568 333Z" fill="#D9CAB8"/>
<path d="M307.568 310C308.625 310 309.482 309.105 309.482 308C309.482 306.895 308.625 306 307.568 306C306.512 306 305.655 306.895 305.655 308C305.655 309.105 306.512 310 307.568 310Z" fill="#D9CAB8"/>
<path d="M307.568 287C308.625 287 309.482 286.105 309.482 285C309.482 283.895 308.625 283 307.568 283C306.512 283 305.655 283.895 305.655 285C305.655 286.105 306.512 287 307.568 287Z" fill="#D9CAB8"/>
<path d="M307.568 264C308.625 264 309.482 263.105 309.482 262C309.482 260.895 308.625 260 307.568 260C306.512 260 305.655 260.895 305.655 262C305.655 263.105 306.512 264 307.568 264Z" fill="#D9CAB8"/>
<path d="M307.568 241C308.625 241 309.482 240.105 309.482 239C309.482 237.895 308.625 237 307.568 237C306.512 237 305.655 237.895 305.655 239C305.655 240.105 306.512 241 307.568 241Z" fill="#D9CAB8"/>
<path d="M331.485 333C332.542 333 333.398 332.105 333.398 331C333.398 329.895 332.542 329 331.485 329C330.428 329 329.572 329.895 329.572 331C329.572 332.105 330.428 333 331.485 333Z" fill="#D9CAB8"/>
<path d="M331.485 310C332.542 310 333.398 309.105 333.398 308C333.398 306.895 332.542 306 331.485 306C330.428 306 329.572 306.895 329.572 308C329.572 309.105 330.428 310 331.485 310Z" fill="#D9CAB8"/>
<path d="M331.485 287C332.542 287 333.398 286.105 333.398 285C333.398 283.895 332.542 283 331.485 283C330.428 283 329.572 283.895 329.572 285C329.572 286.105 330.428 287 331.485 287Z" fill="#D9CAB8"/>
<path d="M331.485 264C332.542 264 333.398 263.105 333.398 262C333.398 260.895 332.542 260 331.485 260C330.428 260 329.572 260.895 329.572 262C329.572 263.105 330.428 264 331.485 264Z" fill="#D9CAB8"/>
<path d="M331.485 241C332.542 241 333.398 240.105 333.398 239C333.398 237.895 332.542 237 331.485 237C330.428 237 329.572 237.895 329.572 239C329.572 240.105 330.428 241 331.485 241Z" fill="#D9CAB8"/>
<path d="M355.402 333C356.458 333 357.315 332.105 357.315 331C357.315 329.895 356.458 329 355.402 329C354.345 329 353.488 329.895 353.488 331C353.488 332.105 354.345 333 355.402 333Z" fill="#D9CAB8"/>
<path d="M355.402 310C356.458 310 357.315 309.105 357.315 308C357.315 306.895 356.458 306 355.402 306C354.345 306 353.488 306.895 353.488 308C353.488 309.105 354.345 310 355.402 310Z" fill="#D9CAB8"/>
<path d="M355.402 287C356.458 287 357.315 286.105 357.315 285C357.315 283.895 356.458 283 355.402 283C354.345 283 353.488 283.895 353.488 285C353.488 286.105 354.345 287 355.402 287Z" fill="#D9CAB8"/>
<path d="M355.402 264C356.458 264 357.315 263.105 357.315 262C357.315 260.895 356.458 260 355.402 260C354.345 260 353.488 260.895 353.488 262C353.488 263.105 354.345 264 355.402 264Z" fill="#D9CAB8"/>
<path d="M355.402 241C356.458 241 357.315 240.105 357.315 239C357.315 237.895 356.458 237 355.402 237C354.345 237 353.488 237.895 353.488 239C353.488 240.105 354.345 241 355.402 241Z" fill="#D9CAB8"/>
<path d="M379.318 333C380.375 333 381.232 332.105 381.232 331C381.232 329.895 380.375 329 379.318 329C378.262 329 377.405 329.895 377.405 331C377.405 332.105 378.262 333 379.318 333Z" fill="#D9CAB8"/>
<path d="M379.318 310C380.375 310 381.232 309.105 381.232 308C381.232 306.895 380.375 306 379.318 306C378.262 306 377.405 306.895 377.405 308C377.405 309.105 378.262 310 379.318 310Z" fill="#D9CAB8"/>
<path d="M379.318 287C380.375 287 381.232 286.105 381.232 285C381.232 283.895 380.375 283 379.318 283C378.262 283 377.405 283.895 377.405 285C377.405 286.105 378.262 287 379.318 287Z" fill="#D9CAB8"/>
<path d="M379.318 264C380.375 264 381.232 263.105 381.232 262C381.232 260.895 380.375 260 379.318 260C378.262 260 377.405 260.895 377.405 262C377.405 263.105 378.262 264 379.318 264Z" fill="#D9CAB8"/>
<path d="M379.318 241C380.375 241 381.232 240.105 381.232 239C381.232 237.895 380.375 237 379.318 237C378.262 237 377.405 237.895 377.405 239C377.405 240.105 378.262 241 379.318 241Z" fill="#D9CAB8"/>
<path d="M403.235 333C404.292 333 405.148 332.105 405.148 331C405.148 329.895 404.292 329 403.235 329C402.178 329 401.322 329.895 401.322 331C401.322 332.105 402.178 333 403.235 333Z" fill="#D9CAB8"/>
<path d="M403.235 310C404.292 310 405.148 309.105 405.148 308C405.148 306.895 404.292 306 403.235 306C402.178 306 401.322 306.895 401.322 308C401.322 309.105 402.178 310 403.235 310Z" fill="#D9CAB8"/>
<path d="M403.235 287C404.292 287 405.148 286.105 405.148 285C405.148 283.895 404.292 283 403.235 283C402.178 283 401.322 283.895 401.322 285C401.322 286.105 402.178 287 403.235 287Z" fill="#D9CAB8"/>
<path d="M403.235 264C404.292 264 405.148 263.105 405.148 262C405.148 260.895 404.292 260 403.235 260C402.178 260 401.322 260.895 401.322 262C401.322 263.105 402.178 264 403.235 264Z" fill="#D9CAB8"/>
<path d="M403.235 241C404.292 241 405.148 240.105 405.148 239C405.148 237.895 404.292 237 403.235 237C402.178 237 401.322 237.895 401.322 239C401.322 240.105 402.178 241 403.235 241Z" fill="#D9CAB8"/>
<path d="M427.152 333C428.208 333 429.065 332.105 429.065 331C429.065 329.895 428.208 329 427.152 329C426.095 329 425.238 329.895 425.238 331C425.238 332.105 426.095 333 427.152 333Z" fill="#D9CAB8"/>
<path d="M427.152 310C428.208 310 429.065 309.105 429.065 308C429.065 306.895 428.208 306 427.152 306C426.095 306 425.238 306.895 425.238 308C425.238 309.105 426.095 310 427.152 310Z" fill="#D9CAB8"/>
<path d="M427.152 287C428.208 287 429.065 286.105 429.065 285C429.065 283.895 428.208 283 427.152 283C426.095 283 425.238 283.895 425.238 285C425.238 286.105 426.095 287 427.152 287Z" fill="#D9CAB8"/>
<path d="M427.152 264C428.208 264 429.065 263.105 429.065 262C429.065 260.895 428.208 260 427.152 260C426.095 260 425.238 260.895 425.238 262C425.238 263.105 426.095 264 427.152 264Z" fill="#D9CAB8"/>
<path d="M427.152 241C428.208 241 429.065 240.105 429.065 239C429.065 237.895 428.208 237 427.152 237C426.095 237 425.238 237.895 425.238 239C425.238 240.105 426.095 241 427.152 241Z" fill="#D9CAB8"/>
<path d="M451.068 333C452.125 333 452.982 332.105 452.982 331C452.982 329.895 452.125 329 451.068 329C450.012 329 449.155 329.895 449.155 331C449.155 332.105 450.012 333 451.068 333Z" fill="#D9CAB8"/>
<path d="M451.068 310C452.125 310 452.982 309.105 452.982 308C452.982 306.895 452.125 306 451.068 306C450.012 306 449.155 306.895 449.155 308C449.155 309.105 450.012 310 451.068 310Z" fill="#D9CAB8"/>
<path d="M451.068 287C452.125 287 452.982 286.105 452.982 285C452.982 283.895 452.125 283 451.068 283C450.012 283 449.155 283.895 449.155 285C449.155 286.105 450.012 287 451.068 287Z" fill="#D9CAB8"/>
<path d="M451.068 264C452.125 264 452.982 263.105 452.982 262C452.982 260.895 452.125 260 451.068 260C450.012 260 449.155 260.895 449.155 262C449.155 263.105 450.012 264 451.068 264Z" fill="#D9CAB8"/>
<path d="M451.068 241C452.125 241 452.982 240.105 452.982 239C452.982 237.895 452.125 237 451.068 237C450.012 237 449.155 237.895 449.155 239C449.155 240.105 450.012 241 451.068 241Z" fill="#D9CAB8"/>
<path d="M474.985 333C476.042 333 476.898 332.105 476.898 331C476.898 329.895 476.042 329 474.985 329C473.928 329 473.072 329.895 473.072 331C473.072 332.105 473.928 333 474.985 333Z" fill="#D9CAB8"/>
<path d="M474.985 310C476.042 310 476.898 309.105 476.898 308C476.898 306.895 476.042 306 474.985 306C473.928 306 473.072 306.895 473.072 308C473.072 309.105 473.928 310 474.985 310Z" fill="#D9CAB8"/>
<path d="M474.985 287C476.042 287 476.898 286.105 476.898 285C476.898 283.895 476.042 283 474.985 283C473.928 283 473.072 283.895 473.072 285C473.072 286.105 473.928 287 474.985 287Z" fill="#D9CAB8"/>
<path d="M474.985 264C476.042 264 476.898 263.105 476.898 262C476.898 260.895 476.042 260 474.985 260C473.928 260 473.072 260.895 473.072 262C473.072 263.105 473.928 264 474.985 264Z" fill="#D9CAB8"/>
<path d="M474.985 241C476.042 241 476.898 240.105 476.898 239C476.898 237.895 476.042 237 474.985 237C473.928 237 473.072 237.895 473.072 239C473.072 240.105 473.928 241 474.985 241Z" fill="#D9CAB8"/>
<path d="M498.902 333C499.958 333 500.815 332.105 500.815 331C500.815 329.895 499.958 329 498.902 329C497.845 329 496.988 329.895 496.988 331C496.988 332.105 497.845 333 498.902 333Z" fill="#D9CAB8"/>
<path d="M498.902 310C499.958 310 500.815 309.105 500.815 308C500.815 306.895 499.958 306 498.902 306C497.845 306 496.988 306.895 496.988 308C496.988 309.105 497.845 310 498.902 310Z" fill="#D9CAB8"/>
<path d="M498.902 287C499.958 287 500.815 286.105 500.815 285C500.815 283.895 499.958 283 498.902 283C497.845 283 496.988 283.895 496.988 285C496.988 286.105 497.845 287 498.902 287Z" fill="#D9CAB8"/>
<path d="M498.902 264C499.958 264 500.815 263.105 500.815 262C500.815 260.895 499.958 260 498.902 260C497.845 260 496.988 260.895 496.988 262C496.988 263.105 497.845 264 498.902 264Z" fill="#D9CAB8"/>
<path d="M498.902 241C499.958 241 500.815 240.105 500.815 239C500.815 237.895 499.958 237 498.902 237C497.845 237 496.988 237.895 496.988 239C496.988 240.105 497.845 241 498.902 241Z" fill="#D9CAB8"/>
</g>
<path d="M84.2823 635.1C132.69 651.7 186.359 651.2 234.383 633.5C291.496 612.5 338.469 569.3 380.849 524.1C423.229 478.9 463.218 430.3 512.869 394.2C562.616 358.1 624.895 335.2 683.921 349.2C720.944 358 754.236 380.6 791.642 387.5C909.981 409.3 1016.75 270.7 1134.32 296.7C1184.54 307.8 1224.92 347.7 1274.09 363.4C1338.38 384 1413.95 356.6 1452.32 298.8" stroke="#62A8B2" stroke-width="2" stroke-miterlimit="10"/>
<path d="M80.2643 625.9C121.305 637.6 166.46 639 208.84 630.1C217.163 628.4 225.391 626.2 233.427 623.7C266.527 613.3 296.184 596.7 323.066 577.3C343.635 562.5 362.672 546.1 381.232 528.9C392.138 518.8 403.044 508.4 414.237 497.7C439.78 473 465.61 446.1 492.588 421.8C500.337 414.8 508.181 408.1 516.122 401.7C536.02 385.7 557.641 371.8 580.218 361.6C612.171 347.2 646.133 340.1 679.999 345.8C716.065 351.9 749.357 371.7 787.05 377.9C792.694 378.8 798.243 379.4 803.791 379.8C839.762 382.1 874.393 373 908.929 359.1C964.033 336.9 1018.56 302.2 1074.24 291.7C1093.37 288.1 1112.6 287.4 1132.22 291C1171.25 298.2 1204.63 321.8 1240.7 339.3C1251.32 344.4 1262.23 349.1 1273.51 352.5C1338.47 372.6 1413.86 349 1451.84 297.6" stroke="#69A3AE" stroke-width="2" stroke-miterlimit="10"/>
<path d="M76.2463 616.8C117.957 626.4 164.068 627.1 207.31 619.4C215.824 617.9 224.147 616.1 232.374 613.9C266.049 605 296.28 590.9 323.258 574.7C343.826 562.2 362.672 548.6 381.614 533.8C392.712 525.1 403.905 516 415.672 506.1C442.458 483.4 469.532 455.9 496.319 430.4C503.972 423.1 511.625 416 519.47 409.1C538.795 392.1 559.267 376.9 580.601 365.3C610.927 349 642.976 339.2 675.981 342.4C710.995 345.7 744.478 362.9 782.362 368.4C788.006 369.2 793.651 369.8 799.295 370.1C835.553 372.4 870.184 365.4 905.007 352.9C960.589 333.1 1016.08 298.9 1072.04 287.4C1091.17 283.5 1110.59 282.3 1130.21 285.2C1169.33 291 1203.3 312.5 1239.94 328.9C1250.75 333.7 1261.75 338.1 1273.13 341.5C1338.66 361 1413.95 341.4 1451.65 296.3" stroke="#719DAA" stroke-width="2" stroke-miterlimit="10"/>
<path d="M72.2283 607.7C114.609 615.1 161.677 615.3 205.875 608.8C214.58 607.5 223.095 606 231.418 604.2C265.762 596.7 296.567 585.2 323.545 572.1C344.113 562 362.864 551.1 381.997 538.6C393.19 531.3 404.861 523.5 417.107 514.4C445.041 493.7 473.55 465.6 499.954 438.9C507.512 431.3 515.069 423.7 522.627 416.5C541.378 398.4 560.702 382 580.888 369C609.492 350.7 639.723 337 671.867 338.9C705.733 340.9 739.408 354 777.579 358.8C783.223 359.5 788.963 360 794.607 360.4C831.152 362.7 865.783 357.8 900.797 346.8C956.858 329.4 1013.21 295.8 1069.65 283.3C1088.88 279.1 1108.3 277.4 1128.01 279.6C1167.32 284 1201.76 303.4 1238.88 318.7C1249.79 323.2 1260.98 327.4 1272.46 330.7C1338.66 349.7 1413.76 333.9 1451.17 295.2" stroke="#7898A6" stroke-width="2" stroke-miterlimit="10"/>
<path d="M68.2103 598.5C111.165 603.7 159.285 603.4 204.344 598C213.145 597 221.851 595.7 230.365 594.3C265.379 588.3 296.662 579.4 323.736 569.3C344.304 561.6 362.959 553.3 382.284 543.3C393.668 537.4 405.627 530.9 418.446 522.6C447.624 503.8 477.377 475.2 503.589 447.4C511.147 439.4 518.418 431.5 525.784 423.8C543.961 404.7 562.233 387 581.175 372.6C608.057 352.4 636.375 337.4 667.849 335.4C700.663 333.3 734.529 345 772.891 349.2C778.631 349.8 784.371 350.3 790.015 350.6C826.847 352.9 861.478 350.1 896.779 340.5C953.318 325.4 1010.53 292.4 1067.35 278.9C1086.68 274.4 1106.1 272.2 1125.81 273.7C1165.32 276.8 1200.23 294 1237.83 308.3C1248.93 312.5 1260.22 316.5 1271.79 319.7C1338.66 338.2 1413.67 326.3 1450.59 293.9" stroke="#8092A2" stroke-width="2" stroke-miterlimit="10"/>
<path d="M64.1924 589.4C107.816 592.4 156.989 591.5 202.813 587.4C211.806 586.6 220.703 585.6 229.409 584.6C265.092 580.1 296.949 573.7 324.023 566.7C344.591 561.4 363.055 555.8 382.762 548.2C394.338 543.7 406.583 538.4 419.977 531C450.303 514.2 481.395 485.1 507.416 456C514.878 447.7 522.053 439.4 529.132 431.3C546.639 411.2 563.859 392.2 581.558 376.4C606.718 354.2 633.122 336.7 663.831 332C695.592 327.2 729.554 336.2 768.203 339.7C773.943 340.2 779.779 340.6 785.519 341C822.638 343.3 857.269 342.5 892.857 334.5C949.874 321.6 1008.04 289.3 1065.15 274.9C1084.57 270.1 1103.99 267.4 1123.8 268.2C1163.5 269.9 1198.89 285 1237.07 298.2C1248.35 302.1 1259.74 305.9 1271.51 309C1338.95 327 1413.86 318.9 1450.5 292.9" stroke="#878D9E" stroke-width="2" stroke-miterlimit="10"/>
<path d="M60.1743 580.3C104.372 581.2 154.597 579.7 201.378 576.7C210.562 576.1 219.651 575.5 228.452 574.7C264.71 571.7 297.141 567.8 324.31 563.9C344.974 560.9 363.342 558.1 383.145 552.9C394.912 549.8 407.444 545.8 421.412 539.2C452.982 524.3 485.317 494.7 511.147 464.5C518.513 455.8 525.593 447.2 532.385 438.6C549.318 417.4 565.39 397.1 581.94 380C605.474 355.9 629.774 335.8 659.909 328.5C690.522 321.1 724.771 327.3 763.611 330.1C769.447 330.5 775.187 330.9 781.023 331.2C818.524 333.5 853.06 334.8 888.839 328.2C946.335 317.7 1005.36 286 1062.86 270.5C1082.28 265.3 1101.89 262.2 1121.69 262.3C1161.58 262.6 1197.46 275.6 1236.11 287.7C1247.49 291.3 1259.07 294.8 1270.93 297.9C1339.05 315.4 1413.76 311.2 1450.12 291.4" stroke="#8F8799" stroke-width="2" stroke-miterlimit="10"/>
<path d="M56.1564 571.1C101.024 569.8 152.206 567.8 199.848 566C209.223 565.6 218.407 565.3 227.4 564.9C264.327 563.4 297.236 562 324.501 561.2C345.165 560.6 363.438 560.6 383.432 557.7C395.39 556 408.21 553.3 422.751 547.6C455.469 534.7 489.144 504.5 514.782 473.1C522.149 464.1 528.941 455 535.542 446.1C551.901 423.9 566.825 402.3 582.132 383.8C603.848 357.7 626.33 335.1 655.699 325.2C685.165 315.2 719.605 318.5 758.732 320.7C764.568 321 770.404 321.3 776.335 321.7C814.123 324.1 848.659 327.4 884.725 322.3C942.699 314.1 1002.68 283 1060.47 266.6C1079.98 261.1 1099.59 257.5 1119.49 256.9C1159.58 255.8 1195.93 266.7 1235.06 277.7C1246.63 281 1258.3 284.3 1270.26 287.3C1339.05 304.3 1413.57 303.9 1449.54 290.5" stroke="#968295" stroke-width="2" stroke-miterlimit="10"/>
<path d="M52.1383 562C97.6756 558.5 149.814 555.9 198.317 555.3C207.884 555.2 217.259 555.1 226.347 555.1C263.944 555.1 297.428 556.2 324.597 558.5C345.261 560.2 363.438 563 383.719 562.4C395.869 562.1 408.975 560.6 424.09 555.8C458.052 544.8 492.97 514.1 518.418 481.5C525.688 472.1 532.385 462.7 538.699 453.3C554.484 430 568.26 407.2 582.419 387.3C602.413 359.2 622.886 334.2 651.681 321.5C679.903 309 714.726 309.4 754.14 310.9C759.976 311.1 765.907 311.4 771.839 311.8C809.914 314.2 844.45 319.6 880.707 315.9C939.16 310.1 1000 279.6 1058.17 262.1C1077.78 256.3 1097.39 252.2 1117.39 250.9C1157.57 248.4 1194.4 257.1 1234.2 267.2C1245.87 270.2 1257.73 273.3 1269.78 276.1C1339.14 292.5 1413.57 296.1 1449.25 289" stroke="#9E7D91" stroke-width="2" stroke-miterlimit="10"/>
<path d="M48.1204 552.9C94.2317 547.2 147.422 544.1 196.882 544.7C206.544 544.8 216.111 545.1 225.486 545.4C263.753 546.8 297.715 550.5 324.98 555.9C345.644 560 363.725 565.5 384.197 567.3C396.538 568.4 409.932 568.2 425.621 564.2C460.731 555.2 497.084 524 522.149 490.2C529.324 480.5 535.925 470.7 541.952 460.9C557.067 436.6 569.791 412.5 582.801 391.2C601.169 361.2 619.633 333.8 647.663 318.3C674.737 303.3 709.751 300.8 749.453 301.5C755.384 301.6 761.315 301.8 767.342 302.2C805.705 304.6 840.24 312 876.785 309.9C935.716 306.4 997.421 276.5 1055.97 258.1C1075.58 252 1095.38 247.4 1115.28 245.4C1155.65 241.5 1192.96 248.1 1233.24 257.1C1245.1 259.7 1257.06 262.7 1269.31 265.4C1339.33 281.3 1413.57 288.7 1448.97 288" stroke="#A5778D" stroke-width="2" stroke-miterlimit="10"/>
<path d="M44.1023 543.7C90.8833 535.8 145.031 532.2 195.351 533.9C205.205 534.2 214.963 534.8 224.434 535.5C263.37 538.4 297.81 544.6 325.171 553.1C345.835 559.6 363.82 567.9 384.484 572C397.112 574.5 410.697 575.6 426.96 572.4C463.218 565.3 500.911 533.6 525.784 498.6C532.959 488.6 539.273 478.4 545.109 468.2C559.65 442.9 571.226 417.5 582.993 394.8C599.639 362.8 616.093 333 643.454 314.7C669.475 297.3 704.681 291.7 744.574 291.8C750.505 291.8 756.532 292 762.559 292.4C801.208 294.8 835.744 304.3 872.576 303.7C931.985 302.6 994.646 273.2 1053.48 253.8C1073.19 247.4 1092.99 242.3 1112.99 239.6C1153.55 234.3 1191.34 238.8 1232.09 246.7C1244.05 249 1256.2 251.7 1268.54 254.4C1339.24 269.8 1413.28 281.1 1448.3 286.7" stroke="#AD7289" stroke-width="2" stroke-miterlimit="10"/>
<path d="M40.0844 534.6C87.4393 524.6 142.639 520.3 193.821 523.3C203.866 523.9 213.719 524.7 223.382 525.8C262.892 530.2 298.002 538.9 325.362 550.5C346.026 559.3 364.012 570.4 384.867 576.9C397.686 580.8 411.654 583.1 428.395 580.8C465.897 575.6 504.833 543.4 529.515 507.2C536.594 496.8 542.813 486.2 548.457 475.6C562.424 449.2 572.852 422.6 583.471 398.5C598.395 364.6 612.936 332.5 639.627 311.3C664.501 291.5 699.897 282.9 740.077 282.3C746.104 282.2 752.131 282.3 758.254 282.7C797.286 285.1 831.726 296.7 868.749 297.5C928.636 298.8 992.159 270 1051.38 249.6C1071.18 242.9 1090.98 237.2 1111.07 233.9C1151.83 227.2 1190.09 229.6 1231.42 236.5C1243.57 238.5 1255.82 241 1268.25 243.6C1339.52 258.5 1413.47 273.6 1448.2 285.6" stroke="#B46C85" stroke-width="2" stroke-miterlimit="10"/>
<path d="M36.0664 525.5C84.0911 513.3 140.247 508.5 192.386 512.6C202.622 513.4 212.667 514.5 222.425 516C262.605 521.9 298.193 533.1 325.649 547.8C346.313 558.9 364.203 572.9 385.25 581.7C398.26 587.1 412.515 590.6 429.83 589.1C468.48 585.8 508.755 553.1 533.246 515.8C540.23 505.1 546.352 494.1 551.71 483.1C565.007 455.7 574.478 427.8 583.854 402.3C597.151 366.5 609.779 332 635.609 307.9C659.43 285.7 695.018 274.1 735.39 272.8C741.417 272.6 747.539 272.7 753.662 273.1C792.981 275.5 827.421 289.2 864.731 291.5C925.192 295.1 989.48 266.9 1049.08 245.5C1068.88 238.5 1088.78 232.3 1108.97 228.3C1149.91 220.2 1188.66 220.5 1230.46 226.3C1242.81 228 1255.15 230.3 1267.68 232.8C1339.62 247.2 1413.48 266.2 1447.82 284.5" stroke="#BC6781" stroke-width="2" stroke-miterlimit="10"/>
<path d="M32.0483 516.3C80.647 501.9 137.856 496.6 190.855 501.9C201.283 502.9 211.519 504.4 221.468 506.2C262.318 513.6 298.48 527.2 325.936 545.2C346.6 558.7 364.394 575.5 385.632 586.5C398.834 593.3 413.376 598 431.265 597.4C471.063 596.1 512.678 562.8 536.977 524.3C543.961 513.2 549.796 501.9 554.962 490.4C567.686 461.9 576.009 432.8 584.141 405.9C595.716 368.1 606.527 331.4 631.591 304.4C654.36 279.9 690.044 265.1 730.702 263.2C736.729 262.9 742.947 262.9 749.07 263.3C788.676 265.8 823.116 281.5 860.713 285.2C921.653 291.2 986.897 263.5 1046.78 241.2C1066.68 233.8 1086.68 227.2 1106.77 222.5C1147.9 213 1187.13 211.2 1229.41 215.9C1241.85 217.3 1254.38 219.4 1267.1 221.8C1339.72 235.7 1413.38 258.5 1447.44 283.2" stroke="#C3617D" stroke-width="2" stroke-miterlimit="10"/>
<path d="M28.0304 507.2C77.2987 490.6 135.464 484.7 189.324 491.2C199.943 492.5 210.275 494.2 220.416 496.4C261.935 505.2 298.576 521.4 326.128 542.5C346.792 558.3 364.49 578 386.015 591.3C399.313 599.6 414.237 605.5 432.7 605.7C473.741 606.3 516.6 572.6 540.612 532.9C547.5 521.5 553.24 509.8 558.119 497.9C570.269 468.4 577.444 438 584.428 409.7C594.281 370 603.274 331 627.478 301.1C649.29 274.2 685.069 256.4 725.919 253.8C732.041 253.4 738.164 253.4 744.478 253.8C784.371 256.3 818.811 274.1 856.599 279.3C918.017 287.7 984.123 260.6 1044.39 237.2C1064.39 229.5 1084.38 222.4 1104.57 217C1145.9 206 1185.6 202.2 1228.46 205.9C1241.08 207 1253.81 208.8 1266.53 211.2C1339.72 224.5 1413.28 251.3 1446.96 282.3" stroke="#CB5C79" stroke-width="2" stroke-miterlimit="10"/>
<path d="M24.0123 498.1C73.9503 479.4 133.168 472.9 187.889 480.6C198.604 482.1 209.223 484.1 219.459 486.7C261.553 497 298.863 515.6 326.415 539.9C347.174 558 364.586 580.6 386.398 596.2C399.887 605.9 415.098 613 434.135 614.2C476.324 616.7 520.618 582.5 544.343 541.6C551.136 529.9 556.684 517.7 561.372 505.4C572.948 474.8 578.975 443.2 584.81 413.5C593.038 371.8 600.117 330.5 623.46 297.7C644.219 268.4 680.094 247.6 721.231 244.3C727.354 243.8 733.572 243.7 739.886 244.1C780.162 246.6 814.506 266.5 852.581 273.1C914.478 283.8 981.54 257.3 1042.1 233C1062.19 225 1082.18 217.4 1102.46 211.3C1143.89 198.9 1184.16 193 1227.5 195.6C1240.22 196.4 1253.14 198 1265.96 200.2C1339.81 213 1413.19 243.6 1446.58 280.9" stroke="#D25775" stroke-width="2" stroke-miterlimit="10"/>
<path d="M19.9944 488.9C70.5064 468 130.776 461 186.359 469.8C197.265 471.5 207.979 473.9 218.407 476.8C261.17 488.6 298.958 509.7 326.51 537.1C347.27 557.6 364.586 583 386.589 600.9C400.269 612 415.767 620.4 435.379 622.4C478.716 626.8 524.349 592.1 547.883 550C554.675 537.9 560.033 525.4 564.433 512.7C575.339 481.1 580.41 448.2 584.906 417.1C591.411 373.5 596.769 329.9 619.25 294.2C639.053 262.6 675.024 238.6 716.448 234.7C722.666 234.1 728.884 234 735.294 234.4C775.857 236.9 810.201 259 848.468 267C910.842 280.2 978.766 254.2 1039.71 228.8C1059.8 220.5 1079.98 212.4 1100.26 205.6C1141.88 191.8 1182.63 183.8 1226.45 185.3C1239.36 185.8 1252.37 187.2 1265.29 189.3C1339.81 201.6 1413 236.1 1446.1 279.7" stroke="#DA5170" stroke-width="2" stroke-miterlimit="10"/>
<path d="M15.9763 479.8C67.158 456.7 128.385 449.1 184.924 459.2C196.021 461.2 206.927 463.8 217.546 467C260.979 480.3 299.341 503.9 326.893 534.4C347.653 557.2 364.873 585.4 387.163 605.6C401.035 618.2 416.82 627.7 437.005 630.6C481.586 636.9 528.463 601.7 551.805 558.5C558.502 546.1 563.764 533.2 567.877 520C578.209 487.4 582.132 453.2 585.48 420.7C590.263 375.1 593.899 329.3 615.424 290.6C634.366 256.6 670.241 229.6 711.951 224.9C718.17 224.2 724.484 224 730.893 224.4C771.743 226.9 806.087 251.1 844.641 260.5C907.494 276.1 976.278 250.6 1037.6 224.3C1057.79 215.7 1077.97 207 1098.25 199.6C1140.06 184.3 1181.29 174.3 1225.68 174.7C1238.69 174.8 1251.89 176.1 1264.9 178.1C1340 189.9 1413.09 228.3 1445.81 278.2" stroke="#E14C6C" stroke-width="2" stroke-miterlimit="10"/>
<path d="M12.054 470.7C63.8096 445.4 126.089 437.3 183.489 448.5C194.777 450.7 205.779 453.6 216.589 457.2C260.692 472 299.532 498.1 327.18 531.7C348.035 556.9 365.064 587.9 387.546 610.4C401.609 624.4 417.681 635.1 438.44 638.9C484.169 647 532.385 611.5 555.536 567C562.137 554.2 567.208 541 571.13 527.4C580.888 493.7 583.662 458.3 585.767 424.4C588.828 376.9 590.837 328.7 611.406 287.2C629.391 250.8 665.362 220.7 707.264 215.4C713.482 214.6 719.892 214.4 726.397 214.8C767.534 217.3 801.878 243.6 840.719 254.5C904.05 272.5 973.791 247.5 1035.5 220.2C1055.78 211.3 1075.96 202.1 1096.34 194C1138.24 177.3 1180.05 165.1 1224.92 164.6C1238.12 164.4 1251.42 165.4 1264.62 167.4C1340.39 178.7 1413.28 220.9 1445.71 277.2" stroke="#E94668" stroke-width="2" stroke-miterlimit="10"/>
<path d="M8.03601 461.5C60.4613 434.1 123.697 425.4 181.958 437.8C193.438 440.2 204.631 443.5 215.537 447.4C260.213 463.7 299.724 492.3 327.371 529C348.227 556.6 365.064 590.4 387.833 615.2C401.991 630.6 418.446 642.6 439.78 647.2C486.752 657.3 536.212 621.2 559.172 575.6C565.773 562.5 570.652 548.8 574.287 534.8C583.471 500.1 585.097 463.3 586.054 428.1C587.393 378.6 587.68 328.2 607.292 283.7C624.416 244.9 660.291 211.8 702.48 205.8C708.794 204.9 715.204 204.6 721.709 205C763.133 207.6 797.477 235.9 836.509 248.3C900.319 268.6 970.921 244.3 1033.01 216C1053.29 206.8 1073.57 197.1 1094.04 188.3C1136.14 170.2 1178.42 155.9 1223.77 154.3C1237.16 153.8 1250.55 154.6 1263.85 156.5C1340.29 167.3 1413.09 213.4 1445.14 276" stroke="#F04164" stroke-width="2" stroke-miterlimit="10"/>
<path d="M4.01807 452.4C57.0174 422.8 121.305 413.6 180.523 427.1C192.099 429.8 203.579 433.3 214.58 437.6C259.926 455.3 299.915 486.5 327.658 526.3C348.514 556.2 365.255 592.9 388.311 620C402.661 636.9 419.498 650.1 441.31 655.5C489.431 667.5 540.23 630.9 562.903 584.1C569.408 570.7 574.191 556.6 577.635 542.2C586.15 506.4 586.724 468.4 586.532 431.8C586.245 380.4 584.81 327.6 603.37 280.3C619.633 239.1 655.508 203 697.888 196.3C704.202 195.3 710.708 195 717.309 195.4C759.115 198 793.364 228.4 832.683 242.2C896.971 264.9 968.529 241.1 1030.9 211.9C1051.28 202.4 1071.56 192.2 1092.13 182.7C1134.42 163.2 1177.18 146.8 1223.1 144.1C1236.59 143.3 1250.17 143.9 1263.57 145.7C1340.58 155.9 1413.28 205.9 1444.95 274.9" stroke="#F83B60" stroke-width="2" stroke-miterlimit="10"/>
<path d="M0 443.3C53.669 411.5 118.914 401.7 178.992 416.4C239.071 431.1 293.314 470.2 327.85 523.6C361.716 576 384.293 647.3 442.65 663.8C492.014 677.7 544.152 640.6 566.538 592.6C588.924 544.6 588.733 488.8 586.724 435.4C584.715 382 581.653 326.9 599.256 276.8C616.859 226.7 661.631 182.5 712.621 185.6C754.714 188.2 788.963 220.7 828.569 236C893.335 261 965.755 237.8 1028.51 207.6C1091.27 177.4 1153.17 139.4 1221.95 133.8C1313.98 126.4 1407.54 185.2 1444.38 273.6" stroke="#FF365C" stroke-width="2" stroke-miterlimit="10"/>
<path d="M0 437.9C53.1907 405.8 117.861 395.4 177.749 409C200.709 414.3 222.903 423 243.567 434.8C276.668 453.7 305.655 480.4 327.371 512.5C354.254 552.1 374.439 603 408.688 632.3C418.637 640.8 429.735 647.4 442.554 651.4C490.866 666.6 541.473 633.1 565.486 588C583.662 553.7 589.976 513.4 591.603 472.8C592.177 459.6 592.272 446.3 592.272 433.2C592.272 379.8 591.316 324.6 610.258 274.5C628.817 225.3 673.111 181.9 723.718 184.3C765.525 186.2 800.06 217.1 839.475 232.2C903.954 257 974.843 237.3 1036.07 211.1C1042.96 208.2 1049.75 205.1 1056.54 202.1C1110.79 177.8 1164.84 151.2 1224.63 148.6C1239.74 147.9 1255.05 149.1 1270.07 151.7C1344.31 165 1414.53 216.8 1446.48 285.2" stroke="#FF3B5C" stroke-width="2" stroke-miterlimit="10"/>
<path d="M0 432.4C52.7123 400 116.809 388.9 176.505 401.5C199.369 406.4 221.564 414.7 242.228 426C275.329 444.2 304.603 470 326.797 501.3C354.254 539.9 375.109 589.7 409.071 619.3C418.829 627.8 429.735 634.6 442.267 639C489.622 655.5 538.795 625.6 564.146 583.3C583.662 551 592.081 511 595.334 470.4C596.386 457.2 597.056 443.9 597.534 430.8C599.639 377.3 600.787 322.1 620.972 272.1C640.393 223.9 684.304 181.3 734.433 182.8C775.952 184 810.679 213.2 849.998 228.2C914.095 252.7 983.549 236.6 1043.34 214.4C1050.04 211.9 1056.73 209.4 1063.33 206.8C1116.14 186.2 1168.66 163.5 1227.12 163.2C1241.94 163.1 1256.87 164.7 1271.6 167.8C1344.59 182.9 1415.1 233.5 1448.39 296.7" stroke="#FF415D" stroke-width="2" stroke-miterlimit="10"/>
<path d="M0.0957031 427C52.234 394.4 115.852 382.6 175.357 394.1C198.221 398.5 220.32 406.4 240.984 417.3C274.181 434.7 303.646 459.7 326.319 490.2C354.349 527.8 375.97 576.5 409.549 606.4C419.211 615 429.926 621.9 442.171 626.6C488.57 644.3 536.212 618 563.094 578.7C583.854 548.3 594.568 508.6 599.352 468.2C600.978 455 602.126 441.7 603.083 428.6C607.196 375 610.545 319.8 631.974 269.8C652.255 222.6 695.784 180.7 745.53 181.5C786.858 182 821.777 209.6 860.904 224.5C924.618 248.8 992.637 236.2 1050.9 218.1C1057.4 216.1 1063.91 214 1070.41 211.8C1121.88 194.8 1172.78 176.1 1229.8 178.2C1244.24 178.7 1258.88 180.8 1273.32 184.2C1344.98 201.1 1415.87 250.5 1450.5 308.5" stroke="#FF465D" stroke-width="2" stroke-miterlimit="10"/>
<path d="M0.0957031 421.6C51.7557 388.7 114.8 376.2 174.113 386.8C196.882 390.8 218.981 398.3 239.741 408.6C273.033 425.2 302.689 449.4 325.841 479.1C354.445 515.7 376.831 563.3 410.027 593.5C419.498 602.1 430.022 609.2 441.98 614.2C487.326 633.2 533.724 610.4 561.85 574C584.045 545.4 596.864 506.2 603.178 465.8C605.283 452.6 606.909 439.4 608.44 426.2C614.658 372.6 620.016 317.3 642.784 267.4C663.927 221.2 707.072 180.1 756.341 180C797.382 179.9 832.491 205.8 871.523 220.5C934.95 244.5 1001.44 235.5 1058.26 221.4C1064.58 219.8 1070.89 218.2 1077.21 216.5C1127.24 203.2 1176.6 188.4 1232.28 192.8C1246.44 193.9 1260.7 196.5 1274.95 200.3C1345.26 219 1416.54 267.2 1452.41 320" stroke="#FF4C5E" stroke-width="2" stroke-miterlimit="10"/>
<path d="M0.0957031 416.2C51.2774 383 113.748 369.9 172.87 379.4C195.543 383 217.642 390 238.401 399.9C271.789 415.8 301.733 439.1 325.267 468C354.541 503.7 377.596 550.1 410.41 580.6C419.785 589.3 430.117 596.6 441.693 601.9C486.082 622.1 531.141 602.9 560.607 569.5C584.141 542.8 599.065 503.9 607.101 463.6C609.684 450.4 611.884 437.2 613.989 424C622.216 370.3 629.678 315 653.882 265.1C675.789 219.8 718.648 179.5 767.534 178.7C808.383 177.9 843.684 202.1 882.525 216.8C945.569 240.6 1010.62 235 1065.92 225C1072.14 223.9 1078.26 222.7 1084.38 221.5C1133.08 211.8 1180.81 201 1235.15 207.7C1248.93 209.4 1262.9 212.4 1276.86 216.6C1345.84 237.1 1417.49 284.1 1454.71 331.7" stroke="#FF515E" stroke-width="2" stroke-miterlimit="10"/>
<path d="M0.0957031 410.8C50.799 377.3 112.791 363.5 171.53 372C194.108 375.2 216.207 381.7 237.062 391.2C270.45 406.3 300.68 428.9 324.693 456.9C354.541 491.6 378.362 536.9 410.793 567.7C420.072 576.4 430.117 583.9 441.502 589.5C484.934 611 528.654 595.3 559.459 564.8C584.523 539.9 601.456 501.5 611.023 461.2C614.18 448.1 616.859 434.8 619.442 421.6C629.774 367.9 639.245 312.5 664.788 262.7C687.556 218.4 730.032 178.9 778.44 177.3C819.002 175.8 854.495 198.4 893.24 212.9C955.901 236.4 1019.52 234.4 1073.38 228.4C1079.41 227.7 1085.34 227 1091.37 226.2C1138.62 220.2 1184.83 213.3 1237.74 222.3C1251.13 224.6 1264.81 228.1 1278.49 232.6C1346.13 254.9 1418.16 300.6 1456.62 343.1" stroke="#FF575F" stroke-width="2" stroke-miterlimit="10"/>
<path d="M0.191528 405.3C50.3209 371.5 111.835 357.1 170.383 364.5C192.864 367.3 214.963 373.4 235.819 382.3C269.302 396.6 299.724 418.4 324.31 445.6C354.732 479.3 379.223 523.5 411.367 554.6C420.455 563.4 430.405 571 441.406 576.9C483.787 599.7 526.454 587.6 558.311 560C584.906 537 603.848 499 614.946 458.8C618.581 445.7 621.834 432.4 624.895 419.2C637.332 365.4 648.716 310 675.694 260.2C699.228 216.8 741.417 178.2 789.442 175.7C829.717 173.6 865.401 194.5 904.05 208.8C966.425 232 1028.51 233.6 1080.84 231.6C1086.68 231.4 1092.51 231.1 1098.25 230.8C1144.08 228.4 1188.75 225.4 1240.32 236.8C1253.42 239.7 1266.72 243.7 1280.12 248.6C1346.51 272.7 1418.83 317.2 1458.63 354.5" stroke="#FF5C5F" stroke-width="2" stroke-miterlimit="10"/>
<path d="M0.191528 399.9C49.8425 365.9 110.782 350.7 169.139 357.1C191.621 359.5 213.624 365.1 234.479 373.6C268.058 387.2 298.672 408.1 323.736 434.5C354.732 467.2 379.988 510.3 411.75 541.7C420.742 550.5 430.405 558.3 441.215 564.6C482.639 588.7 524.158 580.2 557.163 555.4C585.289 534.3 606.144 496.6 618.868 456.5C623.077 443.4 626.808 430.1 630.348 416.9C644.794 363.1 658.187 307.6 686.6 257.9C710.804 215.5 752.801 177.7 800.443 174.4C840.528 171.6 876.403 190.8 914.861 205.1C976.853 228.1 1037.51 233.2 1088.4 235.3C1094.04 235.5 1099.69 235.7 1105.33 235.9C1149.82 237.2 1192.87 238.1 1243 251.9C1255.72 255.4 1268.73 259.9 1281.93 265.1C1346.99 291 1419.69 334.3 1460.73 366.4" stroke="#FF6160" stroke-width="2" stroke-miterlimit="10"/>
<path d="M0.191528 394.5C49.3642 360.2 109.73 344.4 167.895 349.7C190.281 351.7 212.285 356.9 233.236 364.9C266.815 377.7 297.715 397.8 323.258 423.4C354.828 455.1 380.754 497.1 412.228 528.8C421.029 537.7 430.596 545.6 441.024 552.2C481.491 577.6 521.958 572.7 555.919 550.8C585.672 531.6 608.44 494.3 622.694 454.2C627.382 441.1 631.592 427.9 635.705 414.6C652.256 360.7 667.562 305.1 697.41 255.5C722.379 214 764.09 177.1 811.254 172.9C851.051 169.4 887.117 187 925.48 201.1C987.089 223.8 1046.31 232.5 1095.77 238.6C1101.31 239.3 1106.77 239.9 1112.22 240.5C1155.27 245.4 1196.79 250.3 1245.58 266.4C1257.92 270.5 1270.64 275.4 1283.56 281C1347.27 308.7 1420.27 350.8 1462.74 377.7" stroke="#FF6760" stroke-width="2" stroke-miterlimit="10"/>
<path d="M0.191528 389.1C48.8859 354.5 108.677 338 166.651 342.3C188.942 343.9 210.85 348.6 231.896 356.1C265.571 368.1 296.663 387.4 322.684 412.3C354.924 443 381.519 483.9 412.611 515.9C421.316 524.8 430.596 533 440.832 539.8C480.247 566.4 519.757 565.3 554.771 546.1C586.15 528.9 610.832 491.8 626.617 451.9C631.783 438.8 636.566 425.6 641.158 412.3C659.718 358.4 677.033 302.7 708.316 253.2C733.955 212.6 775.474 176.5 822.255 171.6C861.766 167.5 898.119 183.4 936.29 197.3C997.612 219.8 1055.2 231.9 1103.23 242.1C1108.59 243.2 1113.85 244.3 1119.11 245.4C1160.82 254 1200.71 262.8 1248.16 281.2C1260.22 285.9 1272.56 291.3 1285.19 297.3C1347.56 326.8 1420.94 367.6 1464.66 389.4" stroke="#FF6C61" stroke-width="2" stroke-miterlimit="10"/>
<path d="M0.286987 383.7C48.4073 348.8 107.721 331.7 165.503 334.9C187.698 336.1 209.606 340.3 230.652 347.4C264.423 358.7 295.801 377.2 322.205 401.2C355.019 430.9 382.38 470.7 413.089 502.9C421.603 511.9 430.787 520.2 440.641 527.4C479.099 555.3 517.652 557.9 553.527 541.5C586.628 526.4 613.032 489.5 630.443 449.6C636.183 436.6 641.445 423.3 646.515 410C667.179 356 686.408 300.2 719.222 250.8C745.53 211.1 786.858 175.9 833.161 170.2C872.48 165.4 908.929 179.6 947.004 193.5C1007.94 215.7 1064.1 231.4 1110.69 245.6C1115.86 247.2 1121.02 248.7 1126.09 250.3C1166.37 262.5 1204.73 275.3 1250.75 296C1262.42 301.3 1274.47 307.2 1286.91 313.5C1348.04 344.8 1421.7 384.4 1466.76 400.9" stroke="#FF7261" stroke-width="2" stroke-miterlimit="10"/>
<path d="M0.286987 378.3C47.929 343.2 106.668 325.3 164.26 327.5C186.359 328.3 208.266 332.1 229.409 338.6C263.275 349.1 294.845 366.8 321.727 390C355.115 418.7 383.241 457.4 413.567 489.9C421.986 498.9 430.883 507.4 440.449 514.9C477.951 544.2 515.548 550.6 552.379 536.7C587.202 523.7 615.424 486.9 634.461 447.1C640.68 434.1 646.515 420.8 652.064 407.5C674.737 353.5 695.879 297.6 730.224 248.3C757.202 209.5 798.338 175.1 844.258 168.6C883.29 163.1 919.931 175.7 957.91 189.4C1018.47 211.4 1073.19 230.6 1118.25 248.8C1123.32 250.8 1128.2 252.8 1133.17 254.8C1172.01 270.7 1208.84 287.4 1253.52 310.5C1264.9 316.4 1276.58 322.8 1288.73 329.5C1348.52 362.6 1422.56 401 1468.96 412.3" stroke="#FF7762" stroke-width="2" stroke-miterlimit="10"/>
<path d="M0.286987 372.8C47.4507 337.4 105.616 318.9 163.016 320C185.019 320.4 206.927 323.7 228.069 329.8C261.935 339.5 293.792 356.4 321.153 378.8C355.115 406.6 384.006 444.1 413.95 476.9C422.273 486 430.978 494.6 440.258 502.4C476.707 533 513.443 543.2 551.136 532C587.68 521.1 617.72 484.5 638.288 444.8C645.08 431.8 651.394 418.5 657.421 405.2C682.199 351.1 705.159 295.1 741.034 245.9C768.682 208 809.627 174.5 855.069 167.2C893.909 161 930.741 172 968.434 185.6C1028.7 207.3 1081.89 230.1 1125.52 252.4C1130.4 254.9 1135.18 257.3 1139.87 259.8C1177.37 279.3 1212.48 300 1255.82 325.4C1266.82 331.9 1278.2 338.7 1290.06 345.8C1348.52 380.7 1422.95 417.9 1470.59 424" stroke="#FF7D62" stroke-width="2" stroke-miterlimit="10"/>
<path d="M0.38269 367.4C47.068 331.7 104.659 312.5 161.868 312.6C183.871 312.6 205.683 315.5 226.826 321.1C260.787 330.1 292.836 346.1 320.675 367.7C355.306 394.5 384.867 430.9 414.428 464C422.56 473.1 431.074 482 440.067 490.1C475.559 522 511.338 536.2 549.988 527.4C588.159 518.8 620.016 482.1 642.21 442.5C649.481 429.5 656.273 416.3 662.97 402.9C689.757 348.8 714.63 292.5 752.036 243.6C780.353 206.6 821.107 173.9 866.166 165.8C904.72 158.9 941.743 168.3 979.34 181.7C1039.23 203.1 1090.98 229.4 1133.08 255.8C1137.76 258.7 1142.36 261.7 1146.95 264.6C1183.01 287.8 1216.59 312.4 1258.59 340.1C1269.21 347.2 1280.31 354.5 1291.88 361.9C1349 398.6 1423.81 434.5 1472.79 435.5" stroke="#FF8263" stroke-width="2" stroke-miterlimit="10"/>
<path d="M0.38269 362C46.494 326 103.607 306.2 160.624 305.2C182.532 304.8 204.344 307.2 225.582 312.3C259.639 320.5 291.879 335.7 320.196 356.5C355.402 382.3 385.728 417.6 414.906 451C422.942 460.2 431.265 469.2 439.971 477.6C474.411 510.8 509.234 529 548.935 522.7C588.828 516.4 622.503 479.7 646.228 440.1C653.977 427.1 661.344 413.9 668.519 400.5C697.41 346.3 724.101 289.9 763.037 241.1C791.929 204.9 832.587 173.1 877.263 164.3C915.53 156.7 952.84 164.4 990.246 177.7C1049.85 198.9 1100.07 228.7 1140.73 259.1C1145.23 262.5 1149.72 265.9 1154.03 269.2C1188.75 296.1 1220.71 324.6 1261.37 354.6C1271.7 362.3 1282.41 370.1 1293.8 377.9C1349.67 416.4 1424.76 451.1 1474.99 446.9" stroke="#FF8763" stroke-width="2" stroke-miterlimit="10"/>
<path d="M0.38269 356.6C46.0157 320.3 102.555 299.8 159.381 297.8C181.193 297 203.005 299 224.243 303.6C258.396 311 290.922 325.4 319.622 345.4C355.402 370.2 386.493 404.4 415.289 438.1C423.229 447.3 431.265 456.5 439.684 465.2C473.072 499.7 506.938 522 547.596 518C589.115 514 624.703 477.3 649.959 437.7C658.282 424.8 666.127 411.5 673.78 398.1C704.681 343.8 733.189 287.2 773.752 238.7C803.217 203.4 843.78 172.4 887.978 162.9C925.958 154.6 963.459 160.7 1000.77 173.9C1059.99 194.8 1108.78 228.2 1147.9 262.6C1152.31 266.4 1156.51 270.3 1160.72 274.1C1194.02 304.6 1224.44 337 1263.66 369.5C1273.61 377.7 1284.04 386 1295.14 394.2C1349.67 434.4 1425.15 468 1476.71 458.6" stroke="#FF8D64" stroke-width="2" stroke-miterlimit="10"/>
<path d="M0.38269 351.2C45.5374 314.7 101.502 293.5 158.137 290.4C179.853 289.2 201.665 290.7 222.999 294.9C257.152 301.6 289.966 315.2 319.144 334.3C355.497 358.1 387.354 391.2 415.767 425.2C423.516 434.5 431.361 443.9 439.588 452.9C472.019 488.7 504.833 515 546.544 513.5C589.785 511.9 627.095 475 653.977 435.6C662.779 422.7 671.197 409.4 679.329 396C712.334 341.7 742.66 284.9 784.754 236.5C814.889 202 855.26 171.9 899.075 161.6C936.864 152.6 974.461 157.1 1011.68 170.1C1070.51 190.8 1117.87 227.7 1155.56 266.1C1159.77 270.4 1163.88 274.7 1167.9 279C1199.76 313.2 1228.65 349.5 1266.53 384.3C1276.19 393.1 1286.33 401.9 1297.05 410.5C1350.24 452.5 1426.1 484.9 1478.91 470.3" stroke="#FF9264" stroke-width="2" stroke-miterlimit="10"/>
<path d="M0.478394 345.8C45.1547 309 100.546 287.1 156.893 283C178.514 281.4 200.326 282.4 221.66 286.1C255.908 292 288.913 304.8 318.57 323.1C355.497 345.9 388.024 377.8 416.15 412.2C423.803 421.5 431.457 431.1 439.301 440.4C470.68 477.6 502.633 505.9 545.204 508.8C589.881 511.8 629.295 472.6 657.708 433.2C667.084 420.3 675.885 407 684.591 393.6C719.605 339.2 751.749 282.1 795.564 234.1C826.273 200.4 866.549 171.3 909.886 160.2C947.387 150.5 985.271 153.3 1022.29 166.3C1080.84 186.7 1126.67 227.2 1162.83 269.6C1166.85 274.3 1170.77 279.1 1174.6 283.8C1205.11 321.6 1232.38 361.9 1268.83 399C1278.11 408.4 1287.96 417.7 1298.48 426.6C1350.33 470.4 1426.58 501.6 1480.73 481.8" stroke="#FF9865" stroke-width="2" stroke-miterlimit="10"/>
<path d="M0.478394 340.3C44.5807 303.2 99.4934 280.7 155.65 275.5C177.175 273.5 198.987 274.1 220.32 277.3C254.665 282.5 287.861 294.4 317.996 311.9C355.593 333.7 388.789 364.5 416.533 399.2C423.995 408.6 431.457 418.3 439.014 427.9C469.341 466.4 500.145 500.9 543.961 504C590.359 507.3 631.591 470 661.631 430.7C671.484 417.8 680.86 404.5 690.044 391.1C727.162 336.7 761.028 279.3 806.47 231.6C837.753 198.7 877.933 170.6 920.887 158.6C958.197 148.2 996.177 149.4 1033.1 162.2C1091.27 182.4 1135.66 226.3 1170.39 272.9C1174.21 278.1 1178.04 283.3 1181.67 288.5C1210.76 330 1236.49 374.2 1271.6 413.6C1280.5 423.6 1290.06 433.4 1300.3 442.6C1350.81 488.2 1427.35 518.1 1482.83 493.2" stroke="#FF9D65" stroke-width="2" stroke-miterlimit="10"/>
<path d="M0.478394 334.9C44.1024 297.5 98.4411 274.3 154.406 268.1C175.931 265.7 197.647 265.8 219.077 268.5C253.421 272.9 286.904 284 317.518 300.7C355.689 321.5 389.65 351.2 417.011 386.2C424.377 395.6 431.552 405.6 438.919 415.5C468.193 455.4 497.945 493.9 542.813 499.4C590.742 505.2 633.887 467.7 665.553 428.5C675.885 415.6 685.834 402.4 695.497 388.9C734.624 334.4 770.308 276.7 817.376 229.3C849.233 197.2 889.317 170 931.793 157.3C968.816 146.2 1007.08 145.8 1043.82 158.4C1101.6 178.3 1144.56 225.8 1177.75 276.4C1181.48 282 1185.02 287.7 1188.56 293.4C1216.31 338.5 1240.41 386.7 1274.18 428.4C1282.79 439 1291.98 449.2 1301.93 458.9C1351.2 506.3 1428.02 535 1484.84 504.9" stroke="#FFA366" stroke-width="2" stroke-miterlimit="10"/>
<path d="M0.573975 329.5C60.27 277.4 140.439 251.6 217.833 259.8C295.227 267.9 368.891 309.8 417.489 373.3C453.843 420.9 484.169 485.1 541.665 494.7C591.029 503 636.279 465.2 669.475 426.1C724.388 361.3 767.534 285.6 828.282 226.9C889.126 168.2 975.991 127.6 1054.63 154.5C1118.53 176.3 1162.54 237 1195.55 298.2C1228.55 359.4 1255.72 425.8 1303.65 475.1C1351.58 524.4 1428.78 551.8 1486.95 516.5" stroke="#FFA866" stroke-width="2" stroke-miterlimit="10"/>
</svg>
