<svg width="29" height="29" viewBox="0 0 29 29" fill="none" xmlns="http://www.w3.org/2000/svg">
<path d="M7.25 22.8068C6.83917 22.8068 6.49503 22.6738 6.2176 22.4079C5.94017 22.142 5.80097 21.8134 5.8 21.422V18.6523H24.65V6.18912H27.55C27.9608 6.18912 28.3054 6.32206 28.5838 6.58794C28.8622 6.85382 29.001 7.18248 29 7.57392V28.346L23.2 22.8068H7.25ZM0 21.422V2.03471C0 1.64234 0.1392 1.31368 0.4176 1.04873C0.696 0.783767 1.04013 0.650826 1.45 0.649902H20.3C20.7108 0.649902 21.0554 0.782844 21.3338 1.04873C21.6122 1.31461 21.751 1.64327 21.75 2.03471V14.4979C21.75 14.8903 21.6108 15.2194 21.3324 15.4853C21.054 15.7512 20.7099 15.8837 20.3 15.8827H5.8L0 21.422Z" fill="#2368D8"/>
</svg>
