<svg width="29" height="29" viewBox="0 0 29 29" fill="none" xmlns="http://www.w3.org/2000/svg">
<path d="M0 25.4038V11.1606C0 10.6595 0.127898 10.1847 0.383696 9.73629C0.639494 9.28789 0.991967 8.91862 1.44111 8.62848L12.2495 1.50687C12.88 1.08485 13.6005 0.87384 14.4111 0.87384C15.2218 0.87384 15.9423 1.08485 16.5728 1.50687L27.3812 8.62848C27.8315 8.91862 28.1846 9.28789 28.4404 9.73629C28.6962 10.1847 28.8235 10.6595 28.8223 11.1606V25.4038C28.8223 26.2742 28.4692 27.0196 27.763 27.64C27.0569 28.2604 26.209 28.57 25.2195 28.569H19.8153C19.3049 28.569 18.8774 28.4171 18.5327 28.1132C18.1881 27.8093 18.0151 27.4337 18.0139 26.9864V19.0735C18.0139 18.6251 17.841 18.2495 17.4951 17.9467C17.1492 17.6439 16.7217 17.492 16.2125 17.4909H12.6097C12.0993 17.4909 11.6718 17.6429 11.3272 17.9467C10.9825 18.2506 10.8096 18.6262 10.8083 19.0735V26.9864C10.8083 27.4348 10.6354 27.8109 10.2895 28.1148C9.94368 28.4186 9.51615 28.57 9.00696 28.569H3.60278C2.61202 28.569 1.76416 28.2593 1.05922 27.64C0.354273 27.0207 0.00120093 26.2753 0 25.4038Z" fill="#2368D8"/>
</svg>
