<svg width="1952" height="1952" viewBox="0 0 1952 1952" fill="none" xmlns="http://www.w3.org/2000/svg">
<path d="M0 1728.91V725.028C0 689.707 8.66197 656.244 25.986 624.64C43.31 593.036 67.1813 567.009 97.6 546.56L829.6 44.6171C872.3 14.8724 921.1 0 976 0C1030.9 0 1079.7 14.8724 1122.4 44.6171L1854.4 546.56C1884.9 567.009 1908.81 593.036 1926.14 624.64C1943.46 656.244 1952.08 689.707 1952 725.028V1728.91C1952 1790.26 1928.09 1842.8 1880.26 1886.52C1832.44 1930.25 1775.02 1952.07 1708 1952H1342C1307.43 1952 1278.48 1941.29 1255.14 1919.88C1231.79 1898.46 1220.08 1871.99 1220 1840.46V1282.74C1220 1251.14 1208.29 1224.67 1184.86 1203.32C1161.44 1181.98 1132.49 1171.27 1098 1171.2H854C819.433 1171.2 790.478 1181.91 767.136 1203.32C743.793 1224.74 732.081 1251.21 732 1282.74V1840.46C732 1872.06 720.288 1898.57 696.864 1919.99C673.44 1941.4 644.485 1952.07 610 1952H244C176.9 1952 119.479 1930.17 71.736 1886.52C23.9933 1842.87 0.0813333 1790.34 0 1728.91Z" fill="#001F4D"/>
</svg>
