<svg width="29" height="29" viewBox="0 0 29 29" fill="none" xmlns="http://www.w3.org/2000/svg">
<path fill-rule="evenodd" clip-rule="evenodd" d="M20.1502 3.17543C16.3486 2.32564 12.4062 2.32564 8.60457 3.17543L8.19495 3.26606C7.1253 3.5045 6.14282 4.03513 5.35689 4.79888C4.57096 5.56262 4.01242 6.52951 3.74345 7.59189C2.78148 11.3893 2.78148 15.3667 3.74345 19.1641C3.99998 20.1773 4.52013 21.1045 5.25105 21.8515C5.98197 22.5986 6.89762 23.1388 7.90495 23.4174L8.46682 26.7718C8.48476 26.8783 8.53092 26.978 8.60051 27.0607C8.67009 27.1433 8.76055 27.2057 8.86246 27.2415C8.96438 27.2773 9.07402 27.2851 9.17998 27.2641C9.28593 27.2431 9.38432 27.1941 9.46491 27.1222L12.7649 24.1702C15.242 24.3198 17.728 24.1217 20.1502 23.5818L20.561 23.4911C21.6307 23.2527 22.6132 22.7221 23.3991 21.9583C24.185 21.1946 24.7436 20.2277 25.0125 19.1653C25.9745 15.3679 25.9745 11.3905 25.0125 7.5931C24.7435 6.53056 24.1847 5.56357 23.3986 4.79981C22.6124 4.03605 21.6297 3.50551 20.5598 3.26727L20.1502 3.17543ZM9.62441 7.49402C9.39983 7.46113 9.17077 7.50635 8.97553 7.6221H8.95861C8.50549 7.88793 8.09707 8.22264 7.74907 8.61656C7.45907 8.95127 7.30199 9.2896 7.26091 9.61585C7.23674 9.80918 7.25366 10.0049 7.31045 10.1898L7.3322 10.2019C7.65845 11.1601 8.08378 12.0821 8.60336 12.9496C9.27362 14.168 10.098 15.295 11.0563 16.3028L11.0853 16.3438L11.1312 16.3777L11.159 16.4103L11.1928 16.4393C12.2042 17.4003 13.3338 18.2287 14.5544 18.9043C15.95 19.6644 16.7971 20.0232 17.3058 20.1731V20.1803C17.4544 20.2262 17.5897 20.2468 17.7263 20.2468C18.1597 20.2157 18.5701 20.0394 18.8911 19.7465C19.2838 19.3985 19.6161 18.9889 19.8747 18.5333V18.5249C20.1176 18.0657 20.0354 17.6331 19.685 17.3395C18.9817 16.7238 18.2205 16.1775 17.4121 15.7083C16.8708 15.4146 16.321 15.5923 16.0987 15.8895L15.6238 16.4888C15.3797 16.7861 14.9374 16.745 14.9374 16.745L14.9254 16.7523C11.6254 15.9101 10.7445 12.569 10.7445 12.569C10.7445 12.569 10.7034 12.1147 11.0092 11.8827L11.6037 11.4042C11.8888 11.1722 12.087 10.6236 11.7813 10.0823C11.3131 9.27441 10.7681 8.51365 10.1537 7.8106C10.0193 7.64551 9.83104 7.53301 9.62199 7.49281M15.1997 6.0416C15.0394 6.0416 14.8857 6.10525 14.7724 6.21856C14.6591 6.33186 14.5955 6.48553 14.5955 6.64577C14.5955 6.806 14.6591 6.95967 14.7724 7.07298C14.8857 7.18628 15.0394 7.24993 15.1997 7.24993C16.7282 7.24993 17.9969 7.74897 19.0011 8.70597C19.517 9.22918 19.9194 9.84906 20.1828 10.5281C20.4474 11.2084 20.5683 11.9346 20.5369 12.6621C20.5335 12.7414 20.5459 12.8206 20.5731 12.8952C20.6004 12.9698 20.6421 13.0382 20.6959 13.0967C20.8044 13.2148 20.9554 13.2849 21.1157 13.2916C21.2759 13.2983 21.4322 13.2411 21.5503 13.1326C21.6684 13.024 21.7385 12.873 21.7452 12.7128C21.7813 11.8181 21.6328 10.9256 21.309 10.0907C20.9837 9.25164 20.4884 8.48891 19.8542 7.85047L19.8421 7.83839C18.5963 6.64818 17.0194 6.0416 15.1997 6.0416ZM15.1586 8.0281C14.9983 8.0281 14.8447 8.09175 14.7314 8.20506C14.6181 8.31836 14.5544 8.47203 14.5544 8.63227C14.5544 8.7925 14.6181 8.94617 14.7314 9.05948C14.8447 9.17278 14.9983 9.23643 15.1586 9.23643H15.1791C16.2811 9.31497 17.0834 9.68231 17.6453 10.2853C18.2217 10.9064 18.5202 11.6785 18.4972 12.6331C18.4935 12.7933 18.5536 12.9484 18.6643 13.0643C18.775 13.1802 18.9272 13.2474 19.0875 13.2511C19.2477 13.2548 19.4028 13.1947 19.5187 13.084C19.6347 12.9733 19.7018 12.8211 19.7055 12.6608C19.7345 11.4078 19.3309 10.3263 18.531 9.4636V9.46118C17.713 8.58393 16.5904 8.11993 15.2395 8.02931L15.219 8.02689L15.1586 8.0281ZM15.1356 10.0521C15.0548 10.0449 14.9733 10.0542 14.8961 10.0792C14.8189 10.1042 14.7475 10.1446 14.6862 10.1978C14.625 10.2511 14.5751 10.3161 14.5395 10.3891C14.5039 10.462 14.4834 10.5414 14.4792 10.6224C14.4749 10.7035 14.4871 10.7846 14.5149 10.8608C14.5427 10.9371 14.5856 11.007 14.641 11.0663C14.6964 11.1256 14.7632 11.1732 14.8374 11.2061C14.9116 11.239 14.9916 11.2567 15.0728 11.258C15.5779 11.2846 15.9005 11.4368 16.1035 11.641C16.3077 11.8464 16.4599 12.1763 16.4877 12.6923C16.4892 12.7733 16.5071 12.8533 16.5401 12.9273C16.5732 13.0014 16.6208 13.068 16.6802 13.1233C16.7395 13.1785 16.8094 13.2213 16.8856 13.2489C16.9618 13.2766 17.0429 13.2886 17.1238 13.2843C17.2048 13.28 17.2841 13.2595 17.357 13.2239C17.4298 13.1883 17.4948 13.1384 17.548 13.0772C17.6011 13.016 17.6414 12.9447 17.6665 12.8675C17.6915 12.7904 17.7007 12.709 17.6937 12.6282C17.655 11.9032 17.4278 11.2628 16.9626 10.7916C16.495 10.3203 15.8582 10.0907 15.1356 10.0521Z" fill="#001F4D"/>
</svg>
