<svg width="22" height="16" viewBox="0 0 22 16" fill="none" xmlns="http://www.w3.org/2000/svg">
<g clip-path="url(#clip0_326_157)">
<path d="M4.82704 15.9213V7.7215L2.28404 5.39503L0.00366211 4.104V14.4742C0.00366211 15.2749 0.652367 15.9213 1.45071 15.9213H4.82704Z" fill="#001F4D"/>
<path d="M16.4031 15.9212H19.7794C20.5802 15.9212 21.2265 15.2724 21.2265 14.4742V4.104L18.6436 5.58272L16.4031 7.72141V15.9212Z" fill="#001F4D"/>
<path d="M4.82699 7.72151L4.48096 4.51762L4.82699 1.45117L10.615 5.79223L16.403 1.45117L16.7901 4.35206L16.403 7.72151L10.615 12.0626L4.82699 7.72151Z" fill="#001F4D"/>
<path d="M16.4031 1.45108V7.72142L21.2265 4.10393V2.17457C21.2265 0.385135 19.1838 -0.634969 17.7537 0.438192L16.4031 1.45108Z" fill="#001F4D"/>
<path d="M0.00366211 4.10397L2.22202 5.76781L4.82704 7.72146V1.45112L3.47641 0.43823C2.04387 -0.635014 0.00366211 0.385173 0.00366211 2.17452V4.10397Z" fill="#001F4D"/>
</g>
<defs>
<clipPath id="clip0_326_157">
<rect width="21.23" height="16" fill="white"/>
</clipPath>
</defs>
</svg>
