<svg width="29" height="29" viewBox="0 0 29 29" fill="none" xmlns="http://www.w3.org/2000/svg">
<path d="M9.42508 2.41675H19.5751C23.4417 2.41675 26.5834 5.55841 26.5834 9.42508V19.5751C26.5834 21.4338 25.845 23.2164 24.5307 24.5307C23.2164 25.845 21.4338 26.5834 19.5751 26.5834H9.42508C5.55841 26.5834 2.41675 23.4417 2.41675 19.5751V9.42508C2.41675 7.56636 3.15512 5.78376 4.46944 4.46944C5.78376 3.15512 7.56636 2.41675 9.42508 2.41675ZM9.18341 4.83341C8.02972 4.83341 6.92328 5.29172 6.1075 6.1075C5.29172 6.92328 4.83341 8.02972 4.83341 9.18341V19.8167C4.83341 22.2213 6.77883 24.1667 9.18341 24.1667H19.8167C20.9704 24.1667 22.0769 23.7084 22.8927 22.8927C23.7084 22.0769 24.1667 20.9704 24.1667 19.8167V9.18341C24.1667 6.77883 22.2213 4.83341 19.8167 4.83341H9.18341ZM20.8438 6.64592C21.2444 6.64592 21.6286 6.80505 21.9119 7.08831C22.1951 7.37156 22.3542 7.75574 22.3542 8.15633C22.3542 8.55692 22.1951 8.9411 21.9119 9.22436C21.6286 9.50762 21.2444 9.66675 20.8438 9.66675C20.4432 9.66675 20.0591 9.50762 19.7758 9.22436C19.4925 8.9411 19.3334 8.55692 19.3334 8.15633C19.3334 7.75574 19.4925 7.37156 19.7758 7.08831C20.0591 6.80505 20.4432 6.64592 20.8438 6.64592ZM14.5001 8.45842C16.1024 8.45842 17.6392 9.09495 18.7722 10.228C19.9052 11.361 20.5417 12.8977 20.5417 14.5001C20.5417 16.1024 19.9052 17.6392 18.7722 18.7722C17.6392 19.9052 16.1024 20.5417 14.5001 20.5417C12.8977 20.5417 11.361 19.9052 10.228 18.7722C9.09495 17.6392 8.45842 16.1024 8.45842 14.5001C8.45842 12.8977 9.09495 11.361 10.228 10.228C11.361 9.09495 12.8977 8.45842 14.5001 8.45842ZM14.5001 10.8751C13.5387 10.8751 12.6166 11.257 11.9368 11.9368C11.257 12.6166 10.8751 13.5387 10.8751 14.5001C10.8751 15.4615 11.257 16.3835 11.9368 17.0633C12.6166 17.7432 13.5387 18.1251 14.5001 18.1251C15.4615 18.1251 16.3835 17.7432 17.0633 17.0633C17.7432 16.3835 18.1251 15.4615 18.1251 14.5001C18.1251 13.5387 17.7432 12.6166 17.0633 11.9368C16.3835 11.257 15.4615 10.8751 14.5001 10.8751Z" fill="#001F4D"/>
</svg>
