<svg width="154" height="33" viewBox="0 0 154 33" fill="none" xmlns="http://www.w3.org/2000/svg">
<path d="M2 16.7558L19.846 4.49338C20.8331 3.81513 22.1338 3.80531 23.131 4.46858L41.6048 16.7558M11.4536 14.8948V28.07C11.4536 29.6882 12.7661 31 14.3852 31H43.4C45.019 31 46.3316 29.6882 46.3316 28.07V15.6106M29.7162 8.45266L37.2128 3.03599C37.3766 2.91765 37.5274 2.78237 37.6842 2.65489C38.8356 1.71854 40.5323 1.78631 41.6048 2.8582L56 14.9663M21.8382 31V24.9516C21.8382 23.1134 23.3292 21.6232 25.1684 21.6232C27.0077 21.6232 28.4987 23.1134 28.4987 24.9516V30.7853" stroke="#2368D8" stroke-width="3.54687" stroke-linecap="round"/>
<path d="M153.411 10.9571C153.411 11.5293 153.18 12.01 152.719 12.3992C152.28 12.7654 151.738 12.9485 151.091 12.9485H136.444C136.144 12.9485 135.901 13.0057 135.716 13.1202C135.532 13.2346 135.393 13.3605 135.301 13.4979C135.209 13.6123 135.162 13.7153 135.162 13.8069C135.162 13.9213 135.209 14.0472 135.301 14.1846C135.393 14.299 135.532 14.4135 135.716 14.5279C135.901 14.6195 136.144 14.6767 136.444 14.6996H147.767C149.221 14.7225 150.422 15.0086 151.368 15.558C152.315 16.0844 152.984 16.7139 153.377 17.4464C153.792 18.156 154 18.877 154 19.6095C154 20.319 153.792 21.0401 153.377 21.7725C152.961 22.4821 152.28 23.1116 151.334 23.661C150.41 24.1874 149.221 24.4507 147.767 24.4507C147.513 24.4735 147.328 24.485 147.213 24.485H133.777C133.131 24.485 132.577 24.3019 132.115 23.9356C131.676 23.5465 131.457 23.0773 131.457 22.5279C131.457 21.9557 131.688 21.475 132.15 21.0859C132.588 20.7196 133.131 20.5365 133.777 20.5365H148.044C148.39 20.5594 148.667 20.5136 148.875 20.3992C149.106 20.2847 149.279 20.1588 149.394 20.0215C149.51 19.8841 149.568 19.7468 149.568 19.6095C149.568 19.5408 149.51 19.4263 149.394 19.2661C149.279 19.083 149.106 18.9457 148.875 18.8541C148.667 18.7396 148.39 18.671 148.044 18.6481H136.686C135.347 18.6252 134.239 18.3505 133.362 17.8241C132.484 17.2747 131.861 16.6452 131.492 15.9356C131.122 15.2261 130.938 14.5165 130.938 13.8069C130.938 13.0973 131.122 12.3992 131.492 11.7125C131.884 11.0029 132.508 10.3963 133.362 9.89273C134.239 9.36626 135.347 9.08014 136.686 9.03436C136.917 9.01147 137.09 9.00002 137.205 9.00002H151.091C151.738 9.00002 152.28 9.19459 152.719 9.58371C153.18 9.94995 153.411 10.4077 153.411 10.9571Z" fill="#2368D8"/>
<path d="M112.862 24.588C110.83 24.5193 109.295 24.0501 108.256 23.1803C107.218 22.2876 106.467 21.2919 106.006 20.1932C105.544 19.0716 105.313 17.9385 105.313 16.794C105.313 15.6037 105.532 14.4593 105.971 13.3605C106.433 12.2389 107.183 11.2432 108.222 10.3734C109.284 9.48072 110.623 9.02292 112.239 9.00003H123.458C125.074 9.02292 126.401 9.48072 127.44 10.3734C128.502 11.2432 129.253 12.2389 129.691 13.3605C130.153 14.4593 130.384 15.6037 130.384 16.794C130.384 17.9385 130.153 19.0716 129.691 20.1932C129.229 21.2919 128.479 22.2876 127.44 23.1803C126.401 24.0501 124.866 24.5193 122.835 24.588H112.862ZM112.1 13.6009C111.662 13.6009 111.281 13.784 110.957 14.1502C110.634 14.4936 110.392 14.9056 110.23 15.3863C110.092 15.8441 110.022 16.3019 110.022 16.7597C110.022 17.2404 110.092 17.7211 110.23 18.2017C110.392 18.6595 110.634 19.0716 110.957 19.4378C111.281 19.7811 111.662 19.9643 112.1 19.9872H123.597C124.035 19.9643 124.416 19.7811 124.739 19.4378C125.063 19.0716 125.293 18.6595 125.432 18.2017C125.594 17.7211 125.674 17.2404 125.674 16.7597C125.674 16.3019 125.594 15.8441 125.432 15.3863C125.293 14.9056 125.063 14.4936 124.739 14.1502C124.416 13.784 124.035 13.6009 123.597 13.6009H112.1Z" fill="#2368D8"/>
<path d="M99.8072 22.7683V14.4936C99.8072 13.9213 99.5071 13.6238 98.9069 13.6009H86.7871C86.3485 13.6238 85.9676 13.8183 85.6444 14.1846C85.3212 14.5279 85.0788 14.9399 84.9172 15.4206C84.7787 15.8784 84.7094 16.3477 84.7094 16.8284C84.7094 17.2861 84.7787 17.7554 84.9172 18.2361C85.0788 18.6939 85.3212 19.1059 85.6444 19.4721C85.9676 19.8155 86.3485 19.9871 86.7871 19.9871H95.6518C96.2982 19.9871 96.8407 20.216 97.2794 20.6738C97.7411 21.1088 97.9719 21.6467 97.9719 22.2876C97.9719 22.9285 97.7411 23.4664 97.2794 23.9013C96.8407 24.3591 96.2982 24.588 95.6518 24.588H86.9256C85.3096 24.5651 83.9707 24.1188 82.9088 23.249C81.8699 22.3562 81.1196 21.3605 80.6579 20.2618C80.2193 19.1402 80 17.9843 80 16.794C80 15.6495 80.2309 14.5279 80.6926 13.4292C81.1543 12.3076 81.9045 11.3119 82.9434 10.4421C83.9822 9.54939 85.5174 9.0687 87.5489 9.00003H102.093C102.739 9.00003 103.293 9.21748 103.755 9.65239C104.217 10.0644 104.459 10.5909 104.482 11.2318V22.7683C104.482 23.4092 104.24 23.9471 103.755 24.382C103.293 24.794 102.739 25 102.093 25C100.708 24.8856 99.9457 24.1417 99.8072 22.7683Z" fill="#2368D8"/>
</svg>
