<svg width="188" height="50" viewBox="0 0 188 50" fill="none" xmlns="http://www.w3.org/2000/svg">
<g filter="url(#filter0_dd_129_220)">
<path d="M6 21.1383L29.1337 5.23388C30.4133 4.35418 32.0993 4.34145 33.392 5.20171L57.3395 21.1383M18.2546 18.7245V35.8129C18.2546 37.9117 19.9561 39.6131 22.0549 39.6131H59.6666C61.7654 39.6131 63.4668 37.9117 63.4668 35.8129V19.6529M41.9284 10.3691L51.7192 3.29091C51.8829 3.17252 52.0346 3.03803 52.1883 2.90684C53.6814 1.63248 55.9277 1.70121 57.3395 3.11304L76 18.8173M31.7162 39.6131V31.7683C31.7162 29.3841 33.649 27.4513 36.0332 27.4513C38.4174 27.4513 40.3501 29.3841 40.3501 31.7683V39.3346" stroke="#2368D8" stroke-width="3.54687" stroke-linecap="round"/>
<path d="M182.35 14.2994C182.35 14.9718 182.08 15.5366 181.541 15.9937C181.028 16.4241 180.395 16.6392 179.64 16.6392H162.528C162.178 16.6392 161.895 16.7064 161.679 16.8409C161.463 16.9754 161.301 17.1233 161.193 17.2847C161.086 17.4191 161.032 17.5402 161.032 17.6477C161.032 17.7822 161.086 17.9301 161.193 18.0915C161.301 18.2259 161.463 18.3604 161.679 18.4949C161.895 18.6025 162.178 18.6697 162.528 18.6966H175.756C177.455 18.7235 178.857 19.0597 179.963 19.7051C181.069 20.3237 181.851 21.0633 182.309 21.9239C182.795 22.7576 183.037 23.6047 183.037 24.4653C183.037 25.2991 182.795 26.1462 182.309 27.0068C181.824 27.8405 181.028 28.5801 179.923 29.2256C178.844 29.8441 177.455 30.1534 175.756 30.1534C175.46 30.1803 175.244 30.1937 175.109 30.1937H159.414C158.658 30.1937 158.011 29.9786 157.472 29.5483C156.96 29.0911 156.703 28.5398 156.703 27.8943C156.703 27.222 156.973 26.6572 157.512 26.2C158.025 25.7697 158.658 25.5545 159.414 25.5545H176.08C176.484 25.5814 176.808 25.5276 177.051 25.3932C177.32 25.2587 177.523 25.1108 177.657 24.9494C177.792 24.7881 177.86 24.6267 177.86 24.4653C177.86 24.3847 177.792 24.2502 177.657 24.0619C177.523 23.8468 177.32 23.6854 177.051 23.5778C176.808 23.4434 176.484 23.3627 176.08 23.3358H162.812C161.247 23.3089 159.953 22.9862 158.928 22.3676C157.903 21.7222 157.175 20.9826 156.744 20.1489C156.312 19.3152 156.097 18.4814 156.097 17.6477C156.097 16.814 156.312 15.9937 156.744 15.1869C157.202 14.3532 157.93 13.6405 158.928 13.0489C159.953 12.4303 161.247 12.0941 162.812 12.0403C163.081 12.0134 163.283 12 163.418 12H179.64C180.395 12 181.028 12.2286 181.541 12.6858C182.08 13.1161 182.35 13.654 182.35 14.2994Z" fill="#2368D8"/>
<path d="M134.981 30.3148C132.607 30.2341 130.814 29.6828 129.601 28.6608C128.387 27.6119 127.511 26.4421 126.971 25.1511C126.432 23.8333 126.162 22.5021 126.162 21.1574C126.162 19.7589 126.418 18.4142 126.931 17.1233C127.47 15.8055 128.347 14.6356 129.56 13.6136C130.801 12.5648 132.365 12.0269 134.253 12H147.359C149.247 12.0269 150.797 12.5648 152.011 13.6136C153.251 14.6356 154.128 15.8055 154.64 17.1233C155.18 18.4142 155.449 19.7589 155.449 21.1574C155.449 22.5021 155.18 23.8333 154.64 25.1511C154.101 26.4421 153.224 27.6119 152.011 28.6608C150.797 29.6828 149.004 30.2341 146.631 30.3148H134.981ZM134.091 17.4057C133.578 17.4057 133.133 17.6208 132.756 18.0511C132.378 18.4546 132.095 18.9386 131.906 19.5034C131.744 20.0413 131.664 20.5792 131.664 21.1171C131.664 21.6818 131.744 22.2466 131.906 22.8114C132.095 23.3493 132.378 23.8333 132.756 24.2636C133.133 24.6671 133.578 24.8822 134.091 24.9091H147.521C148.033 24.8822 148.478 24.6671 148.856 24.2636C149.233 23.8333 149.503 23.3493 149.665 22.8114C149.853 22.2466 149.948 21.6818 149.948 21.1171C149.948 20.5792 149.853 20.0413 149.665 19.5034C149.503 18.9386 149.233 18.4546 148.856 18.0511C148.478 17.6208 148.033 17.4057 147.521 17.4057H134.091Z" fill="#2368D8"/>
<path d="M119.73 28.1767V18.4546C119.73 17.7822 119.38 17.4326 118.679 17.4057H104.52C104.008 17.4326 103.563 17.6612 103.185 18.0915C102.808 18.4949 102.525 18.979 102.336 19.5438C102.174 20.0816 102.093 20.633 102.093 21.1977C102.093 21.7356 102.174 22.2869 102.336 22.8517C102.525 23.3896 102.808 23.8737 103.185 24.304C103.563 24.7074 104.008 24.9091 104.52 24.9091H114.876C115.631 24.9091 116.265 25.178 116.777 25.7159C117.317 26.2269 117.586 26.8589 117.586 27.6119C117.586 28.365 117.317 28.997 116.777 29.508C116.265 30.0458 115.631 30.3148 114.876 30.3148H104.682C102.794 30.2879 101.23 29.7635 99.9898 28.7415C98.7762 27.6926 97.8997 26.5227 97.3604 25.2318C96.848 23.914 96.5918 22.5559 96.5918 21.1574C96.5918 19.8127 96.8615 18.4949 97.4008 17.204C97.9402 15.8862 98.8167 14.7163 100.03 13.6943C101.244 12.6455 103.037 12.0807 105.41 12H122.4C123.155 12 123.802 12.2555 124.342 12.7665C124.881 13.2506 125.164 13.8691 125.191 14.6222V28.1767C125.191 28.9297 124.908 29.5618 124.342 30.0727C123.802 30.5568 123.155 30.7989 122.4 30.7989C120.782 30.6644 119.892 29.7903 119.73 28.1767Z" fill="#2368D8"/>
</g>
<defs>
<filter id="filter0_dd_129_220" x="0.22644" y="0.226562" width="186.811" height="49.16" filterUnits="userSpaceOnUse" color-interpolation-filters="sRGB">
<feFlood flood-opacity="0" result="BackgroundImageFix"/>
<feColorMatrix in="SourceAlpha" type="matrix" values="0 0 0 0 0 0 0 0 0 0 0 0 0 0 0 0 0 0 127 0" result="hardAlpha"/>
<feOffset dy="4"/>
<feGaussianBlur stdDeviation="2"/>
<feComposite in2="hardAlpha" operator="out"/>
<feColorMatrix type="matrix" values="0 0 0 0 0 0 0 0 0 0 0 0 0 0 0 0 0 0 0.25 0"/>
<feBlend mode="normal" in2="BackgroundImageFix" result="effect1_dropShadow_129_220"/>
<feColorMatrix in="SourceAlpha" type="matrix" values="0 0 0 0 0 0 0 0 0 0 0 0 0 0 0 0 0 0 127 0" result="hardAlpha"/>
<feOffset dy="4"/>
<feGaussianBlur stdDeviation="2"/>
<feComposite in2="hardAlpha" operator="out"/>
<feColorMatrix type="matrix" values="0 0 0 0 0 0 0 0 0 0 0 0 0 0 0 0 0 0 0.25 0"/>
<feBlend mode="normal" in2="effect1_dropShadow_129_220" result="effect2_dropShadow_129_220"/>
<feBlend mode="normal" in="SourceGraphic" in2="effect2_dropShadow_129_220" result="shape"/>
</filter>
</defs>
</svg>
