<svg width="74" height="42" viewBox="0 0 74 42" fill="none" xmlns="http://www.w3.org/2000/svg">
<path d="M2 21.1383L25.1337 5.23388C26.4133 4.35418 28.0993 4.34145 29.392 5.20171L53.3395 21.1383M14.2546 18.7245V35.8129C14.2546 37.9117 15.9561 39.6131 18.0549 39.6131H55.6666C57.7654 39.6131 59.4668 37.9117 59.4668 35.8129V19.6529M37.9284 10.3691L47.7192 3.29091C47.8829 3.17252 48.0346 3.03803 48.1883 2.90684C49.6814 1.63248 51.9277 1.70121 53.3395 3.11304L72 18.8173M27.7162 39.6131V31.7683C27.7162 29.3841 29.649 27.4513 32.0332 27.4513C34.4174 27.4513 36.3501 29.3841 36.3501 31.7683V39.3346" stroke="#2368D8" stroke-width="3.54687" stroke-linecap="round"/>
</svg>
