<svg width="33" height="33" viewBox="0 0 33 33" fill="none" xmlns="http://www.w3.org/2000/svg">
<path d="M6.3525 24.915C7.755 23.8425 9.3225 22.9971 11.055 22.3789C12.7875 21.7607 14.6025 21.4511 16.5 21.45C18.3975 21.4489 20.2125 21.7585 21.945 22.3789C23.6775 22.9993 25.245 23.8447 26.6475 24.915C27.61 23.7875 28.3596 22.5087 28.8964 21.0787C29.4332 19.6487 29.7011 18.1225 29.7 16.5C29.7 12.8425 28.4146 9.72785 25.8439 7.15605C23.2732 4.58425 20.1586 3.2989 16.5 3.3C12.8414 3.3011 9.72675 4.587 7.15605 7.1577C4.58535 9.7284 3.3 12.8425 3.3 16.5C3.3 18.1225 3.5684 19.6487 4.1052 21.0787C4.642 22.5087 5.3911 23.7875 6.3525 24.915ZM16.5 18.15C14.8775 18.15 13.5091 17.5934 12.3948 16.4802C11.2805 15.367 10.7239 13.9986 10.725 12.375C10.7261 10.7514 11.2832 9.383 12.3964 8.2698C13.5096 7.1566 14.8775 6.6 16.5 6.6C18.1225 6.6 19.4909 7.15715 20.6052 8.27145C21.7195 9.38575 22.2761 10.7536 22.275 12.375C22.2739 13.9964 21.7173 15.3648 20.6052 16.4802C19.4931 17.5956 18.1247 18.1522 16.5 18.15ZM16.5 33C14.2175 33 12.0725 32.5666 10.065 31.6998C8.0575 30.833 6.31125 29.6576 4.82625 28.1737C3.34125 26.6898 2.1659 24.9436 1.3002 22.935C0.434502 20.9264 0.00110209 18.7814 2.08861e-06 16.5C-0.00109791 14.2186 0.432302 12.0736 1.3002 10.065C2.1681 8.0564 3.34345 6.31015 4.82625 4.82625C6.30905 3.34235 8.0553 2.167 10.065 1.3002C12.0747 0.4334 14.2197 0 16.5 0C18.7803 0 20.9253 0.4334 22.935 1.3002C24.9447 2.167 26.6909 3.34235 28.1737 4.82625C29.6565 6.31015 30.8324 8.0564 31.7014 10.065C32.5704 12.0736 33.0033 14.2186 33 16.5C32.9967 18.7814 32.5633 20.9264 31.6998 22.935C30.8363 24.9436 29.6609 26.6898 28.1737 28.1737C26.6865 29.6576 24.9403 30.8335 22.935 31.7014C20.9297 32.5693 18.7847 33.0022 16.5 33Z" fill="#2368D8"/>
</svg>
