<svg width="29" height="29" viewBox="0 0 29 29" fill="none" xmlns="http://www.w3.org/2000/svg">
<path d="M14.3784 16.1859C15.9227 16.1859 17.2407 15.6602 18.3324 14.6088C19.4241 13.5573 19.97 12.2879 19.97 10.8006C19.97 9.31317 19.4241 8.04377 18.3324 6.99234C17.2407 5.94092 15.9227 5.41521 14.3784 5.41521C12.834 5.41521 11.516 5.94092 10.4243 6.99234C9.33263 8.04377 8.78678 9.31317 8.78678 10.8006C8.78678 12.2879 9.33263 13.5573 10.4243 14.6088C11.516 15.6602 12.834 16.1859 14.3784 16.1859ZM3.19519 28.4953C2.31652 28.4953 1.56458 28.1942 0.939387 27.5921C0.314194 26.9899 0.00106506 26.2652 0 25.4179V3.87653C0 3.03027 0.313129 2.30607 0.939387 1.70393C1.56565 1.1018 2.31758 0.80022 3.19519 0.799194H25.5616C26.4402 0.799194 27.1927 1.10077 27.819 1.70393C28.4452 2.30709 28.7578 3.03129 28.7568 3.87653V25.4179C28.7568 26.2642 28.4442 26.9889 27.819 27.5921C27.1938 28.1952 26.4413 28.4963 25.5616 28.4953H3.19519ZM3.19519 25.4179H25.5616V23.6484C24.1237 22.2893 22.4532 21.2189 20.5499 20.4372C18.6466 19.6556 16.5895 19.2643 14.3784 19.2632C12.1673 19.2622 10.1101 19.6535 8.20686 20.4372C6.30359 21.2209 4.63303 22.2913 3.19519 23.6484V25.4179Z" fill="#2368D8"/>
</svg>
