<svg width="29" height="29" viewBox="0 0 29 29" fill="none" xmlns="http://www.w3.org/2000/svg">
<path d="M6.39832 10.3572C6.39832 9.35973 7.11448 8.55111 7.9979 8.55111H20.7945C22.0259 8.55116 22.7955 10.0563 22.1798 11.2604C21.894 11.8191 21.366 12.1634 20.7945 12.1634H7.9979C7.11448 12.1634 6.39832 11.3547 6.39832 10.3572ZM7.9979 18.1838H20.7945C22.0259 18.1838 22.7955 16.6787 22.1798 15.4746C21.8941 14.9158 21.366 14.5715 20.7945 14.5715H7.9979C6.76655 14.5715 5.99695 16.0766 6.61262 17.2807C6.89837 17.8395 7.42643 18.1838 7.9979 18.1838ZM28.7925 3.73477V26.6124C28.7923 27.9552 27.5406 28.8283 26.4771 28.2273L22.9273 26.224L19.3776 28.2273C18.927 28.4819 18.3965 28.4819 17.946 28.2273L14.3962 26.224L10.8465 28.2273C10.3959 28.4819 9.86544 28.4819 9.41486 28.2273L5.86513 26.224L2.31539 28.2273C1.25188 28.8283 0.000137719 27.9552 0 26.6124V3.73476C0 2.07227 1.1936 0.724548 2.66596 0.724548H26.1265C27.5989 0.724548 28.7925 2.07228 28.7925 3.73477ZM25.5933 4.33681H3.19917V23.6895L5.14931 22.5892C5.5999 22.3346 6.13037 22.3346 6.58094 22.5892L10.1307 24.5925L13.6804 22.5892C14.131 22.3346 14.6615 22.3346 15.112 22.5892L18.6618 24.5925L22.2115 22.5892C22.6621 22.3346 23.1926 22.3346 23.6431 22.5892L25.5933 23.6895V4.33681Z" fill="#2368D8"/>
</svg>
