<svg width="40" height="41" viewBox="0 0 40 41" fill="none" xmlns="http://www.w3.org/2000/svg">
<path d="M7.55432 30.5305C9.22216 29.2346 11.0862 28.2131 13.1465 27.4661C15.2067 26.7192 17.3651 26.345 19.6216 26.3437C21.8781 26.3423 24.0365 26.7165 26.0967 27.4661C28.157 28.2158 30.0211 29.2373 31.6889 30.5305C32.8335 29.1681 33.725 27.623 34.3633 25.8951C35.0017 24.1672 35.3202 22.3229 35.3189 20.3624C35.3189 15.9429 33.7904 12.1794 30.7333 9.07182C27.6763 5.96423 23.9724 4.4111 19.6216 4.41243C15.2708 4.41375 11.5669 5.96755 8.50989 9.07381C5.45285 12.1801 3.92432 15.9429 3.92432 20.3624C3.92432 22.3229 4.2435 24.1672 4.88186 25.8951C5.52021 27.623 6.41104 29.1681 7.55432 30.5305ZM19.6216 22.3562C17.6922 22.3562 16.0649 21.6836 14.7398 20.3385C13.4146 18.9934 12.7527 17.3399 12.754 15.378C12.7554 13.4162 13.4179 11.7627 14.7417 10.4176C16.0655 9.07248 17.6922 8.39992 19.6216 8.39992C21.5511 8.39992 23.1784 9.07315 24.5035 10.4196C25.8286 11.766 26.4905 13.4189 26.4892 15.378C26.4879 17.3372 25.826 18.9907 24.5035 20.3385C23.181 21.6863 21.5537 22.3588 19.6216 22.3562ZM19.6216 40.2999C16.9073 40.2999 14.3565 39.7762 11.9692 38.7288C9.58189 37.6815 7.50527 36.2612 5.73932 34.4682C3.97338 32.6752 2.57567 30.5651 1.54619 28.138C0.516705 25.711 0.00131059 23.1191 2.48375e-06 20.3624C-0.00130562 17.6057 0.514089 15.0139 1.54619 12.5868C2.57828 10.1597 3.97599 8.04969 5.73932 6.25664C7.50265 4.4636 9.57927 3.04338 11.9692 1.996C14.3591 0.948618 16.9099 0.424927 19.6216 0.424927C22.3333 0.424927 24.8841 0.948618 27.274 1.996C29.6639 3.04338 31.7406 4.4636 33.5039 6.25664C35.2672 8.04969 36.6656 10.1597 37.699 12.5868C38.7324 15.0139 39.2471 17.6057 39.2432 20.3624C39.2393 23.1191 38.7239 25.711 37.697 28.138C36.6702 30.5651 35.2725 32.6752 33.5039 34.4682C31.7353 36.2612 29.6587 37.6821 27.274 38.7308C24.8894 39.7795 22.3385 40.3026 19.6216 40.2999Z" fill="#001F4D"/>
</svg>
