<svg width="82" height="82" viewBox="0 0 82 82" fill="none" xmlns="http://www.w3.org/2000/svg">
<g filter="url(#filter0_d_240_109)">
<circle cx="41" cy="37" r="37" fill="#2368D8"/>
</g>
<mask id="path-2-inside-1_240_109" fill="white">
<path d="M20.0833 27.5677C20.0833 25.8756 20.7555 24.2527 21.952 23.0562C23.1485 21.8597 24.7713 21.1875 26.4635 21.1875H54.5364C56.2285 21.1875 57.8513 21.8597 59.0479 23.0562C60.2444 24.2527 60.9166 25.8756 60.9166 27.5677V45.4323C60.9166 47.1244 60.2444 48.7473 59.0479 49.9438C57.8513 51.1403 56.2285 51.8125 54.5364 51.8125H26.4635C24.7713 51.8125 23.1485 51.1403 21.952 49.9438C20.7555 48.7473 20.0833 47.1244 20.0833 45.4323V27.5677ZM26.4635 23.7396C25.4482 23.7396 24.4745 24.1429 23.7566 24.8608C23.0387 25.5787 22.6353 26.5524 22.6353 27.5677V30.8854H58.3645V27.5677C58.3645 26.5524 57.9612 25.5787 57.2433 24.8608C56.5254 24.1429 55.5517 23.7396 54.5364 23.7396H26.4635ZM22.6353 45.4323C22.6353 46.4476 23.0387 47.4213 23.7566 48.1392C24.4745 48.8571 25.4482 49.2604 26.4635 49.2604H54.5364C55.5517 49.2604 56.5254 48.8571 57.2433 48.1392C57.9612 47.4213 58.3645 46.4476 58.3645 45.4323V33.4375H22.6353V45.4323ZM47.901 42.1146C47.5625 42.1146 47.238 42.249 46.9987 42.4883C46.7594 42.7276 46.6249 43.0522 46.6249 43.3906C46.6249 43.7291 46.7594 44.0536 46.9987 44.2929C47.238 44.5322 47.5625 44.6667 47.901 44.6667H53.5155C53.854 44.6667 54.1785 44.5322 54.4178 44.2929C54.6571 44.0536 54.7916 43.7291 54.7916 43.3906C54.7916 43.0522 54.6571 42.7276 54.4178 42.4883C54.1785 42.249 53.854 42.1146 53.5155 42.1146H47.901Z"/>
</mask>
<path d="M20.0833 27.5677C20.0833 25.8756 20.7555 24.2527 21.952 23.0562C23.1485 21.8597 24.7713 21.1875 26.4635 21.1875H54.5364C56.2285 21.1875 57.8513 21.8597 59.0479 23.0562C60.2444 24.2527 60.9166 25.8756 60.9166 27.5677V45.4323C60.9166 47.1244 60.2444 48.7473 59.0479 49.9438C57.8513 51.1403 56.2285 51.8125 54.5364 51.8125H26.4635C24.7713 51.8125 23.1485 51.1403 21.952 49.9438C20.7555 48.7473 20.0833 47.1244 20.0833 45.4323V27.5677ZM26.4635 23.7396C25.4482 23.7396 24.4745 24.1429 23.7566 24.8608C23.0387 25.5787 22.6353 26.5524 22.6353 27.5677V30.8854H58.3645V27.5677C58.3645 26.5524 57.9612 25.5787 57.2433 24.8608C56.5254 24.1429 55.5517 23.7396 54.5364 23.7396H26.4635ZM22.6353 45.4323C22.6353 46.4476 23.0387 47.4213 23.7566 48.1392C24.4745 48.8571 25.4482 49.2604 26.4635 49.2604H54.5364C55.5517 49.2604 56.5254 48.8571 57.2433 48.1392C57.9612 47.4213 58.3645 46.4476 58.3645 45.4323V33.4375H22.6353V45.4323ZM47.901 42.1146C47.5625 42.1146 47.238 42.249 46.9987 42.4883C46.7594 42.7276 46.6249 43.0522 46.6249 43.3906C46.6249 43.7291 46.7594 44.0536 46.9987 44.2929C47.238 44.5322 47.5625 44.6667 47.901 44.6667H53.5155C53.854 44.6667 54.1785 44.5322 54.4178 44.2929C54.6571 44.0536 54.7916 43.7291 54.7916 43.3906C54.7916 43.0522 54.6571 42.7276 54.4178 42.4883C54.1785 42.249 53.854 42.1146 53.5155 42.1146H47.901Z" fill="white"/>
<path d="M26.4635 21.1875L26.4635 18.1875L26.4635 21.1875ZM60.9166 27.5677L63.9166 27.5677L60.9166 27.5677ZM54.5364 51.8125L54.5364 54.8125L54.5364 51.8125ZM22.6353 27.5677H19.6353H22.6353ZM22.6353 30.8854H19.6353V33.8854H22.6353V30.8854ZM58.3645 30.8854V33.8854H61.3645V30.8854H58.3645ZM58.3645 33.4375H61.3645V30.4375H58.3645V33.4375ZM22.6353 33.4375V30.4375H19.6353V33.4375H22.6353ZM54.7916 43.3906L57.7916 43.3906L54.7916 43.3906ZM23.0833 27.5677C23.0833 26.6712 23.4394 25.8115 24.0733 25.1775L19.8307 20.9349C18.0715 22.694 17.0833 25.0799 17.0833 27.5677H23.0833ZM24.0733 25.1775C24.7072 24.5436 25.567 24.1875 26.4635 24.1875L26.4635 18.1875C23.9757 18.1875 21.5898 19.1758 19.8307 20.9349L24.0733 25.1775ZM26.4635 24.1875H54.5364V18.1875H26.4635V24.1875ZM54.5364 24.1875C55.4329 24.1875 56.2926 24.5436 56.9265 25.1775L61.1692 20.9349C59.4101 19.1758 57.0242 18.1875 54.5364 18.1875V24.1875ZM56.9265 25.1775C57.5605 25.8115 57.9166 26.6712 57.9166 27.5677L63.9166 27.5677C63.9166 25.0799 62.9283 22.694 61.1692 20.9349L56.9265 25.1775ZM57.9166 27.5677V45.4323H63.9166V27.5677H57.9166ZM57.9166 45.4323C57.9166 46.3288 57.5605 47.1886 56.9265 47.8225L61.1692 52.0651C62.9283 50.306 63.9166 47.9201 63.9166 45.4323H57.9166ZM56.9265 47.8225C56.2926 48.4564 55.4329 48.8125 54.5364 48.8125L54.5364 54.8125C57.0242 54.8125 59.4101 53.8242 61.1692 52.0651L56.9265 47.8225ZM54.5364 48.8125H26.4635V54.8125H54.5364V48.8125ZM26.4635 48.8125C25.567 48.8125 24.7072 48.4564 24.0733 47.8225L19.8307 52.0651C21.5898 53.8242 23.9757 54.8125 26.4635 54.8125V48.8125ZM24.0733 47.8225C23.4394 47.1885 23.0833 46.3288 23.0833 45.4323H17.0833C17.0833 47.9201 18.0715 50.306 19.8307 52.0651L24.0733 47.8225ZM23.0833 45.4323V27.5677H17.0833V45.4323H23.0833ZM26.4635 20.7396C24.6525 20.7396 22.9158 21.459 21.6352 22.7395L25.8779 26.9821C26.0332 26.8268 26.2438 26.7396 26.4635 26.7396V20.7396ZM21.6352 22.7395C20.3547 24.02 19.6353 25.7568 19.6353 27.5677L25.6353 27.5677C25.6353 27.3481 25.7226 27.1374 25.8779 26.9821L21.6352 22.7395ZM19.6353 27.5677V30.8854H25.6353V27.5677H19.6353ZM22.6353 33.8854H58.3645V27.8854H22.6353V33.8854ZM61.3645 30.8854V27.5677H55.3645V30.8854H61.3645ZM61.3645 27.5677C61.3645 25.7568 60.6451 24.02 59.3646 22.7395L55.122 26.9821C55.2773 27.1374 55.3645 27.3481 55.3645 27.5677H61.3645ZM59.3646 22.7395C58.0841 21.459 56.3473 20.7396 54.5364 20.7396V26.7396C54.756 26.7396 54.9666 26.8268 55.122 26.9821L59.3646 22.7395ZM54.5364 20.7396H26.4635V26.7396H54.5364V20.7396ZM19.6353 45.4323C19.6353 47.2432 20.3547 48.98 21.6352 50.2605L25.8779 46.0179C25.7226 45.8626 25.6353 45.6519 25.6353 45.4323H19.6353ZM21.6352 50.2605C22.9158 51.541 24.6525 52.2604 26.4635 52.2604V46.2604C26.2438 46.2604 26.0332 46.1732 25.8779 46.0179L21.6352 50.2605ZM26.4635 52.2604H54.5364V46.2604H26.4635V52.2604ZM54.5364 52.2604C56.3473 52.2604 58.0841 51.541 59.3646 50.2605L55.122 46.0179C54.9666 46.1732 54.756 46.2604 54.5364 46.2604V52.2604ZM59.3646 50.2605C60.6451 48.98 61.3645 47.2432 61.3645 45.4323H55.3645C55.3645 45.6519 55.2773 45.8626 55.122 46.0179L59.3646 50.2605ZM61.3645 45.4323V33.4375H55.3645V45.4323H61.3645ZM58.3645 30.4375H22.6353V36.4375H58.3645V30.4375ZM19.6353 33.4375V45.4323H25.6353V33.4375H19.6353ZM47.901 39.1146C46.7669 39.1146 45.6793 39.5651 44.8773 40.367L49.12 44.6096C48.7967 44.933 48.3582 45.1146 47.901 45.1146V39.1146ZM44.8773 40.367C44.0754 41.1689 43.6249 42.2566 43.6249 43.3906H49.6249C49.6249 43.8478 49.4433 44.2863 49.12 44.6096L44.8773 40.367ZM43.6249 43.3906C43.6249 44.5247 44.0754 45.6123 44.8773 46.4142L49.12 42.1716C49.4433 42.4949 49.6249 42.9334 49.6249 43.3906H43.6249ZM44.8773 46.4142C45.6793 47.2162 46.7669 47.6667 47.901 47.6667V41.6667C48.3582 41.6667 48.7967 41.8483 49.12 42.1716L44.8773 46.4142ZM47.901 47.6667H53.5155V41.6667H47.901V47.6667ZM53.5155 47.6667C54.6496 47.6667 55.7372 47.2162 56.5392 46.4142L52.2965 42.1716C52.6198 41.8483 53.0583 41.6667 53.5155 41.6667V47.6667ZM56.5392 46.4142C57.3411 45.6123 57.7916 44.5247 57.7916 43.3906L51.7916 43.3906C51.7916 42.9334 51.9732 42.4949 52.2965 42.1716L56.5392 46.4142ZM57.7916 43.3906C57.7916 42.2565 57.3411 41.1689 56.5392 40.367L52.2965 44.6096C51.9732 44.2863 51.7916 43.8479 51.7916 43.3906L57.7916 43.3906ZM56.5392 40.367C55.7372 39.5651 54.6496 39.1146 53.5155 39.1146V45.1146C53.0583 45.1146 52.6198 44.933 52.2965 44.6096L56.5392 40.367ZM53.5155 39.1146H47.901V45.1146H53.5155V39.1146Z" fill="white" mask="url(#path-2-inside-1_240_109)"/>
<defs>
<filter id="filter0_d_240_109" x="0" y="0" width="82" height="82" filterUnits="userSpaceOnUse" color-interpolation-filters="sRGB">
<feFlood flood-opacity="0" result="BackgroundImageFix"/>
<feColorMatrix in="SourceAlpha" type="matrix" values="0 0 0 0 0 0 0 0 0 0 0 0 0 0 0 0 0 0 127 0" result="hardAlpha"/>
<feOffset dy="4"/>
<feGaussianBlur stdDeviation="2"/>
<feComposite in2="hardAlpha" operator="out"/>
<feColorMatrix type="matrix" values="0 0 0 0 0 0 0 0 0 0 0 0 0 0 0 0 0 0 0.25 0"/>
<feBlend mode="normal" in2="BackgroundImageFix" result="effect1_dropShadow_240_109"/>
<feBlend mode="normal" in="SourceGraphic" in2="effect1_dropShadow_240_109" result="shape"/>
</filter>
</defs>
</svg>
